<?xml version="1.0" encoding="UTF-8" standalone="no"?>
<svg
   xmlns:dc="http://purl.org/dc/elements/1.1/"
   xmlns:cc="http://creativecommons.org/ns#"
   xmlns:rdf="http://www.w3.org/1999/02/22-rdf-syntax-ns#"
   xmlns:svg="http://www.w3.org/2000/svg"
   xmlns="http://www.w3.org/2000/svg"
   xmlns:sodipodi="http://sodipodi.sourceforge.net/DTD/sodipodi-0.dtd"
   xmlns:inkscape="http://www.inkscape.org/namespaces/inkscape"
   version="1.1"
   viewBox="0 0 239.0079 182.4278"
   stroke-miterlimit="10"
   id="svg2"
   inkscape:version="0.91 r13725"
   sodipodi:docname="Cloudify 3.3.1 self-paced demo.svg"
   width="239.0079"
   height="182.4278"
   style="fill:none;stroke:none;stroke-linecap:square;stroke-miterlimit:10">
  <metadata
     id="metadata91">
    <rdf:RDF>
      <cc:Work
         rdf:about="">
        <dc:format>image/svg+xml</dc:format>
        <dc:type
           rdf:resource="http://purl.org/dc/dcmitype/StillImage" />
        <dc:title></dc:title>
      </cc:Work>
    </rdf:RDF>
  </metadata>
  <defs
     id="defs89" />
  <sodipodi:namedview
     pagecolor="#ffffff"
     bordercolor="#666666"
     borderopacity="1"
     objecttolerance="10"
     gridtolerance="10"
     guidetolerance="10"
     inkscape:pageopacity="0"
     inkscape:pageshadow="2"
     inkscape:window-width="1737"
     inkscape:window-height="969"
     id="namedview87"
     showgrid="false"
     inkscape:zoom="1.0833333"
     inkscape:cx="169.6717"
     inkscape:cy="181.79455"
     inkscape:window-x="0"
     inkscape:window-y="27"
     inkscape:window-maximized="0"
     inkscape:current-layer="g7"
     fit-margin-top="0"
     fit-margin-left="0"
     fit-margin-right="0"
     fit-margin-bottom="0" />
  <clipPath
     id="g123fd78ea5_1_110.0">
    <path
       d="M 0,0 960,0 960,720 0,720 0,0 Z"
       id="path5"
       inkscape:connector-curvature="0"
       style="clip-rule:nonzero" />
  </clipPath>
  <g
     clip-path="url(#g123fd78ea5_1_110.0)"
     id="g7"
     transform="translate(-310.3283,-359.36675)">
    <path
       inkscape:connector-curvature="0"
       style="fill:#6d9eeb;fill-rule:nonzero"
       d="m 311.3283,370.45098 0,0 c 0,-5.56937 4.51483,-10.08423 10.0842,-10.08423 l 216.83948,0 c 2.6745,0 5.23944,1.06244 7.13061,2.95361 1.89118,1.89115 2.95362,4.45609 2.95362,7.13062 l 0,40.33551 c 0,5.56934 -4.5149,10.08423 -10.08423,10.08423 l -216.83948,0 c -5.56937,0 -10.0842,-4.51489 -10.0842,-10.08423 z"
       id="path69" />
    <path
       inkscape:connector-curvature="0"
       style="fill-rule:nonzero;stroke:#666666;stroke-width:2;stroke-linecap:butt;stroke-linejoin:round"
       d="m 311.3283,370.45098 0,0 c 0,-5.56937 4.51483,-10.08423 10.0842,-10.08423 l 216.83948,0 c 2.6745,0 5.23944,1.06244 7.13061,2.95361 1.89118,1.89115 2.95362,4.45609 2.95362,7.13062 l 0,40.33551 c 0,5.56934 -4.5149,10.08423 -10.08423,10.08423 l -216.83948,0 c -5.56937,0 -10.0842,-4.51489 -10.0842,-10.08423 z"
       id="path71" />
    <path
       inkscape:connector-curvature="0"
       style="fill:#ffffff;fill-rule:nonzero"
       d="m 399.94616,385.58311 q 0,0.20312 -0.0312,0.34375 -0.0156,0.14062 -0.0625,0.23437 -0.0312,0.0781 -0.10938,0.125 -0.0625,0.0469 -0.14062,0.0469 l -3.73438,0 0,11.5 q 0,0.0781 -0.0469,0.14062 -0.0312,0.0625 -0.14063,0.10938 -0.0937,0.0312 -0.26562,0.0469 -0.17188,0.0312 -0.4375,0.0312 -0.23438,0 -0.42188,-0.0312 -0.17187,-0.0156 -0.28125,-0.0469 -0.0937,-0.0469 -0.14062,-0.10938 -0.0312,-0.0625 -0.0312,-0.14062 l 0,-11.5 -3.73438,0 q -0.0781,0 -0.15625,-0.0469 -0.0625,-0.0469 -0.10937,-0.125 -0.0312,-0.0937 -0.0625,-0.23437 -0.0156,-0.14063 -0.0156,-0.34375 0,-0.1875 0.0156,-0.32813 0.0312,-0.15625 0.0625,-0.25 0.0469,-0.0937 0.10937,-0.125 0.0781,-0.0469 0.15625,-0.0469 l 9.23438,0 q 0.0781,0 0.14062,0.0469 0.0781,0.0312 0.10938,0.125 0.0469,0.0937 0.0625,0.25 0.0312,0.14063 0.0312,0.32813 z m 10.4714,7.54687 q 0,1.125 -0.29687,2.07813 -0.29688,0.9375 -0.89063,1.625 -0.59375,0.6875 -1.48437,1.07812 -0.875,0.375 -2.04688,0.375 -1.14062,0 -1.98437,-0.32812 -0.84375,-0.34375 -1.40625,-0.98438 -0.5625,-0.65625 -0.84375,-1.57812 -0.28125,-0.92188 -0.28125,-2.07813 0,-1.14062 0.28125,-2.07812 0.29687,-0.95313 0.89062,-1.64063 0.59375,-0.6875 1.46875,-1.0625 0.89063,-0.39062 2.0625,-0.39062 1.14063,0 1.98438,0.34375 0.84375,0.34375 1.40625,0.98437 0.57812,0.64063 0.85937,1.57813 0.28125,0.92187 0.28125,2.07812 z m -1.78125,0.10938 q 0,-0.75 -0.14062,-1.40625 -0.14063,-0.67188 -0.46875,-1.17188 -0.3125,-0.51562 -0.85938,-0.79687 -0.53125,-0.29688 -1.34375,-0.29688 -0.75,0 -1.29687,0.26563 -0.53125,0.26562 -0.89063,0.75 -0.34375,0.48437 -0.51562,1.15625 -0.15625,0.67187 -0.15625,1.45312 0,0.76563 0.125,1.4375 0.14062,0.65625 0.46875,1.15625 0.32812,0.5 0.85937,0.79688 0.54688,0.28125 1.35938,0.28125 0.73437,0 1.28125,-0.26563 0.54687,-0.26562 0.89062,-0.75 0.35938,-0.48437 0.51563,-1.14062 0.17187,-0.67188 0.17187,-1.46875 z m 12.93476,-0.15625 q 0,1.21875 -0.26563,2.1875 -0.26562,0.95312 -0.78125,1.625 -0.5,0.67187 -1.25,1.03125 -0.73437,0.35937 -1.70312,0.35937 -0.40625,0 -0.76563,-0.0781 -0.34375,-0.0781 -0.6875,-0.25 -0.32812,-0.17188 -0.65625,-0.4375 -0.32812,-0.26563 -0.6875,-0.625 l 0,4.60937 q 0,0.0781 -0.0469,0.14063 -0.0469,0.0625 -0.14063,0.0937 -0.0781,0.0469 -0.25,0.0625 -0.15625,0.0312 -0.42187,0.0312 -0.25,0 -0.42188,-0.0312 -0.15625,-0.0156 -0.25,-0.0625 -0.0937,-0.0312 -0.14062,-0.0937 -0.0312,-0.0625 -0.0312,-0.14063 l 0,-12.89062 q 0,-0.0937 0.0312,-0.14063 0.0312,-0.0625 0.125,-0.0937 0.0937,-0.0469 0.23437,-0.0625 0.15625,-0.0156 0.35938,-0.0156 0.20312,0 0.34375,0.0156 0.14062,0.0156 0.23437,0.0625 0.0937,0.0312 0.125,0.0937 0.0469,0.0469 0.0469,0.14063 l 0,1.23437 q 0.40625,-0.42187 0.79687,-0.73437 0.39063,-0.32813 0.78125,-0.53125 0.40625,-0.21875 0.8125,-0.32813 0.42188,-0.10937 0.89063,-0.10937 1,0 1.70312,0.39062 0.70313,0.39063 1.15625,1.07813 0.45313,0.67187 0.65625,1.57812 0.20313,0.89063 0.20313,1.89063 z m -1.78125,0.20312 q 0,-0.71875 -0.10938,-1.375 -0.10937,-0.65625 -0.375,-1.17187 -0.26562,-0.51563 -0.70312,-0.8125 -0.4375,-0.3125 -1.09375,-0.3125 -0.32813,0 -0.65625,0.0937 -0.3125,0.0937 -0.64063,0.3125 -0.32812,0.20312 -0.6875,0.54687 -0.35937,0.34375 -0.75,0.84375 l 0,3.67188 q 0.6875,0.85937 1.3125,1.3125 0.625,0.4375 1.3125,0.4375 0.64063,0 1.09375,-0.29688 0.45313,-0.3125 0.73438,-0.82812 0.29687,-0.51563 0.42187,-1.14063 0.14063,-0.64062 0.14063,-1.28125 z m 13.0806,-0.15625 q 0,1.125 -0.29688,2.07813 -0.29687,0.9375 -0.89062,1.625 -0.59375,0.6875 -1.48438,1.07812 -0.875,0.375 -2.04687,0.375 -1.14063,0 -1.98438,-0.32812 -0.84375,-0.34375 -1.40625,-0.98438 -0.5625,-0.65625 -0.84375,-1.57812 -0.28125,-0.92188 -0.28125,-2.07813 0,-1.14062 0.28125,-2.07812 0.29688,-0.95313 0.89063,-1.64063 0.59375,-0.6875 1.46875,-1.0625 0.89062,-0.39062 2.0625,-0.39062 1.14062,0 1.98437,0.34375 0.84375,0.34375 1.40625,0.98437 0.57813,0.64063 0.85938,1.57813 0.28125,0.92187 0.28125,2.07812 z m -1.78125,0.10938 q 0,-0.75 -0.14063,-1.40625 -0.14062,-0.67188 -0.46875,-1.17188 -0.3125,-0.51562 -0.85937,-0.79687 -0.53125,-0.29688 -1.34375,-0.29688 -0.75,0 -1.29688,0.26563 -0.53125,0.26562 -0.89062,0.75 -0.34375,0.48437 -0.51563,1.15625 -0.15625,0.67187 -0.15625,1.45312 0,0.76563 0.125,1.4375 0.14063,0.65625 0.46875,1.15625 0.32813,0.5 0.85938,0.79688 0.54687,0.28125 1.35937,0.28125 0.73438,0 1.28125,-0.26563 0.54688,-0.26562 0.89063,-0.75 0.35937,-0.48437 0.51562,-1.14062 0.17188,-0.67188 0.17188,-1.46875 z m 6.13787,4.60937 q 0,0.0781 -0.0469,0.14063 -0.0469,0.0469 -0.14063,0.0937 -0.0781,0.0312 -0.25,0.0469 -0.15625,0.0312 -0.42187,0.0312 -0.25,0 -0.42188,-0.0312 -0.15625,-0.0156 -0.25,-0.0469 -0.0937,-0.0469 -0.14062,-0.0937 -0.0312,-0.0625 -0.0312,-0.14063 l 0,-13.70312 q 0,-0.0781 0.0312,-0.14063 0.0469,-0.0625 0.14062,-0.10937 0.0937,-0.0469 0.25,-0.0625 0.17188,-0.0156 0.42188,-0.0156 0.26562,0 0.42187,0.0156 0.17188,0.0156 0.25,0.0625 0.0937,0.0469 0.14063,0.10937 0.0469,0.0625 0.0469,0.14063 l 0,13.70312 z m 11.78528,-4.71875 q 0,1.125 -0.29687,2.07813 -0.29688,0.9375 -0.89063,1.625 -0.59375,0.6875 -1.48437,1.07812 -0.875,0.375 -2.04688,0.375 -1.14062,0 -1.98437,-0.32812 -0.84375,-0.34375 -1.40625,-0.98438 -0.5625,-0.65625 -0.84375,-1.57812 -0.28125,-0.92188 -0.28125,-2.07813 0,-1.14062 0.28125,-2.07812 0.29687,-0.95313 0.89062,-1.64063 0.59375,-0.6875 1.46875,-1.0625 0.89063,-0.39062 2.0625,-0.39062 1.14063,0 1.98438,0.34375 0.84375,0.34375 1.40625,0.98437 0.57812,0.64063 0.85937,1.57813 0.28125,0.92187 0.28125,2.07812 z m -1.78125,0.10938 q 0,-0.75 -0.14062,-1.40625 -0.14063,-0.67188 -0.46875,-1.17188 -0.3125,-0.51562 -0.85938,-0.79687 -0.53125,-0.29688 -1.34375,-0.29688 -0.75,0 -1.29687,0.26563 -0.53125,0.26562 -0.89063,0.75 -0.34375,0.48437 -0.51562,1.15625 -0.15625,0.67187 -0.15625,1.45312 0,0.76563 0.125,1.4375 0.14062,0.65625 0.46875,1.15625 0.32812,0.5 0.85937,0.79688 0.54688,0.28125 1.35938,0.28125 0.73437,0 1.28125,-0.26563 0.54687,-0.26562 0.89062,-0.75 0.35938,-0.48437 0.51563,-1.14062 0.17187,-0.67188 0.17187,-1.46875 z m 12.1535,-4.20313 q 0,0.35938 -0.10937,0.51563 -0.0937,0.15625 -0.23438,0.15625 l -1.32812,0 q 0.35937,0.375 0.5,0.82812 0.14062,0.4375 0.14062,0.92188 0,0.79687 -0.26562,1.42187 -0.25,0.60938 -0.73438,1.03125 -0.46875,0.42188 -1.125,0.65625 -0.65625,0.21875 -1.45312,0.21875 -0.5625,0 -1.07813,-0.14062 -0.5,-0.15625 -0.78125,-0.375 -0.17187,0.17187 -0.29687,0.42187 -0.10938,0.23438 -0.10938,0.53125 0,0.35938 0.32813,0.59375 0.32812,0.23438 0.89062,0.26563 l 2.40625,0.0937 q 0.6875,0.0312 1.25,0.20312 0.57813,0.15625 1,0.46875 0.42188,0.3125 0.65625,0.78125 0.23438,0.45313 0.23438,1.04688 0,0.64062 -0.26563,1.21875 -0.26562,0.57812 -0.8125,1 -0.54687,0.4375 -1.40625,0.6875 -0.84375,0.26562 -2,0.26562 -1.125,0 -1.90625,-0.20312 -0.78125,-0.1875 -1.28125,-0.51563 -0.5,-0.32812 -0.73437,-0.78125 -0.21875,-0.45312 -0.21875,-0.98437 0,-0.34375 0.0781,-0.67188 0.0781,-0.3125 0.25,-0.59375 0.17188,-0.28125 0.42188,-0.54687 0.25,-0.26563 0.57812,-0.51563 -0.5,-0.26562 -0.75,-0.65625 -0.23437,-0.39062 -0.23437,-0.82812 0,-0.625 0.25,-1.10938 0.26562,-0.5 0.64062,-0.89062 -0.3125,-0.39063 -0.5,-0.85938 -0.1875,-0.48437 -0.1875,-1.15625 0,-0.79687 0.26563,-1.42187 0.26562,-0.625 0.73437,-1.04688 0.48438,-0.4375 1.14063,-0.65625 0.65625,-0.23437 1.4375,-0.23437 0.42187,0 0.78125,0.0469 0.375,0.0469 0.6875,0.125 l 2.79687,0 q 0.17188,0 0.25,0.17188 0.0937,0.17187 0.0937,0.51562 z m -2.64062,2.42188 q 0,-0.9375 -0.53125,-1.46875 -0.51563,-0.53125 -1.46875,-0.53125 -0.48438,0 -0.85938,0.17187 -0.35937,0.15625 -0.60937,0.45313 -0.23438,0.28125 -0.35938,0.65625 -0.10937,0.375 -0.10937,0.78125 0,0.92187 0.51562,1.45312 0.53125,0.51563 1.45313,0.51563 0.5,0 0.875,-0.15625 0.375,-0.17188 0.60937,-0.45313 0.25,-0.28125 0.35938,-0.64062 0.125,-0.375 0.125,-0.78125 z m 0.84375,7.3125 q 0,-0.59375 -0.48438,-0.90625 -0.48437,-0.32813 -1.3125,-0.34375 l -2.39062,-0.0937 q -0.32813,0.26562 -0.54688,0.5 -0.20312,0.21875 -0.32812,0.42187 -0.125,0.21875 -0.17188,0.42188 -0.0469,0.20312 -0.0469,0.42187 0,0.67188 0.67187,1.01563 0.6875,0.34375 1.89063,0.34375 0.76562,0 1.28125,-0.15625 0.53125,-0.14063 0.84375,-0.39063 0.3125,-0.25 0.45312,-0.5625 0.14063,-0.3125 0.14063,-0.67187 z m 8.32046,-0.67188 -1.21875,3.39063 q -0.0625,0.17187 -0.3125,0.25 -0.25,0.0937 -0.76562,0.0937 -0.26563,0 -0.4375,-0.0312 -0.15625,-0.0156 -0.25,-0.0781 -0.0781,-0.0625 -0.0937,-0.17187 -0.0156,-0.0937 0.0469,-0.25 l 1.28125,-3.20313 q -0.0937,-0.0469 -0.1875,-0.125 -0.0781,-0.0937 -0.10937,-0.20312 l -3.28125,-8.8125 q -0.0937,-0.21875 -0.0937,-0.34375 0,-0.125 0.0781,-0.1875 0.0937,-0.0781 0.26563,-0.0937 0.1875,-0.0312 0.5,-0.0312 0.3125,0 0.48437,0.0156 0.17188,0.0156 0.26563,0.0625 0.10937,0.0312 0.15625,0.10938 0.0469,0.0781 0.0937,0.20312 l 2.64062,7.40625 0.0312,0 2.54688,-7.4375 q 0.0625,-0.20312 0.14062,-0.25 0.0937,-0.0625 0.26563,-0.0781 0.17187,-0.0312 0.5,-0.0312 0.29687,0 0.46875,0.0312 0.1875,0.0156 0.26562,0.0937 0.0937,0.0625 0.0937,0.1875 0,0.125 -0.0625,0.3125 l -3.3125,9.17187 z"
       id="path73" />
    <path
       inkscape:connector-curvature="0"
       style="fill:#ff9900;fill-rule:nonzero"
       d="m 311.3283,431.52447 0,0 c 0,-5.5694 4.51483,-10.08423 10.0842,-10.08423 l 216.83948,0 c 2.6745,0 5.23944,1.06244 7.13061,2.95361 1.89118,1.89118 2.95362,4.45612 2.95362,7.13062 l 0,40.33551 c 0,5.5694 -4.5149,10.08423 -10.08423,10.08423 l -216.83948,0 c -5.56937,0 -10.0842,-4.51483 -10.0842,-10.08423 z"
       id="path75" />
    <path
       inkscape:connector-curvature="0"
       style="fill-rule:nonzero;stroke:#666666;stroke-width:2;stroke-linecap:butt;stroke-linejoin:round"
       d="m 311.3283,431.52447 0,0 c 0,-5.5694 4.51483,-10.08423 10.0842,-10.08423 l 216.83948,0 c 2.6745,0 5.23944,1.06244 7.13061,2.95361 1.89118,1.89118 2.95362,4.45612 2.95362,7.13062 l 0,40.33551 c 0,5.5694 -4.5149,10.08423 -10.08423,10.08423 l -216.83948,0 c -5.56937,0 -10.0842,-4.51483 -10.0842,-10.08423 z"
       id="path77" />
    <path
       inkscape:connector-curvature="0"
       style="fill:#ffffff;fill-rule:nonzero"
       d="m 397.50512,458.78161 q -0.0469,0.14062 -0.125,0.23437 -0.0781,0.0781 -0.23437,0.125 -0.14063,0.0469 -0.34375,0.0625 -0.20313,0.0312 -0.51563,0.0312 -0.3125,0 -0.54687,-0.0312 -0.21875,-0.0156 -0.35938,-0.0625 -0.14062,-0.0469 -0.21875,-0.125 -0.0625,-0.0937 -0.10937,-0.23437 l -2.78125,-10.01563 -0.0156,0 -2.5625,10.01563 q -0.0312,0.14062 -0.10937,0.23437 -0.0625,0.0781 -0.20313,0.125 -0.125,0.0469 -0.34375,0.0625 -0.20312,0.0312 -0.53125,0.0312 -0.34375,0 -0.57812,-0.0312 -0.21875,-0.0156 -0.35938,-0.0625 -0.14062,-0.0469 -0.21875,-0.125 -0.0781,-0.0937 -0.10937,-0.23437 l -3.5,-12.25 q -0.0625,-0.23438 -0.0781,-0.35938 0,-0.14062 0.0781,-0.21875 0.0937,-0.0781 0.28125,-0.0937 0.20312,-0.0156 0.53125,-0.0156 0.3125,0 0.5,0.0156 0.1875,0.0156 0.28125,0.0625 0.10937,0.0312 0.14062,0.10938 0.0312,0.0625 0.0469,0.17187 l 2.98437,11.125 0.0156,0 2.82812,-11.09375 q 0.0312,-0.10937 0.0781,-0.1875 0.0469,-0.0781 0.14062,-0.125 0.10938,-0.0469 0.29688,-0.0625 0.20312,-0.0156 0.5,-0.0156 0.29687,0 0.45312,0.0156 0.17188,0.0156 0.26563,0.0625 0.10937,0.0469 0.15625,0.125 0.0469,0.0781 0.0781,0.1875 l 3.04688,11.09375 0.0156,0 2.92188,-11.10937 q 0.0312,-0.0937 0.0625,-0.17188 0.0312,-0.0781 0.125,-0.125 0.10937,-0.0469 0.28125,-0.0625 0.1875,-0.0156 0.48437,-0.0156 0.3125,0 0.48438,0.0312 0.1875,0.0156 0.26562,0.0937 0.0781,0.0625 0.0625,0.20312 0,0.125 -0.0469,0.35938 l -3.51563,12.25 z m 14.66202,-4.57813 q 0,1.125 -0.29688,2.07813 -0.29687,0.9375 -0.89062,1.625 -0.59375,0.6875 -1.48438,1.07812 -0.875,0.375 -2.04687,0.375 -1.14063,0 -1.98438,-0.32812 -0.84375,-0.34375 -1.40625,-0.98438 -0.5625,-0.65625 -0.84375,-1.57812 -0.28125,-0.92188 -0.28125,-2.07813 0,-1.14062 0.28125,-2.07812 0.29688,-0.95313 0.89063,-1.64063 0.59375,-0.6875 1.46875,-1.0625 0.89062,-0.39062 2.0625,-0.39062 1.14062,0 1.98437,0.34375 0.84375,0.34375 1.40625,0.98437 0.57813,0.64063 0.85938,1.57813 0.28125,0.92187 0.28125,2.07812 z m -1.78125,0.10938 q 0,-0.75 -0.14063,-1.40625 -0.14062,-0.67188 -0.46875,-1.17188 -0.3125,-0.51562 -0.85937,-0.79687 -0.53125,-0.29688 -1.34375,-0.29688 -0.75,0 -1.29688,0.26563 -0.53125,0.26562 -0.89062,0.75 -0.34375,0.48437 -0.51563,1.15625 -0.15625,0.67187 -0.15625,1.45312 0,0.76563 0.125,1.4375 0.14063,0.65625 0.46875,1.15625 0.32813,0.5 0.85938,0.79688 0.54687,0.28125 1.35937,0.28125 0.73438,0 1.28125,-0.26563 0.54688,-0.26562 0.89063,-0.75 0.35937,-0.48437 0.51562,-1.14062 0.17188,-0.67188 0.17188,-1.46875 z m 9.841,-4.01563 q 0,0.21875 -0.0156,0.375 -0.0156,0.15625 -0.0469,0.25 -0.0312,0.0781 -0.0781,0.125 -0.0469,0.0469 -0.125,0.0469 -0.0781,0 -0.20313,-0.0469 -0.10937,-0.0469 -0.26562,-0.0937 -0.14063,-0.0469 -0.32813,-0.0781 -0.1875,-0.0469 -0.40625,-0.0469 -0.25,0 -0.5,0.10938 -0.23437,0.0937 -0.51562,0.32812 -0.26563,0.23438 -0.5625,0.625 -0.29688,0.39063 -0.65625,0.95313 l 0,6.07812 q 0,0.0781 -0.0469,0.14063 -0.0469,0.0469 -0.14062,0.0937 -0.0781,0.0312 -0.25,0.0469 -0.15625,0.0312 -0.42188,0.0312 -0.25,0 -0.42187,-0.0312 -0.15625,-0.0156 -0.25,-0.0469 -0.0937,-0.0469 -0.14063,-0.0937 -0.0312,-0.0625 -0.0312,-0.14063 l 0,-9.23437 q 0,-0.0781 0.0312,-0.14063 0.0312,-0.0625 0.125,-0.0937 0.0937,-0.0469 0.23438,-0.0625 0.15625,-0.0156 0.39062,-0.0156 0.21875,0 0.35938,0.0156 0.15625,0.0156 0.23437,0.0625 0.0937,0.0312 0.125,0.0937 0.0312,0.0625 0.0312,0.14063 l 0,1.34375 q 0.375,-0.5625 0.70313,-0.90625 0.34375,-0.34375 0.64062,-0.54688 0.29688,-0.20312 0.59375,-0.28125 0.29688,-0.0781 0.59375,-0.0781 0.125,0 0.29688,0.0156 0.17187,0.0156 0.34375,0.0625 0.1875,0.0469 0.32812,0.0937 0.15625,0.0469 0.21875,0.10938 0.0625,0.0469 0.0781,0.0937 0.0312,0.0469 0.0469,0.125 0.0156,0.0625 0.0156,0.20312 0.0156,0.14063 0.0156,0.375 z m 9.60757,8.60938 q 0,0.0781 -0.0469,0.14062 -0.0312,0.0625 -0.125,0.10938 -0.0937,0.0312 -0.28125,0.0469 -0.17188,0.0312 -0.4375,0.0312 -0.26563,0 -0.45313,-0.0156 -0.17187,-0.0156 -0.29687,-0.0469 -0.125,-0.0469 -0.20313,-0.10937 -0.0781,-0.0625 -0.14062,-0.15625 l -3.89063,-5.10938 0,5.125 q 0,0.0781 -0.0469,0.14063 -0.0469,0.0469 -0.14063,0.0937 -0.0781,0.0312 -0.25,0.0469 -0.15625,0.0312 -0.42187,0.0312 -0.25,0 -0.42188,-0.0312 -0.15625,-0.0156 -0.25,-0.0469 -0.0937,-0.0469 -0.14062,-0.0937 -0.0312,-0.0625 -0.0312,-0.14063 l 0,-13.70312 q 0,-0.0781 0.0312,-0.14063 0.0469,-0.0625 0.14062,-0.10937 0.0937,-0.0469 0.25,-0.0625 0.17188,-0.0156 0.42188,-0.0156 0.26562,0 0.42187,0.0156 0.17188,0.0156 0.25,0.0625 0.0937,0.0469 0.14063,0.10937 0.0469,0.0625 0.0469,0.14063 l 0,8.34375 3.48438,-3.82813 q 0.0781,-0.10937 0.17187,-0.17187 0.0937,-0.0781 0.21875,-0.10938 0.125,-0.0469 0.29688,-0.0625 0.1875,-0.0156 0.42187,-0.0156 0.26563,0 0.4375,0.0156 0.17188,0.0156 0.28125,0.0469 0.10938,0.0312 0.15625,0.0937 0.0469,0.0469 0.0469,0.14062 0,0.125 -0.0781,0.25 -0.0625,0.125 -0.21875,0.28125 l -3.34375,3.34375 3.76563,4.875 q 0.125,0.17188 0.17187,0.28125 0.0625,0.10938 0.0625,0.20313 z m 7.17994,-13.01563 q 0,0.20313 -0.0312,0.32813 -0.0156,0.10937 -0.0469,0.1875 -0.0156,0.0625 -0.0625,0.0937 -0.0312,0.0156 -0.0937,0.0156 -0.0781,0 -0.1875,-0.0469 -0.10937,-0.0469 -0.26562,-0.0937 -0.14063,-0.0625 -0.35938,-0.10938 -0.20312,-0.0469 -0.48437,-0.0469 -0.375,0 -0.64063,0.125 -0.26562,0.125 -0.4375,0.39062 -0.15625,0.25 -0.23437,0.67188 -0.0625,0.42187 -0.0625,1.01562 l 0,1 2.04687,0 q 0.0937,0 0.14063,0.0312 0.0625,0.0312 0.10937,0.125 0.0469,0.0937 0.0625,0.23438 0.0312,0.125 0.0312,0.3125 0,0.375 -0.0937,0.54687 -0.0937,0.15625 -0.25,0.15625 l -2.04687,0 0,8.09375 q 0,0.0781 -0.0469,0.14063 -0.0469,0.0469 -0.14062,0.0937 -0.0937,0.0312 -0.26563,0.0469 -0.15625,0.0312 -0.40625,0.0312 -0.25,0 -0.42187,-0.0312 -0.15625,-0.0156 -0.25,-0.0469 -0.0937,-0.0469 -0.14063,-0.0937 -0.0312,-0.0625 -0.0312,-0.14063 l 0,-8.09375 -1.3125,0 q -0.15625,0 -0.25,-0.15625 -0.0781,-0.17187 -0.0781,-0.54687 0,-0.1875 0.0156,-0.3125 0.0312,-0.14063 0.0625,-0.23438 0.0469,-0.0937 0.10938,-0.125 0.0625,-0.0312 0.14062,-0.0312 l 1.3125,0 0,-0.95312 q 0,-0.96875 0.17188,-1.65625 0.1875,-0.6875 0.54687,-1.125 0.375,-0.45313 0.92188,-0.65625 0.5625,-0.21875 1.32812,-0.21875 0.35938,0 0.6875,0.0781 0.34375,0.0625 0.53125,0.14063 0.1875,0.0781 0.25,0.14062 0.0625,0.0469 0.0937,0.15625 0.0469,0.0937 0.0625,0.23438 0.0156,0.14062 0.0156,0.32812 z m 3.14944,13.03125 q 0,0.0781 -0.0469,0.14063 -0.0469,0.0469 -0.14063,0.0937 -0.0781,0.0312 -0.25,0.0469 -0.15625,0.0312 -0.42187,0.0312 -0.25,0 -0.42188,-0.0312 -0.15625,-0.0156 -0.25,-0.0469 -0.0937,-0.0469 -0.14062,-0.0937 -0.0312,-0.0625 -0.0312,-0.14063 l 0,-13.70312 q 0,-0.0781 0.0312,-0.14063 0.0469,-0.0625 0.14062,-0.10937 0.0937,-0.0469 0.25,-0.0625 0.17188,-0.0156 0.42188,-0.0156 0.26562,0 0.42187,0.0156 0.17188,0.0156 0.25,0.0625 0.0937,0.0469 0.14063,0.10937 0.0469,0.0625 0.0469,0.14063 l 0,13.70312 z m 11.78528,-4.71875 q 0,1.125 -0.29688,2.07813 -0.29687,0.9375 -0.89062,1.625 -0.59375,0.6875 -1.48438,1.07812 -0.875,0.375 -2.04687,0.375 -1.14063,0 -1.98438,-0.32812 -0.84375,-0.34375 -1.40625,-0.98438 -0.5625,-0.65625 -0.84375,-1.57812 -0.28125,-0.92188 -0.28125,-2.07813 0,-1.14062 0.28125,-2.07812 0.29688,-0.95313 0.89063,-1.64063 0.59375,-0.6875 1.46875,-1.0625 0.89062,-0.39062 2.0625,-0.39062 1.14062,0 1.98437,0.34375 0.84375,0.34375 1.40625,0.98437 0.57813,0.64063 0.85938,1.57813 0.28125,0.92187 0.28125,2.07812 z m -1.78125,0.10938 q 0,-0.75 -0.14063,-1.40625 -0.14062,-0.67188 -0.46875,-1.17188 -0.3125,-0.51562 -0.85937,-0.79687 -0.53125,-0.29688 -1.34375,-0.29688 -0.75,0 -1.29688,0.26563 -0.53125,0.26562 -0.89062,0.75 -0.34375,0.48437 -0.51563,1.15625 -0.15625,0.67187 -0.15625,1.45312 0,0.76563 0.125,1.4375 0.14063,0.65625 0.46875,1.15625 0.32813,0.5 0.85938,0.79688 0.54687,0.28125 1.35937,0.28125 0.73438,0 1.28125,-0.26563 0.54688,-0.26562 0.89063,-0.75 0.35937,-0.48437 0.51562,-1.14062 0.17188,-0.67188 0.17188,-1.46875 z m 17.35663,-4.64063 q 0,0.0625 -0.0312,0.17188 -0.0156,0.0937 -0.0625,0.25 l -2.71875,8.76562 q -0.0312,0.125 -0.10938,0.20313 -0.0625,0.0625 -0.1875,0.10937 -0.10937,0.0312 -0.3125,0.0469 -0.20312,0.0156 -0.51562,0.0156 -0.3125,0 -0.53125,-0.0312 -0.21875,-0.0156 -0.34375,-0.0469 -0.125,-0.0469 -0.1875,-0.10938 -0.0625,-0.0781 -0.0937,-0.1875 l -1.9375,-6.6875 -0.0156,-0.0937 -0.0312,0.0937 -1.78125,6.6875 q -0.0312,0.125 -0.10937,0.20313 -0.0625,0.0625 -0.20313,0.10937 -0.125,0.0312 -0.34375,0.0469 -0.20312,0.0156 -0.51562,0.0156 -0.3125,0 -0.51563,-0.0312 -0.1875,-0.0156 -0.32812,-0.0469 -0.125,-0.0469 -0.1875,-0.10938 -0.0625,-0.0781 -0.0937,-0.1875 l -2.6875,-8.76562 q -0.0625,-0.15625 -0.0781,-0.25 -0.0156,-0.10938 -0.0156,-0.17188 0,-0.0937 0.0312,-0.14062 0.0469,-0.0625 0.14062,-0.0937 0.10938,-0.0469 0.26563,-0.0469 0.17187,-0.0156 0.40625,-0.0156 0.28125,0 0.45312,0.0156 0.17188,0.0156 0.26563,0.0469 0.0937,0.0312 0.125,0.10937 0.0469,0.0625 0.0781,0.15625 l 2.23438,7.60938 0.0156,0.0781 0.0156,-0.0781 2.04687,-7.60938 q 0.0156,-0.0937 0.0625,-0.15625 0.0469,-0.0781 0.14063,-0.10937 0.0937,-0.0312 0.25,-0.0469 0.15625,-0.0156 0.42187,-0.0156 0.23438,0 0.39063,0.0156 0.17187,0.0156 0.26562,0.0469 0.0937,0.0312 0.125,0.0937 0.0469,0.0625 0.0625,0.14062 l 2.20313,7.64063 0.0312,0.0781 0,-0.0781 2.20312,-7.60938 q 0.0156,-0.0937 0.0625,-0.15625 0.0469,-0.0781 0.14063,-0.10937 0.0937,-0.0312 0.26562,-0.0469 0.17188,-0.0156 0.4375,-0.0156 0.25,0 0.39063,0.0156 0.15625,0 0.23437,0.0469 0.0937,0.0312 0.125,0.0937 0.0469,0.0469 0.0469,0.14062 z m 8.12127,6.73438 q 0,0.70312 -0.26562,1.26562 -0.25,0.54688 -0.73438,0.9375 -0.48437,0.375 -1.15625,0.5625 -0.65625,0.1875 -1.45312,0.1875 -0.5,0 -0.95313,-0.0781 -0.4375,-0.0625 -0.79687,-0.17188 -0.34375,-0.125 -0.59375,-0.25 -0.25,-0.14062 -0.35938,-0.23437 -0.10937,-0.10938 -0.17187,-0.29688 -0.0469,-0.1875 -0.0469,-0.5 0,-0.1875 0.0156,-0.32812 0.0312,-0.14063 0.0625,-0.21875 0.0312,-0.0781 0.0781,-0.10938 0.0625,-0.0469 0.14063,-0.0469 0.10937,0 0.32812,0.14062 0.21875,0.14063 0.53125,0.3125 0.32813,0.15625 0.76563,0.29688 0.45312,0.14062 1.03125,0.14062 0.42187,0 0.76562,-0.0937 0.35938,-0.0937 0.60938,-0.26562 0.26562,-0.1875 0.39062,-0.45313 0.14063,-0.28125 0.14063,-0.67187 0,-0.39063 -0.20313,-0.65625 -0.1875,-0.26563 -0.51562,-0.46875 -0.32813,-0.20313 -0.75,-0.35938 -0.40625,-0.15625 -0.84375,-0.32812 -0.4375,-0.1875 -0.85938,-0.40625 -0.40625,-0.21875 -0.73437,-0.53125 -0.32813,-0.32813 -0.53125,-0.76563 -0.1875,-0.4375 -0.1875,-1.04687 0,-0.54688 0.20312,-1.04688 0.21875,-0.5 0.625,-0.875 0.42188,-0.375 1.04688,-0.59375 0.64062,-0.23437 1.48437,-0.23437 0.35938,0 0.73438,0.0625 0.375,0.0625 0.67187,0.15625 0.29688,0.0937 0.5,0.20312 0.21875,0.10938 0.3125,0.1875 0.10938,0.0781 0.14063,0.14063 0.0469,0.0625 0.0625,0.14062 0.0156,0.0781 0.0312,0.20313 0.0156,0.10937 0.0156,0.26562 0,0.17188 -0.0156,0.3125 -0.0156,0.125 -0.0625,0.20313 -0.0312,0.0781 -0.0781,0.125 -0.0469,0.0312 -0.10937,0.0312 -0.0937,0 -0.26563,-0.10938 -0.17187,-0.125 -0.45312,-0.25 -0.28125,-0.125 -0.65625,-0.23437 -0.375,-0.125 -0.84375,-0.125 -0.4375,0 -0.76563,0.10937 -0.32812,0.0937 -0.54687,0.28125 -0.20313,0.17188 -0.3125,0.42188 -0.10938,0.23437 -0.10938,0.53125 0,0.39062 0.20313,0.67187 0.21875,0.26563 0.54687,0.46875 0.32813,0.20313 0.73438,0.375 0.42187,0.15625 0.85937,0.34375 0.4375,0.17188 0.85938,0.39063 0.4375,0.20312 0.76562,0.51562 0.32813,0.3125 0.51563,0.75 0.20312,0.42188 0.20312,1.01563 z"
       id="path79" />
    <path
       inkscape:connector-curvature="0"
       style="fill:#e06666;fill-rule:nonzero"
       d="m 311.3283,490.37481 0,0 c 0,-5.56934 4.51483,-10.08423 10.0842,-10.08423 l 216.83948,0 c 2.6745,0 5.23944,1.06244 7.13061,2.95361 1.89118,1.89118 2.95362,4.45612 2.95362,7.13062 l 0,40.33557 c 0,5.56934 -4.5149,10.08417 -10.08423,10.08417 l -216.83948,0 c -5.56937,0 -10.0842,-4.51483 -10.0842,-10.08417 z"
       id="path81" />
    <path
       inkscape:connector-curvature="0"
       style="fill-rule:nonzero;stroke:#666666;stroke-width:2;stroke-linecap:butt;stroke-linejoin:round"
       d="m 311.3283,490.37481 0,0 c 0,-5.56934 4.51483,-10.08423 10.0842,-10.08423 l 216.83948,0 c 2.6745,0 5.23944,1.06244 7.13061,2.95361 1.89118,1.89118 2.95362,4.45612 2.95362,7.13062 l 0,40.33557 c 0,5.56934 -4.5149,10.08417 -10.08423,10.08417 l -216.83948,0 c -5.56937,0 -10.0842,-4.51483 -10.0842,-10.08417 z"
       id="path83" />
    <path
       inkscape:connector-curvature="0"
       style="fill:#ffffff;fill-rule:nonzero"
       d="m 407.29327,508.64757 q 0,0.98438 -0.32813,1.79688 -0.32812,0.79687 -0.9375,1.35937 -0.60937,0.5625 -1.5,0.875 -0.89062,0.29688 -2.125,0.29688 l -1.5,0 0,4.78125 q 0,0.0781 -0.0469,0.14062 -0.0469,0.0625 -0.15625,0.10938 -0.0937,0.0312 -0.26563,0.0469 -0.15625,0.0312 -0.42187,0.0312 -0.25,0 -0.42188,-0.0312 -0.17187,-0.0156 -0.28125,-0.0469 -0.0937,-0.0469 -0.14062,-0.10938 -0.0312,-0.0625 -0.0312,-0.14062 l 0,-12.25 q 0,-0.40625 0.20312,-0.57813 0.21875,-0.17187 0.5,-0.17187 l 2.82813,0 q 0.4375,0 0.82812,0.0312 0.39063,0.0312 0.92188,0.15625 0.54687,0.10937 1.10937,0.4375 0.5625,0.32812 0.95313,0.79687 0.39062,0.46875 0.59375,1.09375 0.21875,0.625 0.21875,1.375 z m -1.85938,0.14063 q 0,-0.8125 -0.3125,-1.35938 -0.29687,-0.54687 -0.75,-0.8125 -0.4375,-0.26562 -0.92187,-0.32812 -0.46875,-0.0781 -0.92188,-0.0781 l -1.625,0 0,5.32813 1.57813,0 q 0.8125,0 1.32812,-0.20313 0.53125,-0.21875 0.89063,-0.57812 0.35937,-0.35938 0.54687,-0.85938 0.1875,-0.51562 0.1875,-1.10937 z m 13.11191,4.26562 q 0,1.125 -0.29687,2.07813 -0.29688,0.9375 -0.89063,1.625 -0.59375,0.6875 -1.48437,1.07812 -0.875,0.375 -2.04688,0.375 -1.14062,0 -1.98437,-0.32812 -0.84375,-0.34375 -1.40625,-0.98438 -0.5625,-0.65625 -0.84375,-1.57812 -0.28125,-0.92188 -0.28125,-2.07813 0,-1.14062 0.28125,-2.07812 0.29687,-0.95313 0.89062,-1.64063 0.59375,-0.6875 1.46875,-1.0625 0.89063,-0.39062 2.0625,-0.39062 1.14063,0 1.98438,0.34375 0.84375,0.34375 1.40625,0.98437 0.57812,0.64063 0.85937,1.57813 0.28125,0.92187 0.28125,2.07812 z m -1.78125,0.10938 q 0,-0.75 -0.14062,-1.40625 -0.14063,-0.67188 -0.46875,-1.17188 -0.3125,-0.51562 -0.85938,-0.79687 -0.53125,-0.29688 -1.34375,-0.29688 -0.75,0 -1.29687,0.26563 -0.53125,0.26562 -0.89063,0.75 -0.34375,0.48437 -0.51562,1.15625 -0.15625,0.67187 -0.15625,1.45312 0,0.76563 0.125,1.4375 0.14062,0.65625 0.46875,1.15625 0.32812,0.5 0.85937,0.79688 0.54688,0.28125 1.35938,0.28125 0.73437,0 1.28125,-0.26563 0.54687,-0.26562 0.89062,-0.75 0.35938,-0.48437 0.51563,-1.14062 0.17187,-0.67188 0.17187,-1.46875 z m 6.13788,4.60937 q 0,0.0781 -0.0469,0.14063 -0.0469,0.0469 -0.14063,0.0937 -0.0781,0.0312 -0.25,0.0469 -0.15625,0.0312 -0.42187,0.0312 -0.25,0 -0.42188,-0.0312 -0.15625,-0.0156 -0.25,-0.0469 -0.0937,-0.0469 -0.14062,-0.0937 -0.0312,-0.0625 -0.0312,-0.14063 l 0,-13.70312 q 0,-0.0781 0.0312,-0.14063 0.0469,-0.0625 0.14062,-0.10937 0.0937,-0.0469 0.25,-0.0625 0.17188,-0.0156 0.42188,-0.0156 0.26562,0 0.42187,0.0156 0.17188,0.0156 0.25,0.0625 0.0937,0.0469 0.14063,0.10937 0.0469,0.0625 0.0469,0.14063 l 0,13.70312 z m 4.89462,0 q 0,0.0781 -0.0469,0.14063 -0.0469,0.0469 -0.14063,0.0937 -0.0781,0.0312 -0.25,0.0469 -0.15625,0.0312 -0.42187,0.0312 -0.25,0 -0.42188,-0.0312 -0.15625,-0.0156 -0.25,-0.0469 -0.0937,-0.0469 -0.14062,-0.0937 -0.0312,-0.0625 -0.0312,-0.14063 l 0,-9.23437 q 0,-0.0781 0.0312,-0.14063 0.0469,-0.0625 0.14062,-0.0937 0.0937,-0.0469 0.25,-0.0625 0.17188,-0.0156 0.42188,-0.0156 0.26562,0 0.42187,0.0156 0.17188,0.0156 0.25,0.0625 0.0937,0.0312 0.14063,0.0937 0.0469,0.0625 0.0469,0.14063 l 0,9.23437 z m 0.1875,-12.35937 q 0,0.60937 -0.23437,0.82812 -0.21875,0.20313 -0.8125,0.20313 -0.59375,0 -0.82813,-0.20313 -0.21875,-0.21875 -0.21875,-0.79687 0,-0.59375 0.21875,-0.8125 0.23438,-0.21875 0.84375,-0.21875 0.59375,0 0.8125,0.21875 0.21875,0.20312 0.21875,0.78125 z m 9.64466,10.95312 q 0,0.17188 -0.0156,0.29688 0,0.125 -0.0312,0.21875 -0.0312,0.0781 -0.0625,0.15625 -0.0312,0.0625 -0.17187,0.1875 -0.125,0.125 -0.4375,0.32812 -0.29688,0.1875 -0.6875,0.34375 -0.375,0.14063 -0.82813,0.21875 -0.45312,0.0937 -0.9375,0.0937 -0.98437,0 -1.76562,-0.32812 -0.76563,-0.32813 -1.28125,-0.95313 -0.51563,-0.625 -0.79688,-1.54687 -0.26562,-0.92188 -0.26562,-2.125 0,-1.35938 0.32812,-2.32813 0.34375,-0.98437 0.92188,-1.60937 0.57812,-0.625 1.35937,-0.92188 0.78125,-0.3125 1.70313,-0.3125 0.4375,0 0.84375,0.0937 0.42187,0.0781 0.76562,0.21875 0.35938,0.125 0.625,0.29688 0.26563,0.17187 0.39063,0.29687 0.125,0.125 0.17187,0.20313 0.0469,0.0625 0.0781,0.15625 0.0312,0.0937 0.0312,0.21875 0.0156,0.125 0.0156,0.3125 0,0.40625 -0.0937,0.5625 -0.0781,0.15625 -0.21875,0.15625 -0.15625,0 -0.35937,-0.17188 -0.1875,-0.17187 -0.5,-0.375 -0.3125,-0.20312 -0.75,-0.375 -0.4375,-0.17187 -1.03125,-0.17187 -1.21875,0 -1.875,0.9375 -0.64063,0.9375 -0.64063,2.73437 0,0.89063 0.17188,1.5625 0.17187,0.67188 0.5,1.125 0.32812,0.4375 0.79687,0.67188 0.48438,0.21875 1.09375,0.21875 0.57813,0 1.01563,-0.1875 0.45312,-0.1875 0.76562,-0.40625 0.32813,-0.21875 0.54688,-0.39063 0.21875,-0.1875 0.34375,-0.1875 0.0781,0 0.125,0.0469 0.0469,0.0312 0.0781,0.14062 0.0469,0.0937 0.0625,0.25 0.0156,0.14063 0.0156,0.34375 z m 4.08111,1.40625 q 0,0.0781 -0.0469,0.14063 -0.0469,0.0469 -0.14063,0.0937 -0.0781,0.0312 -0.25,0.0469 -0.15625,0.0312 -0.42187,0.0312 -0.25,0 -0.42188,-0.0312 -0.15625,-0.0156 -0.25,-0.0469 -0.0937,-0.0469 -0.14062,-0.0937 -0.0312,-0.0625 -0.0312,-0.14063 l 0,-9.23437 q 0,-0.0781 0.0312,-0.14063 0.0469,-0.0625 0.14062,-0.0937 0.0937,-0.0469 0.25,-0.0625 0.17188,-0.0156 0.42188,-0.0156 0.26562,0 0.42187,0.0156 0.17188,0.0156 0.25,0.0625 0.0937,0.0312 0.14063,0.0937 0.0469,0.0625 0.0469,0.14063 l 0,9.23437 z m 0.1875,-12.35937 q 0,0.60937 -0.23437,0.82812 -0.21875,0.20313 -0.8125,0.20313 -0.59375,0 -0.82813,-0.20313 -0.21875,-0.21875 -0.21875,-0.79687 0,-0.59375 0.21875,-0.8125 0.23438,-0.21875 0.84375,-0.21875 0.59375,0 0.8125,0.21875 0.21875,0.20312 0.21875,0.78125 z m 10.87903,7.34375 q 0,0.39062 -0.20312,0.5625 -0.1875,0.17187 -0.45313,0.17187 l -6.04687,0 q 0,0.76563 0.15625,1.39063 0.15625,0.60937 0.51562,1.04687 0.35938,0.4375 0.92188,0.6875 0.57812,0.23438 1.42187,0.23438 0.65625,0 1.15625,-0.10938 0.51563,-0.10937 0.89063,-0.23437 0.375,-0.14063 0.60937,-0.25 0.25,-0.10938 0.375,-0.10938 0.0625,0 0.125,0.0312 0.0625,0.0312 0.0937,0.10938 0.0312,0.0781 0.0312,0.20312 0.0156,0.125 0.0156,0.3125 0,0.125 -0.0156,0.23438 0,0.0937 -0.0156,0.17187 -0.0156,0.0781 -0.0469,0.14063 -0.0312,0.0625 -0.0937,0.125 -0.0625,0.0469 -0.34375,0.17187 -0.26562,0.125 -0.70312,0.25 -0.4375,0.125 -1.03125,0.21875 -0.57813,0.0937 -1.23438,0.0937 -1.125,0 -1.98437,-0.3125 -0.85938,-0.3125 -1.45313,-0.9375 -0.57812,-0.625 -0.875,-1.5625 -0.29687,-0.95312 -0.29687,-2.20312 0,-1.1875 0.29687,-2.14063 0.3125,-0.95312 0.89063,-1.60937 0.59375,-0.65625 1.40625,-1.01563 0.82812,-0.35937 1.84375,-0.35937 1.07812,0 1.84375,0.35937 0.76562,0.34375 1.25,0.9375 0.5,0.59375 0.71875,1.39063 0.23437,0.78125 0.23437,1.6875 l 0,0.3125 z m -1.70312,-0.5 q 0.0312,-1.34375 -0.59375,-2.09375 -0.60938,-0.76563 -1.82813,-0.76563 -0.625,0 -1.09375,0.23438 -0.46875,0.23437 -0.79687,0.625 -0.3125,0.39062 -0.48438,0.90625 -0.17187,0.51562 -0.20312,1.09375 l 5,0 z m 10.237,3 q 0,0.70312 -0.26563,1.26562 -0.25,0.54688 -0.73437,0.9375 -0.48438,0.375 -1.15625,0.5625 -0.65625,0.1875 -1.45313,0.1875 -0.5,0 -0.95312,-0.0781 -0.4375,-0.0625 -0.79688,-0.17188 -0.34375,-0.125 -0.59375,-0.25 -0.25,-0.14062 -0.35937,-0.23437 -0.10938,-0.10938 -0.17188,-0.29688 -0.0469,-0.1875 -0.0469,-0.5 0,-0.1875 0.0156,-0.32812 0.0312,-0.14063 0.0625,-0.21875 0.0312,-0.0781 0.0781,-0.10938 0.0625,-0.0469 0.14062,-0.0469 0.10938,0 0.32813,0.14062 0.21875,0.14063 0.53125,0.3125 0.32812,0.15625 0.76562,0.29688 0.45313,0.14062 1.03125,0.14062 0.42188,0 0.76563,-0.0937 0.35937,-0.0937 0.60937,-0.26562 0.26563,-0.1875 0.39063,-0.45313 0.14062,-0.28125 0.14062,-0.67187 0,-0.39063 -0.20312,-0.65625 -0.1875,-0.26563 -0.51563,-0.46875 -0.32812,-0.20313 -0.75,-0.35938 -0.40625,-0.15625 -0.84375,-0.32812 -0.4375,-0.1875 -0.85937,-0.40625 -0.40625,-0.21875 -0.73438,-0.53125 -0.32812,-0.32813 -0.53125,-0.76563 -0.1875,-0.4375 -0.1875,-1.04687 0,-0.54688 0.20313,-1.04688 0.21875,-0.5 0.625,-0.875 0.42187,-0.375 1.04687,-0.59375 0.64063,-0.23437 1.48438,-0.23437 0.35937,0 0.73437,0.0625 0.375,0.0625 0.67188,0.15625 0.29687,0.0937 0.5,0.20312 0.21875,0.10938 0.3125,0.1875 0.10937,0.0781 0.14062,0.14063 0.0469,0.0625 0.0625,0.14062 0.0156,0.0781 0.0312,0.20313 0.0156,0.10937 0.0156,0.26562 0,0.17188 -0.0156,0.3125 -0.0156,0.125 -0.0625,0.20313 -0.0312,0.0781 -0.0781,0.125 -0.0469,0.0312 -0.10938,0.0312 -0.0937,0 -0.26562,-0.10938 -0.17188,-0.125 -0.45313,-0.25 -0.28125,-0.125 -0.65625,-0.23437 -0.375,-0.125 -0.84375,-0.125 -0.4375,0 -0.76562,0.10937 -0.32813,0.0937 -0.54688,0.28125 -0.20312,0.17188 -0.3125,0.42188 -0.10937,0.23437 -0.10937,0.53125 0,0.39062 0.20312,0.67187 0.21875,0.26563 0.54688,0.46875 0.32812,0.20313 0.73437,0.375 0.42188,0.15625 0.85938,0.34375 0.4375,0.17188 0.85937,0.39063 0.4375,0.20312 0.76563,0.51562 0.32812,0.3125 0.51562,0.75 0.20313,0.42188 0.20313,1.01563 z"
       id="path85" />
  </g>
</svg>
