<?xml version="1.0" encoding="UTF-8" standalone="no"?>
<svg
   xmlns:dc="http://purl.org/dc/elements/1.1/"
   xmlns:cc="http://creativecommons.org/ns#"
   xmlns:rdf="http://www.w3.org/1999/02/22-rdf-syntax-ns#"
   xmlns:svg="http://www.w3.org/2000/svg"
   xmlns="http://www.w3.org/2000/svg"
   xmlns:sodipodi="http://sodipodi.sourceforge.net/DTD/sodipodi-0.dtd"
   xmlns:inkscape="http://www.inkscape.org/namespaces/inkscape"
   version="1.1"
   viewBox="0 0 850.25458 361.71127"
   stroke-miterlimit="10"
   id="svg2"
   inkscape:version="0.91 r13725"
   sodipodi:docname="Cloudify 3.3.1 self-paced demo.svg"
   width="850.25458"
   height="361.71127"
   style="fill:none;stroke:none;stroke-linecap:square;stroke-miterlimit:10">
  <metadata
     id="metadata101">
    <rdf:RDF>
      <cc:Work
         rdf:about="">
        <dc:format>image/svg+xml</dc:format>
        <dc:type
           rdf:resource="http://purl.org/dc/dcmitype/StillImage" />
        <dc:title></dc:title>
      </cc:Work>
    </rdf:RDF>
  </metadata>
  <defs
     id="defs99" />
  <sodipodi:namedview
     pagecolor="#ffffff"
     bordercolor="#666666"
     borderopacity="1"
     objecttolerance="10"
     gridtolerance="10"
     guidetolerance="10"
     inkscape:pageopacity="0"
     inkscape:pageshadow="2"
     inkscape:window-width="1920"
     inkscape:window-height="1053"
     id="namedview97"
     showgrid="false"
     fit-margin-top="0"
     fit-margin-left="0"
     fit-margin-right="0"
     fit-margin-bottom="0"
     inkscape:zoom="1.2"
     inkscape:cx="482.33876"
     inkscape:cy="215.65617"
     inkscape:window-x="0"
     inkscape:window-y="27"
     inkscape:window-maximized="1"
     inkscape:current-layer="svg2" />
  <clipPath
     id="g123fd78ea5_1_126.0">
    <path
       d="M 0,0 960,0 960,720 0,720 0,0 Z"
       id="path5"
       inkscape:connector-curvature="0"
       style="clip-rule:nonzero" />
  </clipPath>
  <path
     style="fill:#fff2cc;fill-rule:nonzero"
     inkscape:connector-curvature="0"
     id="path19"
     d="m 187.71392,39.1076 202.4252,0 0,197.79529 -202.4252,0 z" />
  <path
     style="fill-rule:nonzero;stroke:#000000;stroke-width:2;stroke-linecap:butt;stroke-linejoin:round"
     inkscape:connector-curvature="0"
     id="path21"
     d="m 187.71392,39.1076 202.4252,0 0,197.79529 -202.4252,0 z" />
  <path
     style="fill:#000000;fill-rule:nonzero"
     inkscape:connector-curvature="0"
     id="path23"
     d="m 199.32329,56.78137 -1.85938,-0.34375 q 0.3125,-1.125 1.07813,-1.65625 0.76562,-0.54687 2.28125,-0.54687 1.39062,0 2.0625,0.32812 0.67187,0.32813 0.9375,0.82813 0.28125,0.5 0.28125,1.84375 l -0.0156,2.39062 q 0,1.03125 0.0937,1.51563 0.0937,0.48437 0.375,1.04687 l -2.04687,0 q -0.0781,-0.20312 -0.1875,-0.60937 -0.0625,-0.1875 -0.0781,-0.23438 -0.53125,0.5 -1.14062,0.76563 -0.59375,0.25 -1.26563,0.25 -1.20312,0 -1.90625,-0.64063 -0.6875,-0.65625 -0.6875,-1.65625 0,-0.65625 0.3125,-1.17187 0.32813,-0.51563 0.89063,-0.78125 0.5625,-0.28125 1.64062,-0.5 1.4375,-0.26563 2,-0.5 l 0,-0.20313 q 0,-0.59375 -0.29687,-0.84375 -0.29688,-0.25 -1.10938,-0.25 -0.54687,0 -0.85937,0.21875 -0.29688,0.20313 -0.5,0.75 z m 2.76562,1.67188 q -0.40625,0.125 -1.26562,0.3125 -0.84375,0.1875 -1.10938,0.35937 -0.40625,0.28125 -0.40625,0.71875 0,0.4375 0.3125,0.75 0.32813,0.3125 0.82813,0.3125 0.5625,0 1.0625,-0.35937 0.375,-0.28125 0.48437,-0.6875 0.0937,-0.25 0.0937,-1 l 0,-0.40625 z m 3.79172,-4.04688 1.92188,0 0,1.14063 q 0.375,-0.57813 1,-0.9375 0.64062,-0.375 1.42187,-0.375 1.35938,0 2.29688,1.0625 0.95312,1.0625 0.95312,2.95312 0,1.95313 -0.95312,3.03125 -0.95313,1.07813 -2.3125,1.07813 -0.64063,0 -1.17188,-0.25 -0.51562,-0.26563 -1.09375,-0.875 l 0,3.90625 -2.0625,0 0,-10.73438 z m 2.03125,3.76563 q 0,1.3125 0.51563,1.9375 0.53125,0.625 1.28125,0.625 0.71875,0 1.1875,-0.57813 0.48437,-0.57812 0.48437,-1.89062 0,-1.21875 -0.5,-1.8125 -0.48437,-0.59375 -1.20312,-0.59375 -0.76563,0 -1.26563,0.59375 -0.5,0.57812 -0.5,1.71875 z m 6.92139,-3.76563 1.92187,0 0,1.14063 q 0.375,-0.57813 1,-0.9375 0.64063,-0.375 1.42188,-0.375 1.35937,0 2.29687,1.0625 0.95313,1.0625 0.95313,2.95312 0,1.95313 -0.95313,3.03125 -0.95312,1.07813 -2.3125,1.07813 -0.64062,0 -1.17187,-0.25 -0.51563,-0.26563 -1.09375,-0.875 l 0,3.90625 -2.0625,0 0,-10.73438 z m 2.03125,3.76563 q 0,1.3125 0.51562,1.9375 0.53125,0.625 1.28125,0.625 0.71875,0 1.1875,-0.57813 0.48438,-0.57812 0.48438,-1.89062 0,-1.21875 -0.5,-1.8125 -0.48438,-0.59375 -1.20313,-0.59375 -0.76562,0 -1.26562,0.59375 -0.5,0.57812 -0.5,1.71875 z m 5.76511,6.98437 0,-1.32812 8.5625,0 0,1.32812 -8.5625,0 z m 11.51049,-2.96875 -3.14062,-7.78125 2.15625,0 1.46875,3.96875 0.42187,1.32813 q 0.17188,-0.5 0.21875,-0.67188 0.10938,-0.32812 0.21875,-0.65625 l 1.48438,-3.96875 2.10937,0 -3.09375,7.78125 -1.84375,0 z m 5.85422,-7.78125 1.89063,0 0,1.0625 q 1.03125,-1.23437 2.4375,-1.23437 0.73437,0 1.28125,0.3125 0.5625,0.29687 0.90625,0.92187 0.51562,-0.625 1.10937,-0.92187 0.59375,-0.3125 1.26563,-0.3125 0.85937,0 1.45312,0.34375 0.59375,0.34375 0.89063,1.03125 0.20312,0.48437 0.20312,1.60937 l 0,4.96875 -2.04687,0 0,-4.45312 q 0,-1.15625 -0.21875,-1.48438 -0.28125,-0.4375 -0.875,-0.4375 -0.4375,0 -0.82813,0.26563 -0.375,0.25 -0.54687,0.76562 -0.15625,0.51563 -0.15625,1.60938 l 0,3.73437 -2.0625,0 0,-4.26562 q 0,-1.125 -0.10938,-1.45313 -0.10937,-0.34375 -0.34375,-0.5 -0.23437,-0.15625 -0.625,-0.15625 -0.46875,0 -0.85937,0.26563 -0.375,0.25 -0.54688,0.73437 -0.15625,0.46875 -0.15625,1.59375 l 0,3.78125 -2.0625,0 0,-7.78125 z" />
  <path
     style="fill:#ea9999;fill-rule:nonzero"
     inkscape:connector-curvature="0"
     id="path25"
     d="m 212.70079,86.92651 152.47244,0 0,120 -152.47244,0 z" />
  <path
     style="fill-rule:nonzero;stroke:#000000;stroke-width:2;stroke-linecap:butt;stroke-linejoin:round"
     inkscape:connector-curvature="0"
     id="path27"
     d="m 212.70079,86.92651 152.47244,0 0,120 -152.47244,0 z" />
  <path
     style="fill:#000000;fill-rule:nonzero"
     inkscape:connector-curvature="0"
     id="path29"
     d="m 226.34142,102.22525 0,1.64062 -1.40625,0 0,3.14063 q 0,0.95312 0.0312,1.10937 0.0469,0.15625 0.1875,0.26563 0.15625,0.0937 0.35938,0.0937 0.28125,0 0.82812,-0.20313 l 0.17188,1.60938 q -0.71875,0.29687 -1.625,0.29687 -0.5625,0 -1.01563,-0.1875 -0.4375,-0.1875 -0.65625,-0.48437 -0.20312,-0.29688 -0.28125,-0.79688 -0.0625,-0.35937 -0.0625,-1.45312 l 0,-3.39063 -0.9375,0 0,-1.64062 0.9375,0 0,-1.54688 2.0625,-1.20312 0,2.75 1.40625,0 z m 0.83377,3.78125 q 0,-1.03125 0.5,-1.98438 0.51563,-0.95312 1.4375,-1.45312 0.9375,-0.51563 2.07813,-0.51563 1.76562,0 2.89062,1.15625 1.125,1.14063 1.125,2.89063 0,1.76562 -1.14062,2.92187 -1.14063,1.15625 -2.85938,1.15625 -1.07812,0 -2.04687,-0.48437 -0.96875,-0.48438 -1.48438,-1.40625 -0.5,-0.9375 -0.5,-2.28125 z m 2.10938,0.10937 q 0,1.15625 0.54687,1.78125 0.5625,0.60938 1.35938,0.60938 0.8125,0 1.35937,-0.60938 0.54688,-0.625 0.54688,-1.79687 0,-1.14063 -0.54688,-1.75 -0.54687,-0.625 -1.35937,-0.625 -0.79688,0 -1.35938,0.625 -0.54687,0.60937 -0.54687,1.76562 z m 7.17135,-3.89062 1.89063,0 0,1.0625 q 1.03125,-1.23438 2.4375,-1.23438 0.73437,0 1.28125,0.3125 0.5625,0.29688 0.90625,0.92188 0.51562,-0.625 1.10937,-0.92188 0.59375,-0.3125 1.26563,-0.3125 0.85937,0 1.45312,0.34375 0.59375,0.34375 0.89063,1.03125 0.20312,0.48438 0.20312,1.60938 l 0,4.96875 -2.04687,0 0,-4.45313 q 0,-1.15625 -0.21875,-1.48437 -0.28125,-0.4375 -0.875,-0.4375 -0.4375,0 -0.82813,0.26562 -0.375,0.25 -0.54687,0.76563 -0.15625,0.51562 -0.15625,1.60937 l 0,3.73438 -2.0625,0 0,-4.26563 q 0,-1.125 -0.10938,-1.45312 -0.10937,-0.34375 -0.34375,-0.5 -0.23437,-0.15625 -0.625,-0.15625 -0.46875,0 -0.85937,0.26562 -0.375,0.25 -0.54688,0.73438 -0.15625,0.46875 -0.15625,1.59375 l 0,3.78125 -2.0625,0 0,-7.78125 z m 19.96927,2.29687 -2.03125,0.375 q -0.0937,-0.60937 -0.46875,-0.90625 -0.35937,-0.3125 -0.9375,-0.3125 -0.76562,0 -1.23437,0.53125 -0.45313,0.51563 -0.45313,1.76563 0,1.39062 0.46875,1.96875 0.46875,0.5625 1.25,0.5625 0.59375,0 0.95313,-0.32813 0.375,-0.34375 0.53125,-1.15625 l 2.03125,0.34375 q -0.32813,1.39063 -1.21875,2.10938 -0.89063,0.70312 -2.39063,0.70312 -1.70312,0 -2.71875,-1.07812 -1.01562,-1.07813 -1.01562,-2.96875 0,-1.9375 1.01562,-3 1.01563,-1.07813 2.75,-1.07813 1.42188,0 2.26563,0.60938 0.84375,0.60937 1.20312,1.85937 z m 2.90109,0.0781 -1.85937,-0.34375 q 0.3125,-1.125 1.07812,-1.65625 0.76563,-0.54688 2.28125,-0.54688 1.39063,0 2.0625,0.32813 0.67188,0.32812 0.9375,0.82812 0.28125,0.5 0.28125,1.84375 l -0.0156,2.39063 q 0,1.03125 0.0937,1.51562 0.0937,0.48438 0.375,1.04688 l -2.04688,0 q -0.0781,-0.20313 -0.1875,-0.60938 -0.0625,-0.1875 -0.0781,-0.23437 -0.53125,0.5 -1.14063,0.76562 -0.59375,0.25 -1.26562,0.25 -1.20313,0 -1.90625,-0.64062 -0.6875,-0.65625 -0.6875,-1.65625 0,-0.65625 0.3125,-1.17188 0.32812,-0.51562 0.89062,-0.78125 0.5625,-0.28125 1.64063,-0.5 1.4375,-0.26562 2,-0.5 l 0,-0.20312 q 0,-0.59375 -0.29688,-0.84375 -0.29687,-0.25 -1.10937,-0.25 -0.54688,0 -0.85938,0.21875 -0.29687,0.20312 -0.5,0.75 z m 2.76563,1.67187 q -0.40625,0.125 -1.26563,0.3125 -0.84375,0.1875 -1.10937,0.35938 -0.40625,0.28125 -0.40625,0.71875 0,0.4375 0.3125,0.75 0.32812,0.3125 0.82812,0.3125 0.5625,0 1.0625,-0.35938 0.375,-0.28125 0.48438,-0.6875 0.0937,-0.25 0.0937,-1 l 0,-0.40625 z m 7.41675,-4.04687 0,1.64062 -1.40625,0 0,3.14063 q 0,0.95312 0.0312,1.10937 0.0469,0.15625 0.1875,0.26563 0.15625,0.0937 0.35937,0.0937 0.28125,0 0.82813,-0.20313 l 0.17187,1.60938 q -0.71875,0.29687 -1.625,0.29687 -0.5625,0 -1.01562,-0.1875 -0.4375,-0.1875 -0.65625,-0.48437 -0.20313,-0.29688 -0.28125,-0.79688 -0.0625,-0.35937 -0.0625,-1.45312 l 0,-3.39063 -0.9375,0 0,-1.64062 0.9375,0 0,-1.54688 2.0625,-1.20312 0,2.75 1.40625,0 z" />
  <path
     style="fill:#6fa8dc;fill-rule:nonzero"
     inkscape:connector-curvature="0"
     id="path31"
     d="m 233.48818,137.68501 110.89764,0 0,48.09448 -110.89764,0 z" />
  <path
     style="fill-rule:nonzero;stroke:#000000;stroke-width:2;stroke-linecap:butt;stroke-linejoin:round"
     inkscape:connector-curvature="0"
     id="path33"
     d="m 233.48818,137.68501 110.89764,0 0,48.09448 -110.89764,0 z" />
  <path
     style="fill:#000000;fill-rule:nonzero"
     inkscape:connector-curvature="0"
     id="path35"
     d="m 250.34755,155.28067 -2.03125,0.375 q -0.0937,-0.60938 -0.46875,-0.90625 -0.35938,-0.3125 -0.9375,-0.3125 -0.76563,0 -1.23438,0.53125 -0.45312,0.51562 -0.45312,1.76562 0,1.39063 0.46875,1.96875 0.46875,0.5625 1.25,0.5625 0.59375,0 0.95312,-0.32812 0.375,-0.34375 0.53125,-1.15625 l 2.03125,0.34375 q -0.32812,1.39062 -1.21875,2.10937 -0.89062,0.70313 -2.39062,0.70313 -1.70313,0 -2.71875,-1.07813 -1.01563,-1.07812 -1.01563,-2.96875 0,-1.9375 1.01563,-3 1.01562,-1.07812 2.75,-1.07812 1.42187,0 2.26562,0.60937 0.84375,0.60938 1.20313,1.85938 z m 3.33862,5.48437 -2.0625,0 0,-7.78125 1.92188,0 0,1.10938 q 0.48437,-0.78125 0.875,-1.03125 0.39062,-0.25 0.89062,-0.25 0.70313,0 1.35938,0.39062 l -0.64063,1.79688 q -0.51562,-0.34375 -0.96875,-0.34375 -0.4375,0 -0.73437,0.25 -0.29688,0.23437 -0.46875,0.85937 -0.17188,0.60938 -0.17188,2.59375 l 0,2.40625 z m 3.57862,-7.78125 1.89062,0 0,1.0625 q 1.03125,-1.23437 2.4375,-1.23437 0.73438,0 1.28125,0.3125 0.5625,0.29687 0.90625,0.92187 0.51563,-0.625 1.10938,-0.92187 0.59375,-0.3125 1.26562,-0.3125 0.85938,0 1.45313,0.34375 0.59375,0.34375 0.89062,1.03125 0.20313,0.48437 0.20313,1.60937 l 0,4.96875 -2.04688,0 0,-4.45312 q 0,-1.15625 -0.21875,-1.48438 -0.28125,-0.4375 -0.875,-0.4375 -0.4375,0 -0.82812,0.26563 -0.375,0.25 -0.54688,0.76562 -0.15625,0.51563 -0.15625,1.60938 l 0,3.73437 -2.0625,0 0,-4.26562 q 0,-1.125 -0.10937,-1.45313 -0.10938,-0.34375 -0.34375,-0.5 -0.23438,-0.15625 -0.625,-0.15625 -0.46875,0 -0.85938,0.26563 -0.375,0.25 -0.54687,0.73437 -0.15625,0.46875 -0.15625,1.59375 l 0,3.78125 -2.0625,0 0,-7.78125 z m 11.96927,10.75 0,-1.32812 8.5625,0 0,1.32812 -8.5625,0 z m 10.90109,-8.375 -1.85938,-0.34375 q 0.3125,-1.125 1.07813,-1.65625 0.76562,-0.54687 2.28125,-0.54687 1.39062,0 2.0625,0.32812 0.67187,0.32813 0.9375,0.82813 0.28125,0.5 0.28125,1.84375 l -0.0156,2.39062 q 0,1.03125 0.0937,1.51563 0.0937,0.48437 0.375,1.04687 l -2.04687,0 q -0.0781,-0.20312 -0.1875,-0.60937 -0.0625,-0.1875 -0.0781,-0.23438 -0.53125,0.5 -1.14062,0.76563 -0.59375,0.25 -1.26563,0.25 -1.20312,0 -1.90625,-0.64063 -0.6875,-0.65625 -0.6875,-1.65625 0,-0.65625 0.3125,-1.17187 0.32813,-0.51563 0.89063,-0.78125 0.5625,-0.28125 1.64062,-0.5 1.4375,-0.26563 2,-0.5 l 0,-0.20313 q 0,-0.59375 -0.29687,-0.84375 -0.29688,-0.25 -1.10938,-0.25 -0.54687,0 -0.85937,0.21875 -0.29688,0.20313 -0.5,0.75 z m 2.76562,1.67188 q -0.40625,0.125 -1.26562,0.3125 -0.84375,0.1875 -1.10938,0.35937 -0.40625,0.28125 -0.40625,0.71875 0,0.4375 0.3125,0.75 0.32813,0.3125 0.82813,0.3125 0.5625,0 1.0625,-0.35937 0.375,-0.28125 0.48437,-0.6875 0.0937,-0.25 0.0937,-1 l 0,-0.40625 z m 3.79175,-4.04688 1.92188,0 0,1.14063 q 0.375,-0.57813 1,-0.9375 0.64062,-0.375 1.42187,-0.375 1.35938,0 2.29688,1.0625 0.95312,1.0625 0.95312,2.95312 0,1.95313 -0.95312,3.03125 -0.95313,1.07813 -2.3125,1.07813 -0.64063,0 -1.17188,-0.25 -0.51562,-0.26563 -1.09375,-0.875 l 0,3.90625 -2.0625,0 0,-10.73438 z m 2.03125,3.76563 q 0,1.3125 0.51563,1.9375 0.53125,0.625 1.28125,0.625 0.71875,0 1.1875,-0.57813 0.48437,-0.57812 0.48437,-1.89062 0,-1.21875 -0.5,-1.8125 -0.48437,-0.59375 -1.20312,-0.59375 -0.76563,0 -1.26563,0.59375 -0.5,0.57812 -0.5,1.71875 z m 6.92136,-3.76563 1.92187,0 0,1.14063 q 0.375,-0.57813 1,-0.9375 0.64063,-0.375 1.42188,-0.375 1.35937,0 2.29687,1.0625 0.95313,1.0625 0.95313,2.95312 0,1.95313 -0.95313,3.03125 -0.95312,1.07813 -2.3125,1.07813 -0.64062,0 -1.17187,-0.25 -0.51563,-0.26563 -1.09375,-0.875 l 0,3.90625 -2.0625,0 0,-10.73438 z m 2.03125,3.76563 q 0,1.3125 0.51562,1.9375 0.53125,0.625 1.28125,0.625 0.71875,0 1.1875,-0.57813 0.48438,-0.57812 0.48438,-1.89062 0,-1.21875 -0.5,-1.8125 -0.48438,-0.59375 -1.20313,-0.59375 -0.76562,0 -1.26562,0.59375 -0.5,0.57812 -0.5,1.71875 z" />
  <path
     style="fill:#fff2cc;fill-rule:nonzero"
     inkscape:connector-curvature="0"
     id="path37"
     d="m 452.34121,39.1076 202.42523,0 0,197.79529 -202.42523,0 z" />
  <path
     style="fill-rule:nonzero;stroke:#000000;stroke-width:2;stroke-linecap:butt;stroke-linejoin:round"
     inkscape:connector-curvature="0"
     id="path39"
     d="m 452.34121,39.1076 202.42523,0 0,197.79529 -202.42523,0 z" />
  <path
     style="fill:#000000;fill-rule:nonzero"
     inkscape:connector-curvature="0"
     id="path41"
     d="m 469.54435,62.18761 -1.90625,0 0,-1.14063 q -0.46875,0.67188 -1.125,1 -0.64062,0.3125 -1.29687,0.3125 -1.34375,0 -2.3125,-1.07812 -0.95313,-1.07813 -0.95313,-3.01563 0,-1.96875 0.92188,-3 0.9375,-1.03125 2.35937,-1.03125 1.3125,0 2.26563,1.07813 l 0,-3.85938 2.04687,0 0,10.73438 z m -5.48437,-4.0625 q 0,1.25 0.34375,1.8125 0.5,0.79687 1.39062,0.79687 0.70313,0 1.20313,-0.59375 0.5,-0.60937 0.5,-1.8125 0,-1.34375 -0.48438,-1.92187 -0.48437,-0.59375 -1.23437,-0.59375 -0.73438,0 -1.23438,0.57812 -0.48437,0.57813 -0.48437,1.73438 z m 7.21826,4.0625 0,-10.73438 2.0625,0 0,3.85938 q 0.95312,-1.07813 2.25,-1.07813 1.42187,0 2.34375,1.03125 0.9375,1.03125 0.9375,2.95313 0,1.98437 -0.95313,3.0625 -0.9375,1.07812 -2.29687,1.07812 -0.65625,0 -1.3125,-0.32812 -0.64063,-0.32813 -1.10938,-0.98438 l 0,1.14063 -1.92187,0 z m 2.04687,-4.0625 q 0,1.21875 0.375,1.79687 0.54688,0.8125 1.42188,0.8125 0.6875,0 1.15625,-0.57812 0.48437,-0.57813 0.48437,-1.84375 0,-1.32813 -0.48437,-1.90625 -0.46875,-0.59375 -1.23438,-0.59375 -0.73437,0 -1.23437,0.57812 -0.48438,0.5625 -0.48438,1.73438 z m 5.78076,7.03125 0,-1.32813 8.5625,0 0,1.32813 -8.5625,0 z m 11.51044,-2.96875 -3.14062,-7.78125 2.15625,0 1.46875,3.96875 0.42187,1.32812 q 0.17188,-0.5 0.21875,-0.67187 0.10938,-0.32813 0.21875,-0.65625 l 1.48438,-3.96875 2.10937,0 -3.09375,7.78125 -1.84375,0 z m 5.85425,-7.78125 1.89062,0 0,1.0625 q 1.03125,-1.23438 2.4375,-1.23438 0.73438,0 1.28125,0.3125 0.5625,0.29688 0.90625,0.92188 0.51563,-0.625 1.10938,-0.92188 0.59375,-0.3125 1.26562,-0.3125 0.85938,0 1.45313,0.34375 0.59375,0.34375 0.89062,1.03125 0.20313,0.48438 0.20313,1.60938 l 0,4.96875 -2.04688,0 0,-4.45313 q 0,-1.15625 -0.21875,-1.48437 -0.28125,-0.4375 -0.875,-0.4375 -0.4375,0 -0.82812,0.26562 -0.375,0.25 -0.54688,0.76563 -0.15625,0.51562 -0.15625,1.60937 l 0,3.73438 -2.0625,0 0,-4.26563 q 0,-1.125 -0.10937,-1.45312 -0.10938,-0.34375 -0.34375,-0.5 -0.23438,-0.15625 -0.625,-0.15625 -0.46875,0 -0.85938,0.26562 -0.375,0.25 -0.54687,0.73438 -0.15625,0.46875 -0.15625,1.59375 l 0,3.78125 -2.0625,0 0,-7.78125 z" />
  <path
     style="fill:#ead1dc;fill-rule:nonzero"
     inkscape:connector-curvature="0"
     id="path43"
     d="m 477.13385,86.92651 152.47241,0 0,120 -152.47241,0 z" />
  <path
     style="fill-rule:nonzero;stroke:#000000;stroke-width:2;stroke-linecap:butt;stroke-linejoin:round"
     inkscape:connector-curvature="0"
     id="path45"
     d="m 477.13385,86.92651 152.47241,0 0,120 -152.47241,0 z" />
  <path
     style="fill:#000000;fill-rule:nonzero"
     inkscape:connector-curvature="0"
     id="path47"
     d="m 487.05575,102.22525 1.89063,0 0,1.0625 q 1.03125,-1.23438 2.4375,-1.23438 0.73437,0 1.28125,0.3125 0.5625,0.29688 0.90625,0.92188 0.51562,-0.625 1.10937,-0.92188 0.59375,-0.3125 1.26563,-0.3125 0.85937,0 1.45312,0.34375 0.59375,0.34375 0.89063,1.03125 0.20312,0.48438 0.20312,1.60938 l 0,4.96875 -2.04687,0 0,-4.45313 q 0,-1.15625 -0.21875,-1.48437 -0.28125,-0.4375 -0.875,-0.4375 -0.4375,0 -0.82813,0.26562 -0.375,0.25 -0.54687,0.76563 -0.15625,0.51562 -0.15625,1.60937 l 0,3.73438 -2.0625,0 0,-4.26563 q 0,-1.125 -0.10938,-1.45312 -0.10937,-0.34375 -0.34375,-0.5 -0.23437,-0.15625 -0.625,-0.15625 -0.46875,0 -0.85937,0.26562 -0.375,0.25 -0.54688,0.73438 -0.15625,0.46875 -0.15625,1.59375 l 0,3.78125 -2.0625,0 0,-7.78125 z m 12.70361,3.78125 q 0,-1.03125 0.5,-1.98438 0.51563,-0.95312 1.4375,-1.45312 0.9375,-0.51563 2.07813,-0.51563 1.76562,0 2.89062,1.15625 1.125,1.14063 1.125,2.89063 0,1.76562 -1.14062,2.92187 -1.14063,1.15625 -2.85938,1.15625 -1.07812,0 -2.04687,-0.48437 -0.96875,-0.48438 -1.48438,-1.40625 -0.5,-0.9375 -0.5,-2.28125 z m 2.10938,0.10937 q 0,1.15625 0.54687,1.78125 0.5625,0.60938 1.35938,0.60938 0.8125,0 1.35937,-0.60938 0.54688,-0.625 0.54688,-1.79687 0,-1.14063 -0.54688,-1.75 -0.54687,-0.625 -1.35937,-0.625 -0.79688,0 -1.35938,0.625 -0.54687,0.60937 -0.54687,1.76562 z m 14.40576,3.89063 -2.0625,0 0,-3.96875 q 0,-1.26563 -0.14062,-1.625 -0.125,-0.375 -0.42188,-0.57813 -0.29687,-0.20312 -0.71875,-0.20312 -0.53125,0 -0.95312,0.29687 -0.42188,0.28125 -0.57813,0.76563 -0.15625,0.48437 -0.15625,1.79687 l 0,3.51563 -2.0625,0 0,-7.78125 1.90625,0 0,1.14062 q 1.01563,-1.3125 2.5625,-1.3125 0.6875,0 1.25,0.25 0.5625,0.23438 0.84375,0.625 0.29688,0.375 0.40625,0.85938 0.125,0.48437 0.125,1.39062 l 0,4.82813 z m 1.68701,0.51562 2.34375,0.28125 q 0.0625,0.40625 0.28125,0.5625 0.28125,0.21875 0.92188,0.21875 0.79687,0 1.20312,-0.23437 0.26563,-0.17188 0.40625,-0.51563 0.0937,-0.26562 0.0937,-0.95312 l 0,-1.14063 q -0.92187,1.26563 -2.32812,1.26563 -1.5625,0 -2.48438,-1.32813 -0.71875,-1.04687 -0.71875,-2.60937 0,-1.95313 0.9375,-2.98438 0.95313,-1.03125 2.34375,-1.03125 1.45313,0 2.39063,1.26563 l 0,-1.09375 1.92187,0 0,6.98437 q 0,1.375 -0.23437,2.04688 -0.21875,0.6875 -0.64063,1.07812 -0.40625,0.39063 -1.09375,0.60938 -0.67187,0.21875 -1.71875,0.21875 -1.98437,0 -2.8125,-0.6875 -0.82812,-0.67188 -0.82812,-1.70313 0,-0.10937 0.0156,-0.25 z m 1.82813,-4.5625 q 0,1.23438 0.48437,1.8125 0.48438,0.57813 1.1875,0.57813 0.75,0 1.26563,-0.59375 0.53125,-0.59375 0.53125,-1.75 0,-1.20313 -0.5,-1.78125 -0.5,-0.59375 -1.26563,-0.59375 -0.73437,0 -1.21875,0.57812 -0.48437,0.5625 -0.48437,1.75 z m 6.82757,0.0469 q 0,-1.03125 0.5,-1.98438 0.51563,-0.95312 1.4375,-1.45312 0.9375,-0.51563 2.07813,-0.51563 1.76562,0 2.89062,1.15625 1.125,1.14063 1.125,2.89063 0,1.76562 -1.14062,2.92187 -1.14063,1.15625 -2.85938,1.15625 -1.07812,0 -2.04687,-0.48437 -0.96875,-0.48438 -1.48438,-1.40625 -0.5,-0.9375 -0.5,-2.28125 z m 2.10938,0.10937 q 0,1.15625 0.54687,1.78125 0.5625,0.60938 1.35938,0.60938 0.8125,0 1.35937,-0.60938 0.54688,-0.625 0.54688,-1.79687 0,-1.14063 -0.54688,-1.75 -0.54687,-0.625 -1.35937,-0.625 -0.79688,0 -1.35938,0.625 -0.54687,0.60937 -0.54687,1.76562 z m 14.45263,3.89063 -1.90625,0 0,-1.14063 q -0.46875,0.67188 -1.125,1 -0.64062,0.3125 -1.29687,0.3125 -1.34375,0 -2.3125,-1.07812 -0.95313,-1.07813 -0.95313,-3.01563 0,-1.96875 0.92188,-3 0.9375,-1.03125 2.35937,-1.03125 1.3125,0 2.26563,1.07813 l 0,-3.85938 2.04687,0 0,10.73438 z m -5.48437,-4.0625 q 0,1.25 0.34375,1.8125 0.5,0.79687 1.39062,0.79687 0.70313,0 1.20313,-0.59375 0.5,-0.60937 0.5,-1.8125 0,-1.34375 -0.48438,-1.92187 -0.48437,-0.59375 -1.23437,-0.59375 -0.73438,0 -1.23438,0.57812 -0.48437,0.57813 -0.48437,1.73438 z" />
  <path
     style="fill:#000000;fill-opacity:0;fill-rule:nonzero"
     inkscape:connector-curvature="0"
     id="path49"
     d="M 344.38582,161.73226 477.14174,146.92913" />
  <path
     style="fill-rule:evenodd;stroke:#000000;stroke-width:2;stroke-linecap:butt;stroke-linejoin:round"
     inkscape:connector-curvature="0"
     id="path51"
     d="m 344.38582,161.73226 120.82983,-13.4733" />
  <path
     style="fill:#000000;fill-rule:evenodd;stroke:#000000;stroke-width:2;stroke-linecap:butt"
     inkscape:connector-curvature="0"
     id="path53"
     d="m 465.58175,151.54208 8.65417,-4.28894 -9.38635,-2.27728 z" />
  <path
     style="fill:#b6d7a8;fill-rule:nonzero"
     inkscape:connector-curvature="0"
     id="path55"
     d="m 1.013123,11.78215 0,0 C 1.013123,5.82733 5.840462,1 11.795273,1 l 82.496063,0 0,0 39.976384,0 15.86877,0 c 2.8596,0 5.60208,1.13597 7.62413,3.15802 2.02205,2.02205 3.15802,4.76453 3.15802,7.62413 l 0,26.95538 20.19127,17.32518 -20.19127,-1.15194 0,0 c 0,5.9548 -4.82733,10.78213 -10.78215,10.78213 l -15.86877,0 -39.976384,0 0,0 -82.496063,0 0,0 c -5.954811,0 -10.78215,-4.82733 -10.78215,-10.78213 l 0,0 0,-16.17324 0,0 z" />
  <path
     style="fill-rule:nonzero;stroke:#000000;stroke-width:2;stroke-linecap:butt;stroke-linejoin:round"
     inkscape:connector-curvature="0"
     id="path57"
     d="m 1.013123,11.78215 0,0 C 1.013123,5.82733 5.840462,1 11.795273,1 l 82.496063,0 0,0 39.976384,0 15.86877,0 c 2.8596,0 5.60208,1.13597 7.62413,3.15802 2.02205,2.02205 3.15802,4.76453 3.15802,7.62413 l 0,26.95538 20.19127,17.32518 -20.19127,-1.15194 0,0 c 0,5.9548 -4.82733,10.78213 -10.78215,10.78213 l -15.86877,0 -39.976384,0 0,0 -82.496063,0 0,0 c -5.954811,0 -10.78215,-4.82733 -10.78215,-10.78213 l 0,0 0,-16.17324 0,0 z" />
  <path
     style="fill:#000000;fill-rule:nonzero"
     inkscape:connector-curvature="0"
     id="path59"
     d="m 17.327366,28.51797 0,-10.10938 -3.78125,0 0,-1.34375 9.078125,0 0,1.34375 -3.78125,0 0,10.10938 -1.515625,0 z m 6.617188,3.20312 -0.15625,-1.32812 q 0.453125,0.125 0.796875,0.125 0.46875,0 0.75,-0.15625 0.28125,-0.15625 0.46875,-0.4375 0.125,-0.20313 0.421875,-1.04688 0.04687,-0.10937 0.125,-0.34375 l -3.140625,-8.3125 1.515625,0 1.71875,4.79688 q 0.34375,0.92187 0.609375,1.92187 0.234375,-0.96875 0.578125,-1.89062 l 1.765625,-4.82813 1.40625,0 -3.15625,8.4375 q -0.5,1.375 -0.78125,1.89063 -0.375,0.6875 -0.859375,1.01562 -0.484375,0.32813 -1.15625,0.32813 -0.40625,0 -0.90625,-0.17188 z m 8.0625,-0.0156 0,-11.48438 1.28125,0 0,1.07813 q 0.453125,-0.64063 1.015625,-0.95313 0.578125,-0.3125 1.390625,-0.3125 1.0625,0 1.875002,0.54688 0.8125,0.54687 1.21875,1.54687 0.42187,0.98438 0.42187,2.17188 0,1.28125 -0.46875,2.29687 -0.45312,1.01563 -1.32812,1.5625 -0.859377,0.54688 -1.828127,0.54688 -0.703125,0 -1.265625,-0.29688 -0.546875,-0.29687 -0.90625,-0.75 l 0,4.04688 -1.40625,0 z m 1.265625,-7.29688 q 0,1.60938 0.640625,2.375 0.65625,0.76563 1.578125,0.76563 0.9375,0 1.609375,-0.79688 0.671872,-0.79687 0.671872,-2.45312 0,-1.59375 -0.656247,-2.375 -0.65625,-0.79688 -1.5625,-0.79688 -0.890625,0 -1.59375,0.84375 -0.6875,0.84375 -0.6875,2.4375 z m 13.304687,1.4375 1.45313,0.17188 q -0.34375,1.28125 -1.28125,1.98437 -0.92188,0.70313 -2.35938,0.70313 -1.82812,0 -2.89062,-1.125 -1.0625,-1.125 -1.0625,-3.14063 0,-2.09375 1.07812,-3.25 1.07813,-1.15625 2.79688,-1.15625 1.65625,0 2.70312,1.14063 1.0625,1.125 1.0625,3.17187 0,0.125 0,0.375 l -6.1875,0 q 0.0781,1.375 0.76563,2.10938 0.70312,0.71875 1.73437,0.71875 0.78125,0 1.32813,-0.40625 0.54687,-0.40625 0.85937,-1.29688 z m -4.60937,-2.28125 4.625,0 q -0.0937,-1.04687 -0.53125,-1.5625 -0.67188,-0.8125 -1.73438,-0.8125 -0.96875,0 -1.64062,0.65625 -0.65625,0.64063 -0.71875,1.71875 z m 8.22656,-1.75 0,-1.59375 1.59375,0 0,1.59375 -1.59375,0 z m 0,6.70313 0,-1.60938 1.59375,0 0,1.60938 -1.59375,0 z m 16.84375,-4.01563 1.51562,0.375 q -0.46875,1.875 -1.71875,2.85938 -1.23437,0.98437 -3.01562,0.98437 -1.85938,0 -3.01563,-0.75 -1.15625,-0.76562 -1.76562,-2.1875 -0.60938,-1.4375 -0.60938,-3.07812 0,-1.79688 0.6875,-3.125 0.6875,-1.32813 1.9375,-2.01563 1.26563,-0.70312 2.78125,-0.70312 1.71875,0 2.89063,0.875 1.17187,0.875 1.64062,2.46875 l -1.5,0.34375 q -0.39062,-1.25 -1.15625,-1.8125 -0.75,-0.57813 -1.90625,-0.57813 -1.3125,0 -2.20312,0.64063 -0.89063,0.625 -1.25,1.70312 -0.35938,1.0625 -0.35938,2.1875 0,1.46875 0.42188,2.5625 0.4375,1.07813 1.32812,1.625 0.90625,0.53125 1.95313,0.53125 1.26562,0 2.14062,-0.73437 0.89063,-0.73438 1.20313,-2.17188 z m 2.67969,-0.14062 q 0,-2.29688 1.28125,-3.40625 1.07812,-0.92188 2.60937,-0.92188 1.71875,0 2.79688,1.125 1.09375,1.10938 1.09375,3.09375 0,1.59375 -0.48438,2.51563 -0.48437,0.92187 -1.40625,1.4375 -0.90625,0.5 -2,0.5 -1.73437,0 -2.8125,-1.10938 -1.07812,-1.125 -1.07812,-3.23437 z m 1.45312,0 q 0,1.59375 0.6875,2.39062 0.70313,0.79688 1.75,0.79688 1.04688,0 1.73438,-0.79688 0.70312,-0.79687 0.70312,-2.4375 0,-1.53125 -0.70312,-2.32812 -0.6875,-0.79688 -1.73438,-0.79688 -1.04687,0 -1.75,0.79688 -0.6875,0.78125 -0.6875,2.375 z m 7.97656,4.15625 0,-8.29688 1.25,0 0,1.15625 q 0.39063,-0.60937 1.03125,-0.96875 0.65625,-0.375 1.48438,-0.375 0.92187,0 1.51562,0.39063 0.59375,0.375 0.82813,1.0625 0.98437,-1.45313 2.5625,-1.45313 1.23437,0 1.89062,0.6875 0.67188,0.67188 0.67188,2.09375 l 0,5.70313 -1.39063,0 0,-5.23438 q 0,-0.84375 -0.14062,-1.20312 -0.14063,-0.375 -0.5,-0.59375 -0.35938,-0.23438 -0.84375,-0.23438 -0.875,0 -1.45313,0.57813 -0.57812,0.57812 -0.57812,1.85937 l 0,4.82813 -1.40625,0 0,-5.39063 q 0,-0.9375 -0.34375,-1.40625 -0.34375,-0.46875 -1.125,-0.46875 -0.59375,0 -1.09375,0.3125 -0.5,0.3125 -0.73438,0.92188 -0.21875,0.59375 -0.21875,1.71875 l 0,4.3125 -1.40625,0 z m 13.32813,3.1875 0,-11.48438 1.28125,0 0,1.07813 q 0.45312,-0.64063 1.01562,-0.95313 0.57813,-0.3125 1.39063,-0.3125 1.0625,0 1.875,0.54688 0.8125,0.54687 1.21875,1.54687 0.42187,0.98438 0.42187,2.17188 0,1.28125 -0.46875,2.29687 -0.45312,1.01563 -1.32812,1.5625 -0.85938,0.54688 -1.82813,0.54688 -0.70312,0 -1.26562,-0.29688 -0.54688,-0.29687 -0.90625,-0.75 l 0,4.04688 -1.40625,0 z m 1.26562,-7.29688 q 0,1.60938 0.64063,2.375 0.65625,0.76563 1.57812,0.76563 0.9375,0 1.60938,-0.79688 0.67187,-0.79687 0.67187,-2.45312 0,-1.59375 -0.65625,-2.375 -0.65625,-0.79688 -1.5625,-0.79688 -0.89062,0 -1.59375,0.84375 -0.6875,0.84375 -0.6875,2.4375 z m 13.070324,4.10938 0,-1.21875 q -0.96875,1.40625 -2.64063,1.40625 -0.73437,0 -1.375,-0.28125 -0.625,-0.28125 -0.9375,-0.70313 -0.3125,-0.4375 -0.4375,-1.04687 -0.0781,-0.42188 -0.0781,-1.3125 l 0,-5.14063 1.40625,0 0,4.59375 q 0,1.10938 0.0781,1.48438 0.14063,0.5625 0.5625,0.875 0.4375,0.3125 1.0625,0.3125 0.64063,0 1.1875,-0.3125 0.5625,-0.32813 0.78125,-0.89063 0.23438,-0.5625 0.23438,-1.625 l 0,-4.4375 1.40625,0 0,8.29688 -1.25,0 z m 6.52343,-1.26563 0.20313,1.25 q -0.59375,0.125 -1.0625,0.125 -0.76563,0 -1.1875,-0.23437 -0.42188,-0.25 -0.59375,-0.64063 -0.17188,-0.40625 -0.17188,-1.67187 l 0,-4.76563 -1.03125,0 0,-1.09375 1.03125,0 0,-2.0625 1.40625,-0.84375 0,2.90625 1.40625,0 0,1.09375 -1.40625,0 0,4.84375 q 0,0.60938 0.0625,0.78125 0.0781,0.17188 0.25,0.28125 0.17188,0.0937 0.48438,0.0937 0.23437,0 0.60937,-0.0625 z m 7.05469,-1.40625 1.45313,0.17188 q -0.34375,1.28125 -1.28125,1.98437 -0.92188,0.70313 -2.35938,0.70313 -1.82812,0 -2.89062,-1.125 -1.0625,-1.125 -1.0625,-3.14063 0,-2.09375 1.07812,-3.25 1.07813,-1.15625 2.79688,-1.15625 1.65625,0 2.70312,1.14063 1.0625,1.125 1.0625,3.17187 0,0.125 0,0.375 l -6.1875,0 q 0.0781,1.375 0.76563,2.10938 0.70312,0.71875 1.73437,0.71875 0.78125,0 1.32813,-0.40625 0.54687,-0.40625 0.85937,-1.29688 z m -4.60937,-2.28125 4.625,0 q -0.0937,-1.04687 -0.53125,-1.5625 -0.67188,-0.8125 -1.73438,-0.8125 -0.96875,0 -1.64062,0.65625 -0.65625,0.64063 -0.71875,1.71875 z" />
  <path
     style="fill:#b6d7a8;fill-rule:nonzero"
     inkscape:connector-curvature="0"
     id="path61"
     d="m 1,92.98161 0,0 C 1,87.02678 5.827331,82.19944 11.78215,82.19944 l 82.496056,0 0,0 39.976384,0 15.86878,0 c 2.8596,0 5.60208,1.13599 7.62413,3.15802 2.02205,2.02207 3.15802,4.76453 3.15802,7.62415 l 0,0 41.15169,13.91629 -41.15169,2.25693 0,26.95538 c 0,5.95483 -4.82733,10.78217 -10.78215,10.78217 l -15.86878,0 -39.976384,0 0,0 -82.496056,0 0,0 C 5.827331,146.89238 1,142.06504 1,136.11021 l 0,-26.95538 0,-16.17322 0,0 z" />
  <path
     style="fill-rule:nonzero;stroke:#000000;stroke-width:2;stroke-linecap:butt;stroke-linejoin:round"
     inkscape:connector-curvature="0"
     id="path63"
     d="m 1,92.98161 0,0 C 1,87.02678 5.827331,82.19944 11.78215,82.19944 l 82.496056,0 0,0 39.976384,0 15.86878,0 c 2.8596,0 5.60208,1.13599 7.62413,3.15802 2.02205,2.02207 3.15802,4.76453 3.15802,7.62415 l 0,0 41.15169,13.91629 -41.15169,2.25693 0,26.95538 c 0,5.95483 -4.82733,10.78217 -10.78215,10.78217 l -15.86878,0 -39.976384,0 0,0 -82.496056,0 0,0 C 5.827331,146.89238 1,142.06504 1,136.11021 l 0,-26.95538 0,-16.17322 0,0 z" />
  <path
     style="fill:#000000;fill-rule:nonzero"
     inkscape:connector-curvature="0"
     id="path65"
     d="m 17.314232,109.71746 0,-10.10938 -3.78125,0 0,-1.34375 9.078125,0 0,1.34375 -3.78125,0 0,10.10938 -1.515625,0 z m 6.617187,3.20312 -0.15625,-1.32812 q 0.453125,0.125 0.796875,0.125 0.46875,0 0.75,-0.15625 0.28125,-0.15625 0.46875,-0.4375 0.125,-0.20313 0.421875,-1.04688 0.04687,-0.10937 0.125,-0.34375 l -3.140625,-8.3125 1.515625,0 1.71875,4.79688 q 0.34375,0.92187 0.609375,1.92187 0.234375,-0.96875 0.578125,-1.89062 l 1.765625,-4.82813 1.40625,0 -3.15625,8.4375 q -0.5,1.375 -0.78125,1.89063 -0.375,0.6875 -0.859375,1.01562 -0.484375,0.32813 -1.15625,0.32813 -0.40625,0 -0.90625,-0.17188 z m 8.0625,-0.0156 0,-11.48438 1.28125,0 0,1.07813 q 0.453125,-0.64063 1.015625,-0.95313 0.578125,-0.3125 1.390625,-0.3125 1.0625,0 1.874997,0.54688 0.8125,0.54687 1.21875,1.54687 0.42188,0.98438 0.42188,2.17188 0,1.28125 -0.46875,2.29687 -0.45313,1.01563 -1.32813,1.5625 -0.859372,0.54688 -1.828122,0.54688 -0.703125,0 -1.265625,-0.29688 -0.546875,-0.29687 -0.90625,-0.75 l 0,4.04688 -1.40625,0 z m 1.265625,-7.29688 q 0,1.60938 0.640625,2.375 0.65625,0.76563 1.578125,0.76563 0.9375,0 1.609375,-0.79688 0.671877,-0.79687 0.671877,-2.45312 0,-1.59375 -0.656252,-2.375 -0.65625,-0.79688 -1.5625,-0.79688 -0.890625,0 -1.59375,0.84375 -0.6875,0.84375 -0.6875,2.4375 z m 13.304692,1.4375 1.45312,0.17188 q -0.34375,1.28125 -1.28125,1.98437 -0.92187,0.70313 -2.35937,0.70313 -1.82813,0 -2.89063,-1.125 -1.0625,-1.125 -1.0625,-3.14063 0,-2.09375 1.07813,-3.25 1.07812,-1.15625 2.79687,-1.15625 1.65625,0 2.70313,1.14063 1.0625,1.125 1.0625,3.17187 0,0.125 0,0.375 l -6.1875,0 q 0.0781,1.375 0.76562,2.10938 0.70313,0.71875 1.73438,0.71875 0.78125,0 1.32812,-0.40625 0.54688,-0.40625 0.85938,-1.29688 z m -4.60938,-2.28125 4.625,0 q -0.0937,-1.04687 -0.53125,-1.5625 -0.67187,-0.8125 -1.73437,-0.8125 -0.96875,0 -1.64063,0.65625 -0.65625,0.64063 -0.71875,1.71875 z m 8.22656,-1.75 0,-1.59375 1.59375,0 0,1.59375 -1.59375,0 z m 0,6.70313 0,-1.60938 1.59375,0 0,1.60938 -1.59375,0 z m 11.59375,0 0,-10.10938 -3.78125,0 0,-1.34375 9.07814,0 0,1.34375 -3.78126,0 0,10.10938 -1.51563,0 z m 6.14845,-4.15625 q 0,-2.29688 1.28125,-3.40625 1.07812,-0.92188 2.60937,-0.92188 1.71875,0 2.79688,1.125 1.09375,1.10938 1.09375,3.09375 0,1.59375 -0.48438,2.51563 -0.48437,0.92187 -1.40625,1.4375 -0.90625,0.5 -2,0.5 -1.73437,0 -2.8125,-1.10938 -1.07812,-1.125 -1.07812,-3.23437 z m 1.45312,0 q 0,1.59375 0.6875,2.39062 0.70313,0.79688 1.75,0.79688 1.04688,0 1.73438,-0.79688 0.70312,-0.79687 0.70312,-2.4375 0,-1.53125 -0.70312,-2.32812 -0.6875,-0.79688 -1.73438,-0.79688 -1.04687,0 -1.75,0.79688 -0.6875,0.78125 -0.6875,2.375 z m 7.97657,4.15625 0,-8.29688 1.25,0 0,1.15625 q 0.39062,-0.60937 1.03125,-0.96875 0.65625,-0.375 1.48437,-0.375 0.92188,0 1.51563,0.39063 0.59375,0.375 0.82812,1.0625 0.98438,-1.45313 2.5625,-1.45313 1.23438,0 1.89063,0.6875 0.67187,0.67188 0.67187,2.09375 l 0,5.70313 -1.39062,0 0,-5.23438 q 0,-0.84375 -0.14063,-1.20312 -0.14062,-0.375 -0.5,-0.59375 -0.35937,-0.23438 -0.84375,-0.23438 -0.875,0 -1.45312,0.57813 -0.57813,0.57812 -0.57813,1.85937 l 0,4.82813 -1.40625,0 0,-5.39063 q 0,-0.9375 -0.34375,-1.40625 -0.34375,-0.46875 -1.125,-0.46875 -0.59375,0 -1.09375,0.3125 -0.5,0.3125 -0.73437,0.92188 -0.21875,0.59375 -0.21875,1.71875 l 0,4.3125 -1.40625,0 z m 18.73437,-3.04688 1.39063,0.1875 q -0.23438,1.42188 -1.17188,2.23438 -0.92187,0.8125 -2.28125,0.8125 -1.70312,0 -2.75,-1.10938 -1.03125,-1.125 -1.03125,-3.20312 0,-1.34375 0.4375,-2.34375 0.45313,-1.01563 1.35938,-1.51563 0.92187,-0.5 1.98437,-0.5 1.35938,0 2.21875,0.6875 0.85938,0.67188 1.09375,1.9375 l -1.35937,0.20313 q -0.20313,-0.82813 -0.70313,-1.25 -0.48437,-0.42188 -1.1875,-0.42188 -1.0625,0 -1.73437,0.76563 -0.65625,0.75 -0.65625,2.40625 0,1.67187 0.64062,2.4375 0.64063,0.75 1.67188,0.75 0.82812,0 1.375,-0.5 0.5625,-0.51563 0.70312,-1.57813 z m 8.000004,2.01563 q -0.78125,0.67187 -1.5,0.95312 -0.71875,0.26563 -1.54687,0.26563 -1.375004,0 -2.109384,-0.67188 -0.73437,-0.67187 -0.73437,-1.70312 0,-0.60938 0.28125,-1.10938 0.28125,-0.51562 0.71875,-0.8125 0.45312,-0.3125 1.015624,-0.46875 0.42188,-0.10937 1.25,-0.20312 1.70313,-0.20313 2.51563,-0.48438 0,-0.29687 0,-0.375 0,-0.85937 -0.39063,-1.20312 -0.54687,-0.48438 -1.60937,-0.48438 -0.98438,0 -1.46875,0.35938 -0.46875,0.34375 -0.687504,1.21875 l -1.375,-0.1875 q 0.1875,-0.875 0.60937,-1.42188 0.4375,-0.54687 1.250004,-0.82812 0.8125,-0.29688 1.875,-0.29688 1.0625,0 1.71875,0.25 0.67188,0.25 0.98438,0.625 0.3125,0.375 0.4375,0.95313 0.0781,0.35937 0.0781,1.29687 l 0,1.875 q 0,1.96875 0.0781,2.48438 0.0937,0.51562 0.35937,1 l -1.46875,0 q -0.21875,-0.4375 -0.28125,-1.03125 z m -0.10937,-3.14063 q -0.76563,0.3125 -2.29688,0.53125 -0.875,0.125 -1.23437,0.28125 -0.35938,0.15625 -0.562504,0.46875 -0.1875,0.29688 -0.1875,0.65625 0,0.5625 0.421874,0.9375 0.4375,0.375 1.25,0.375 0.8125,0 1.4375,-0.34375 0.64063,-0.35937 0.9375,-0.98437 0.23438,-0.46875 0.23438,-1.40625 l 0,-0.51563 z m 6.66406,2.90625 0.20312,1.25 q -0.59375,0.125 -1.0625,0.125 -0.76562,0 -1.1875,-0.23437 -0.42187,-0.25 -0.59375,-0.64063 -0.17187,-0.40625 -0.17187,-1.67187 l 0,-4.76563 -1.03125,0 0,-1.09375 1.03125,0 0,-2.0625 1.40625,-0.84375 0,2.90625 1.40625,0 0,1.09375 -1.40625,0 0,4.84375 q 0,0.60938 0.0625,0.78125 0.0781,0.17188 0.25,0.28125 0.17187,0.0937 0.48437,0.0937 0.23438,0 0.60938,-0.0625 z" />
  <path
     style="fill:#b6d7a8;fill-rule:nonzero"
     inkscape:connector-curvature="0"
     id="path67"
     d="m 1,172.98161 0,0 c 0,-5.95483 4.827331,-10.78217 10.78215,-10.78217 l 82.496056,0 0,0 39.976384,0 15.86878,0 c 2.8596,0 5.60208,1.13599 7.62413,3.15802 2.02205,2.02207 3.15802,4.76453 3.15802,7.62415 l 0,0 57.45564,-8.77927 -57.45564,24.95249 0,26.95538 c 0,5.95483 -4.82733,10.78217 -10.78215,10.78217 l -15.86878,0 -39.976384,0 0,0 -82.496056,0 0,0 C 5.827331,226.89238 1,222.06504 1,216.11021 l 0,-26.95538 0,-16.17322 0,0 z" />
  <path
     style="fill-rule:nonzero;stroke:#000000;stroke-width:2;stroke-linecap:butt;stroke-linejoin:round"
     inkscape:connector-curvature="0"
     id="path69"
     d="m 1,172.98161 0,0 c 0,-5.95483 4.827331,-10.78217 10.78215,-10.78217 l 82.496056,0 0,0 39.976384,0 15.86878,0 c 2.8596,0 5.60208,1.13599 7.62413,3.15802 2.02205,2.02207 3.15802,4.76453 3.15802,7.62415 l 0,0 57.45564,-8.77927 -57.45564,24.95249 0,26.95538 c 0,5.95483 -4.82733,10.78217 -10.78215,10.78217 l -15.86878,0 -39.976384,0 0,0 -82.496056,0 0,0 C 5.827331,226.89238 1,222.06504 1,216.11021 l 0,-26.95538 0,-16.17322 0,0 z" />
  <path
     style="fill:#000000;fill-rule:nonzero"
     inkscape:connector-curvature="0"
     id="path71"
     d="m 17.314232,189.71746 0,-10.10938 -3.78125,0 0,-1.34375 9.078125,0 0,1.34375 -3.78125,0 0,10.10938 -1.515625,0 z m 6.617187,3.20312 -0.15625,-1.32812 q 0.453125,0.125 0.796875,0.125 0.46875,0 0.75,-0.15625 0.28125,-0.15625 0.46875,-0.4375 0.125,-0.20313 0.421875,-1.04688 0.04687,-0.10937 0.125,-0.34375 l -3.140625,-8.3125 1.515625,0 1.71875,4.79688 q 0.34375,0.92187 0.609375,1.92187 0.234375,-0.96875 0.578125,-1.89062 l 1.765625,-4.82813 1.40625,0 -3.15625,8.4375 q -0.5,1.375 -0.78125,1.89063 -0.375,0.6875 -0.859375,1.01562 -0.484375,0.32813 -1.15625,0.32813 -0.40625,0 -0.90625,-0.17188 z m 8.0625,-0.0156 0,-11.48438 1.28125,0 0,1.07813 q 0.453125,-0.64063 1.015625,-0.95313 0.578125,-0.3125 1.390625,-0.3125 1.0625,0 1.874997,0.54688 0.8125,0.54687 1.21875,1.54687 0.42188,0.98438 0.42188,2.17188 0,1.28125 -0.46875,2.29687 -0.45313,1.01563 -1.32813,1.5625 -0.859372,0.54688 -1.828122,0.54688 -0.703125,0 -1.265625,-0.29688 -0.546875,-0.29687 -0.90625,-0.75 l 0,4.04688 -1.40625,0 z m 1.265625,-7.29688 q 0,1.60938 0.640625,2.375 0.65625,0.76563 1.578125,0.76563 0.9375,0 1.609375,-0.79688 0.671877,-0.79687 0.671877,-2.45312 0,-1.59375 -0.656252,-2.375 -0.65625,-0.79688 -1.5625,-0.79688 -0.890625,0 -1.59375,0.84375 -0.6875,0.84375 -0.6875,2.4375 z m 13.304692,1.4375 1.45312,0.17188 q -0.34375,1.28125 -1.28125,1.98437 -0.92187,0.70313 -2.35937,0.70313 -1.82813,0 -2.89063,-1.125 -1.0625,-1.125 -1.0625,-3.14063 0,-2.09375 1.07813,-3.25 1.07812,-1.15625 2.79687,-1.15625 1.65625,0 2.70313,1.14063 1.0625,1.125 1.0625,3.17187 0,0.125 0,0.375 l -6.1875,0 q 0.0781,1.375 0.76562,2.10938 0.70313,0.71875 1.73438,0.71875 0.78125,0 1.32812,-0.40625 0.54688,-0.40625 0.85938,-1.29688 z m -4.60938,-2.28125 4.625,0 q -0.0937,-1.04687 -0.53125,-1.5625 -0.67187,-0.8125 -1.73437,-0.8125 -0.96875,0 -1.64063,0.65625 -0.65625,0.64063 -0.71875,1.71875 z m 8.22656,-1.75 0,-1.59375 1.59375,0 0,1.59375 -1.59375,0 z m 0,6.70313 0,-1.60938 1.59375,0 0,1.60938 -1.59375,0 z m 10.67188,0 -3.03125,-11.45313 1.54687,0 1.75,7.5 q 0.28125,1.1875 0.48438,2.34375 0.4375,-1.82812 0.51562,-2.10937 l 2.17188,-7.73438 1.82813,0 1.64063,5.79688 q 0.625,2.15625 0.89062,4.04687 0.21875,-1.07812 0.57813,-2.48437 l 1.79687,-7.35938 1.51563,0 -3.14063,11.45313 -1.45312,0 -2.42188,-8.73438 q -0.29688,-1.09375 -0.35938,-1.34375 -0.17188,0.79688 -0.32813,1.34375 l -2.4375,8.73438 -1.54687,0 z m 11.83594,0 4.40625,-11.45313 1.64063,0 4.6875,11.45313 -1.73438,0 -1.32812,-3.46875 -4.79688,0 -1.25,3.46875 -1.625,0 z m 3.3125,-4.70313 3.89063,0 -1.20313,-3.17187 q -0.54687,-1.45313 -0.8125,-2.375 -0.21875,1.09375 -0.60937,2.1875 l -1.26563,3.35937 z m 8.65625,4.70313 0,-11.45313 5.07813,0 q 1.53125,0 2.32812,0.3125 0.79688,0.29688 1.26563,1.07813 0.48437,0.78125 0.48437,1.73437 0,1.21875 -0.79687,2.0625 -0.78125,0.82813 -2.4375,1.04688 0.60937,0.29687 0.92187,0.57812 0.65625,0.60938 1.25,1.51563 l 2,3.125 -1.90625,0 -1.51562,-2.39063 q -0.67188,-1.03125 -1.10938,-1.57812 -0.42187,-0.54688 -0.76562,-0.76563 -0.32813,-0.21875 -0.6875,-0.29687 -0.25,-0.0625 -0.84375,-0.0625 l -1.75,0 0,5.09375 -1.51563,0 z m 1.51563,-6.40625 3.25,0 q 1.04687,0 1.625,-0.20313 0.59375,-0.21875 0.89062,-0.6875 0.3125,-0.48437 0.3125,-1.03125 0,-0.8125 -0.59375,-1.32812 -0.59375,-0.53125 -1.85937,-0.53125 l -3.625,0 0,3.78125 z" />
  <path
     style="fill:#f6b26b;fill-rule:nonzero"
     inkscape:connector-curvature="0"
     id="path73"
     d="m 348.86351,306.80051 0,0 c 0,-5.95483 4.82733,-10.78217 10.78217,-10.78217 l 20.94488,0 38.18918,-142.90793 9.40137,142.90793 100.26245,0 c 2.85962,0 5.60211,1.13599 7.62414,3.15802 2.02204,2.02204 3.15802,4.76453 3.15802,7.62415 l 0,0 0,0 0,16.17322 0,26.95538 c 0,5.95483 -4.82733,10.78217 -10.78216,10.78217 l -100.26245,0 -47.59055,0 0,0 -20.94488,0 c -5.95484,0 -10.78217,-4.82734 -10.78217,-10.78217 l 0,-26.95538 0,-16.17322 0,0 z" />
  <path
     style="fill-rule:nonzero;stroke:#000000;stroke-width:2;stroke-linecap:butt;stroke-linejoin:round"
     inkscape:connector-curvature="0"
     id="path75"
     d="m 348.86351,306.80051 0,0 c 0,-5.95483 4.82733,-10.78217 10.78217,-10.78217 l 20.94488,0 38.18918,-142.90793 9.40137,142.90793 100.26245,0 c 2.85962,0 5.60211,1.13599 7.62414,3.15802 2.02204,2.02204 3.15802,4.76453 3.15802,7.62415 l 0,0 0,0 0,16.17322 0,26.95538 c 0,5.95483 -4.82733,10.78217 -10.78216,10.78217 l -100.26245,0 -47.59055,0 0,0 -20.94488,0 c -5.95484,0 -10.78217,-4.82734 -10.78217,-10.78217 l 0,-26.95538 0,-16.17322 0,0 z" />
  <path
     style="fill:#000000;fill-rule:nonzero"
     inkscape:connector-curvature="0"
     id="path77"
     d="m 365.17775,323.53637 0,-10.10937 -3.78125,0 0,-1.34375 9.07812,0 0,1.34375 -3.78125,0 0,10.10937 -1.51562,0 z m 6.61719,3.20313 -0.15625,-1.32813 q 0.45312,0.125 0.79687,0.125 0.46875,0 0.75,-0.15625 0.28125,-0.15625 0.46875,-0.4375 0.125,-0.20312 0.42188,-1.04687 0.0469,-0.10938 0.125,-0.34375 l -3.14063,-8.3125 1.51563,0 1.71875,4.79687 q 0.34375,0.92188 0.60937,1.92188 0.23438,-0.96875 0.57813,-1.89063 l 1.76562,-4.82812 1.40625,0 -3.15625,8.4375 q -0.5,1.375 -0.78125,1.89062 -0.375,0.6875 -0.85937,1.01563 -0.48438,0.32812 -1.15625,0.32812 -0.40625,0 -0.90625,-0.17187 z m 8.0625,-0.0156 0,-11.48437 1.28125,0 0,1.07812 q 0.45312,-0.64062 1.01562,-0.95312 0.57813,-0.3125 1.39063,-0.3125 1.0625,0 1.875,0.54687 0.8125,0.54688 1.21875,1.54688 0.42187,0.98437 0.42187,2.17187 0,1.28125 -0.46875,2.29688 -0.45312,1.01562 -1.32812,1.5625 -0.85938,0.54687 -1.82813,0.54687 -0.70312,0 -1.26562,-0.29687 -0.54688,-0.29688 -0.90625,-0.75 l 0,4.04687 -1.40625,0 z m 1.26562,-7.29687 q 0,1.60937 0.64063,2.375 0.65625,0.76562 1.57812,0.76562 0.9375,0 1.60938,-0.79687 0.67187,-0.79688 0.67187,-2.45313 0,-1.59375 -0.65625,-2.375 -0.65625,-0.79687 -1.5625,-0.79687 -0.89062,0 -1.59375,0.84375 -0.6875,0.84375 -0.6875,2.4375 z m 13.30469,1.4375 1.45312,0.17187 q -0.34375,1.28125 -1.28125,1.98438 -0.92187,0.70312 -2.35937,0.70312 -1.82813,0 -2.89063,-1.125 -1.0625,-1.125 -1.0625,-3.14062 0,-2.09375 1.07813,-3.25 1.07812,-1.15625 2.79687,-1.15625 1.65625,0 2.70313,1.14062 1.0625,1.125 1.0625,3.17188 0,0.125 0,0.375 l -6.1875,0 q 0.0781,1.375 0.76562,2.10937 0.70313,0.71875 1.73438,0.71875 0.78125,0 1.32812,-0.40625 0.54688,-0.40625 0.85938,-1.29687 z m -4.60938,-2.28125 4.625,0 q -0.0937,-1.04688 -0.53125,-1.5625 -0.67187,-0.8125 -1.73437,-0.8125 -0.96875,0 -1.64063,0.65625 -0.65625,0.64062 -0.71875,1.71875 z m 8.22657,-1.75 0,-1.59375 1.59375,0 0,1.59375 -1.59375,0 z m 0,6.70312 0,-1.60937 1.59375,0 0,1.60937 -1.59375,0 z m 16.84375,-4.01562 1.51562,0.375 q -0.46875,1.875 -1.71875,2.85937 -1.23437,0.98438 -3.01562,0.98438 -1.85938,0 -3.01563,-0.75 -1.15625,-0.76563 -1.76562,-2.1875 -0.60938,-1.4375 -0.60938,-3.07813 0,-1.79687 0.6875,-3.125 0.6875,-1.32812 1.9375,-2.01562 1.26563,-0.70313 2.78125,-0.70313 1.71875,0 2.89063,0.875 1.17187,0.875 1.64062,2.46875 l -1.5,0.34375 q -0.39062,-1.25 -1.15625,-1.8125 -0.75,-0.57812 -1.90625,-0.57812 -1.3125,0 -2.20312,0.64062 -0.89063,0.625 -1.25,1.70313 -0.35938,1.0625 -0.35938,2.1875 0,1.46875 0.42188,2.5625 0.4375,1.07812 1.32812,1.625 0.90625,0.53125 1.95313,0.53125 1.26562,0 2.14062,-0.73438 0.89063,-0.73437 1.20313,-2.17187 z m 2.67968,-0.14063 q 0,-2.29687 1.28125,-3.40625 1.07813,-0.92187 2.60938,-0.92187 1.71875,0 2.79687,1.125 1.09375,1.10937 1.09375,3.09375 0,1.59375 -0.48437,2.51562 -0.48438,0.92188 -1.40625,1.4375 -0.90625,0.5 -2,0.5 -1.73438,0 -2.8125,-1.10937 -1.07813,-1.125 -1.07813,-3.23438 z m 1.45313,0 q 0,1.59375 0.6875,2.39063 0.70312,0.79687 1.75,0.79687 1.04687,0 1.73437,-0.79687 0.70313,-0.79688 0.70313,-2.4375 0,-1.53125 -0.70313,-2.32813 -0.6875,-0.79687 -1.73437,-0.79687 -1.04688,0 -1.75,0.79687 -0.6875,0.78125 -0.6875,2.375 z m 7.97656,4.15625 0,-8.29687 1.26563,0 0,1.17187 q 0.90625,-1.35937 2.64062,-1.35937 0.75,0 1.375,0.26562 0.625,0.26563 0.9375,0.70313 0.3125,0.4375 0.4375,1.04687 0.0781,0.39063 0.0781,1.35938 l 0,5.10937 -1.40625,0 0,-5.04687 q 0,-0.85938 -0.17188,-1.28125 -0.15625,-0.4375 -0.57812,-0.6875 -0.40625,-0.25 -0.96875,-0.25 -0.90625,0 -1.5625,0.57812 -0.64063,0.5625 -0.64063,2.15625 l 0,4.53125 -1.40625,0 z m 8.89844,0 0,-8.29687 1.26562,0 0,1.17187 q 0.90625,-1.35937 2.64063,-1.35937 0.75,0 1.375,0.26562 0.625,0.26563 0.9375,0.70313 0.3125,0.4375 0.4375,1.04687 0.0781,0.39063 0.0781,1.35938 l 0,5.10937 -1.40625,0 0,-5.04687 q 0,-0.85938 -0.17187,-1.28125 -0.15625,-0.4375 -0.57813,-0.6875 -0.40625,-0.25 -0.96875,-0.25 -0.90625,0 -1.5625,0.57812 -0.64062,0.5625 -0.64062,2.15625 l 0,4.53125 -1.40625,0 z m 14.57031,-2.67187 1.45313,0.17187 q -0.34375,1.28125 -1.28125,1.98438 -0.92188,0.70312 -2.35938,0.70312 -1.82812,0 -2.89062,-1.125 -1.0625,-1.125 -1.0625,-3.14062 0,-2.09375 1.07812,-3.25 1.07813,-1.15625 2.79688,-1.15625 1.65625,0 2.70312,1.14062 1.0625,1.125 1.0625,3.17188 0,0.125 0,0.375 l -6.1875,0 q 0.0781,1.375 0.76563,2.10937 0.70312,0.71875 1.73437,0.71875 0.78125,0 1.32813,-0.40625 0.54687,-0.40625 0.85937,-1.29687 z m -4.60937,-2.28125 4.625,0 q -0.0937,-1.04688 -0.53125,-1.5625 -0.67188,-0.8125 -1.73438,-0.8125 -0.96875,0 -1.64062,0.65625 -0.65625,0.64062 -0.71875,1.71875 z m 13.24218,1.90625 1.39063,0.1875 q -0.23438,1.42187 -1.17188,2.23437 -0.92187,0.8125 -2.28125,0.8125 -1.70312,0 -2.75,-1.10937 -1.03125,-1.125 -1.03125,-3.20313 0,-1.34375 0.4375,-2.34375 0.45313,-1.01562 1.35938,-1.51562 0.92187,-0.5 1.98437,-0.5 1.35938,0 2.21875,0.6875 0.85938,0.67187 1.09375,1.9375 l -1.35937,0.20312 q -0.20313,-0.82812 -0.70313,-1.25 -0.48437,-0.42187 -1.1875,-0.42187 -1.0625,0 -1.73437,0.76562 -0.65625,0.75 -0.65625,2.40625 0,1.67188 0.64062,2.4375 0.64063,0.75 1.67188,0.75 0.82812,0 1.375,-0.5 0.5625,-0.51562 0.70312,-1.57812 z m 5.65625,1.78125 0.20313,1.25 q -0.59375,0.125 -1.0625,0.125 -0.76563,0 -1.1875,-0.23438 -0.42188,-0.25 -0.59375,-0.64062 -0.17188,-0.40625 -0.17188,-1.67188 l 0,-4.76562 -1.03125,0 0,-1.09375 1.03125,0 0,-2.0625 1.40625,-0.84375 0,2.90625 1.40625,0 0,1.09375 -1.40625,0 0,4.84375 q 0,0.60937 0.0625,0.78125 0.0781,0.17187 0.25,0.28125 0.17188,0.0937 0.48438,0.0937 0.23437,0 0.60937,-0.0625 z m 7.05469,-1.40625 1.45313,0.17187 q -0.34375,1.28125 -1.28125,1.98438 -0.92188,0.70312 -2.35938,0.70312 -1.82812,0 -2.89062,-1.125 -1.0625,-1.125 -1.0625,-3.14062 0,-2.09375 1.07812,-3.25 1.07813,-1.15625 2.79688,-1.15625 1.65625,0 2.70312,1.14062 1.0625,1.125 1.0625,3.17188 0,0.125 0,0.375 l -6.1875,0 q 0.0781,1.375 0.76563,2.10937 0.70312,0.71875 1.73437,0.71875 0.78125,0 1.32813,-0.40625 0.54687,-0.40625 0.85937,-1.29687 z m -4.60937,-2.28125 4.625,0 q -0.0937,-1.04688 -0.53125,-1.5625 -0.67188,-0.8125 -1.73438,-0.8125 -0.96875,0 -1.64062,0.65625 -0.65625,0.64062 -0.71875,1.71875 z m 13.21093,4.95312 0,-1.04687 q -0.78125,1.23437 -2.3125,1.23437 -1,0 -1.82812,-0.54687 -0.82813,-0.54688 -1.29688,-1.53125 -0.45312,-0.98438 -0.45312,-2.25 0,-1.25 0.40625,-2.25 0.42187,-1.01563 1.25,-1.54688 0.82812,-0.54687 1.85937,-0.54687 0.75,0 1.32813,0.3125 0.59375,0.3125 0.95312,0.82812 l 0,-4.10937 1.40625,0 0,11.45312 -1.3125,0 z m -4.4375,-4.14062 q 0,1.59375 0.67188,2.39062 0.67187,0.78125 1.57812,0.78125 0.92188,0 1.5625,-0.75 0.65625,-0.76562 0.65625,-2.3125 0,-1.70312 -0.65625,-2.5 -0.65625,-0.79687 -1.625,-0.79687 -0.9375,0 -1.5625,0.76562 -0.625,0.76563 -0.625,2.42188 z m 7.41407,0.70312 0,-1.42187 4.3125,0 0,1.42187 -4.3125,0 z m 8.96875,3.4375 0,-10.10937 -3.78125,0 0,-1.34375 9.07812,0 0,1.34375 -3.78125,0 0,10.10937 -1.51562,0 z m 6.14843,-4.15625 q 0,-2.29687 1.28125,-3.40625 1.07813,-0.92187 2.60938,-0.92187 1.71875,0 2.79687,1.125 1.09375,1.10937 1.09375,3.09375 0,1.59375 -0.48437,2.51562 -0.48438,0.92188 -1.40625,1.4375 -0.90625,0.5 -2,0.5 -1.73438,0 -2.8125,-1.10937 -1.07813,-1.125 -1.07813,-3.23438 z m 1.45313,0 q 0,1.59375 0.6875,2.39063 0.70312,0.79687 1.75,0.79687 1.04687,0 1.73437,-0.79687 0.70313,-0.79688 0.70313,-2.4375 0,-1.53125 -0.70313,-2.32813 -0.6875,-0.79687 -1.73437,-0.79687 -1.04688,0 -1.75,0.79687 -0.6875,0.78125 -0.6875,2.375 z" />
  <path
     style="fill:#b6d7a8;fill-rule:nonzero"
     inkscape:connector-curvature="0"
     id="path79"
     d="m 685.72701,92.98161 0,0 c 0,-5.95483 4.82739,-10.78217 10.78217,-10.78217 l 16.47247,0 0,0 40.8819,0 84.60889,0 c 2.85962,0 5.60211,1.13599 7.62414,3.15802 2.02204,2.02207 3.15802,4.76453 3.15802,7.62415 l 0,26.95538 0,0 0,16.17322 0,0 c 0,5.95483 -4.82733,10.78217 -10.78216,10.78217 l -84.60889,0 -40.8819,0 0,0 -16.47247,0 0,0 c -5.95478,0 -10.78217,-4.82734 -10.78217,-10.78217 l 0,0 -47.49652,-16.27307 47.49652,0.0999 z" />
  <path
     style="fill-rule:nonzero;stroke:#000000;stroke-width:2;stroke-linecap:butt;stroke-linejoin:round"
     inkscape:connector-curvature="0"
     id="path81"
     d="m 685.72701,92.98161 0,0 c 0,-5.95483 4.82739,-10.78217 10.78217,-10.78217 l 16.47247,0 0,0 40.8819,0 84.60889,0 c 2.85962,0 5.60211,1.13599 7.62414,3.15802 2.02204,2.02207 3.15802,4.76453 3.15802,7.62415 l 0,26.95538 0,0 0,16.17322 0,0 c 0,5.95483 -4.82733,10.78217 -10.78216,10.78217 l -84.60889,0 -40.8819,0 0,0 -16.47247,0 0,0 c -5.95478,0 -10.78217,-4.82734 -10.78217,-10.78217 l 0,0 -47.49652,-16.27307 47.49652,0.0999 z" />
  <path
     style="fill:#000000;fill-rule:nonzero"
     inkscape:connector-curvature="0"
     id="path83"
     d="m 702.04125,109.71746 0,-10.10938 -3.78125,0 0,-1.34375 9.07813,0 0,1.34375 -3.78125,0 0,10.10938 -1.51563,0 z m 6.61719,3.20312 -0.15625,-1.32812 q 0.45312,0.125 0.79687,0.125 0.46875,0 0.75,-0.15625 0.28125,-0.15625 0.46875,-0.4375 0.125,-0.20313 0.42188,-1.04688 0.0469,-0.10937 0.125,-0.34375 l -3.14063,-8.3125 1.51563,0 1.71875,4.79688 q 0.34375,0.92187 0.60937,1.92187 0.23438,-0.96875 0.57813,-1.89062 l 1.76562,-4.82813 1.40625,0 -3.15625,8.4375 q -0.5,1.375 -0.78125,1.89063 -0.375,0.6875 -0.85937,1.01562 -0.48438,0.32813 -1.15625,0.32813 -0.40625,0 -0.90625,-0.17188 z m 8.0625,-0.0156 0,-11.48438 1.28125,0 0,1.07813 q 0.45312,-0.64063 1.01562,-0.95313 0.57813,-0.3125 1.39063,-0.3125 1.0625,0 1.875,0.54688 0.8125,0.54687 1.21875,1.54687 0.42187,0.98438 0.42187,2.17188 0,1.28125 -0.46875,2.29687 -0.45312,1.01563 -1.32812,1.5625 -0.85938,0.54688 -1.82813,0.54688 -0.70312,0 -1.26562,-0.29688 -0.54688,-0.29687 -0.90625,-0.75 l 0,4.04688 -1.40625,0 z m 1.26562,-7.29688 q 0,1.60938 0.64063,2.375 0.65625,0.76563 1.57812,0.76563 0.9375,0 1.60938,-0.79688 0.67187,-0.79687 0.67187,-2.45312 0,-1.59375 -0.65625,-2.375 -0.65625,-0.79688 -1.5625,-0.79688 -0.89062,0 -1.59375,0.84375 -0.6875,0.84375 -0.6875,2.4375 z m 13.30469,1.4375 1.45313,0.17188 q -0.34375,1.28125 -1.28125,1.98437 -0.92188,0.70313 -2.35938,0.70313 -1.82812,0 -2.89062,-1.125 -1.0625,-1.125 -1.0625,-3.14063 0,-2.09375 1.07812,-3.25 1.07813,-1.15625 2.79688,-1.15625 1.65625,0 2.70312,1.14063 1.0625,1.125 1.0625,3.17187 0,0.125 0,0.375 l -6.1875,0 q 0.0781,1.375 0.76563,2.10938 0.70312,0.71875 1.73437,0.71875 0.78125,0 1.32813,-0.40625 0.54687,-0.40625 0.85937,-1.29688 z m -4.60937,-2.28125 4.625,0 q -0.0937,-1.04687 -0.53125,-1.5625 -0.67188,-0.8125 -1.73438,-0.8125 -0.96875,0 -1.64062,0.65625 -0.65625,0.64063 -0.71875,1.71875 z m 8.22656,-1.75 0,-1.59375 1.59375,0 0,1.59375 -1.59375,0 z m 0,6.70313 0,-1.60938 1.59375,0 0,1.60938 -1.59375,0 z m 8.625,0 0,-11.45313 2.28125,0 2.71875,8.10938 q 0.375,1.125 0.54687,1.6875 0.1875,-0.625 0.60938,-1.82813 l 2.73437,-7.96875 2.04688,0 0,11.45313 -1.46875,0 0,-9.59375 -3.32813,9.59375 -1.35937,0 -3.3125,-9.75 0,9.75 -1.46875,0 z m 12.67187,-4.15625 q 0,-2.29688 1.28125,-3.40625 1.07813,-0.92188 2.60938,-0.92188 1.71875,0 2.79687,1.125 1.09375,1.10938 1.09375,3.09375 0,1.59375 -0.48437,2.51563 -0.48438,0.92187 -1.40625,1.4375 -0.90625,0.5 -2,0.5 -1.73438,0 -2.8125,-1.10938 -1.07813,-1.125 -1.07813,-3.23437 z m 1.45313,0 q 0,1.59375 0.6875,2.39062 0.70312,0.79688 1.75,0.79688 1.04687,0 1.73437,-0.79688 0.70313,-0.79687 0.70313,-2.4375 0,-1.53125 -0.70313,-2.32812 -0.6875,-0.79688 -1.73437,-0.79688 -1.04688,0 -1.75,0.79688 -0.6875,0.78125 -0.6875,2.375 z m 7.97656,4.15625 0,-8.29688 1.26563,0 0,1.17188 q 0.90625,-1.35938 2.64062,-1.35938 0.75,0 1.375,0.26563 0.625,0.26562 0.9375,0.70312 0.3125,0.4375 0.4375,1.04688 0.0781,0.39062 0.0781,1.35937 l 0,5.10938 -1.40625,0 0,-5.04688 q 0,-0.85937 -0.17188,-1.28125 -0.15625,-0.4375 -0.57812,-0.6875 -0.40625,-0.25 -0.96875,-0.25 -0.90625,0 -1.5625,0.57813 -0.64063,0.5625 -0.64063,2.15625 l 0,4.53125 -1.40625,0 z m 8.63281,0.6875 1.375,0.20312 q 0.0781,0.64063 0.46875,0.92188 0.53125,0.39062 1.4375,0.39062 0.96875,0 1.5,-0.39062 0.53125,-0.39063 0.71875,-1.09375 0.10938,-0.42188 0.10938,-1.8125 -0.92188,1.09375 -2.29688,1.09375 -1.71875,0 -2.65625,-1.23438 -0.9375,-1.23437 -0.9375,-2.96875 0,-1.1875 0.42188,-2.1875 0.4375,-1 1.25,-1.54687 0.82812,-0.54688 1.92187,-0.54688 1.46875,0 2.42188,1.1875 l 0,-1 1.29687,0 0,7.17188 q 0,1.9375 -0.39062,2.75 -0.39063,0.8125 -1.25,1.28125 -0.85938,0.46875 -2.10938,0.46875 -1.48437,0 -2.40625,-0.67188 -0.90625,-0.67187 -0.875,-2.01562 z m 1.17188,-4.98438 q 0,1.625 0.64062,2.375 0.65625,0.75 1.625,0.75 0.96875,0 1.625,-0.73437 0.65625,-0.75 0.65625,-2.34375 0,-1.53125 -0.67187,-2.29688 -0.67188,-0.78125 -1.625,-0.78125 -0.9375,0 -1.59375,0.76563 -0.65625,0.76562 -0.65625,2.26562 z m 7.46094,0.14063 q 0,-2.29688 1.28125,-3.40625 1.07812,-0.92188 2.60937,-0.92188 1.71875,0 2.79688,1.125 1.09375,1.10938 1.09375,3.09375 0,1.59375 -0.48438,2.51563 -0.48437,0.92187 -1.40625,1.4375 -0.90625,0.5 -2,0.5 -1.73437,0 -2.8125,-1.10938 -1.07812,-1.125 -1.07812,-3.23437 z m 1.45312,0 q 0,1.59375 0.6875,2.39062 0.70313,0.79688 1.75,0.79688 1.04688,0 1.73438,-0.79688 0.70312,-0.79687 0.70312,-2.4375 0,-1.53125 -0.70312,-2.32812 -0.6875,-0.79688 -1.73438,-0.79688 -1.04687,0 -1.75,0.79688 -0.6875,0.78125 -0.6875,2.375 z m 8.14844,4.15625 0,-11.45313 3.95312,0 q 1.32813,0 2.03125,0.15625 0.98438,0.23438 1.6875,0.82813 0.90625,0.76562 1.34375,1.95312 0.45313,1.1875 0.45313,2.71875 0,1.3125 -0.3125,2.32813 -0.29688,1 -0.78125,1.65625 -0.46875,0.65625 -1.03125,1.04687 -0.5625,0.375 -1.375,0.57813 -0.79688,0.1875 -1.82813,0.1875 l -4.14062,0 z m 1.51562,-1.35938 2.45313,0 q 1.125,0 1.76562,-0.20312 0.65625,-0.21875 1.03125,-0.59375 0.54688,-0.54688 0.84375,-1.45313 0.29688,-0.90625 0.29688,-2.20312 0,-1.79688 -0.59375,-2.76563 -0.57813,-0.96875 -1.42188,-1.29687 -0.60937,-0.23438 -1.96875,-0.23438 l -2.40625,0 0,8.75 z m 9.97657,1.35938 0,-11.45313 4.29687,0 q 1.3125,0 2.10938,0.34375 0.79687,0.34375 1.23437,1.07813 0.45313,0.71875 0.45313,1.5 0,0.73437 -0.40625,1.39062 -0.39063,0.64063 -1.1875,1.04688 1.03125,0.29687 1.59375,1.03125 0.5625,0.73437 0.5625,1.73437 0,0.8125 -0.34375,1.5 -0.34375,0.6875 -0.84375,1.0625 -0.5,0.375 -1.25,0.57813 -0.75,0.1875 -1.84375,0.1875 l -4.375,0 z m 1.51562,-6.64063 2.48438,0 q 1,0 1.4375,-0.14062 0.57812,-0.17188 0.875,-0.5625 0.29687,-0.40625 0.29687,-1 0,-0.57813 -0.28125,-1 -0.26562,-0.4375 -0.78125,-0.59375 -0.5,-0.17188 -1.73437,-0.17188 l -2.29688,0 0,3.46875 z m 0,5.28125 2.85938,0 q 0.73437,0 1.03125,-0.0469 0.51562,-0.0937 0.85937,-0.3125 0.35938,-0.21875 0.57813,-0.64063 0.23437,-0.42187 0.23437,-0.96875 0,-0.64062 -0.32812,-1.10937 -0.32813,-0.46875 -0.90625,-0.65625 -0.57813,-0.20313 -1.67188,-0.20313 l -2.65625,0 0,3.9375 z" />
  <path
     style="fill:#b6d7a8;fill-rule:nonzero"
     inkscape:connector-curvature="0"
     id="path85"
     d="m 685.72701,11.78215 0,0 C 685.72701,5.82733 690.5544,1 696.50918,1 l 16.47247,0 0,0 40.8819,0 84.60889,0 c 2.85962,0 5.60211,1.13597 7.62414,3.15802 2.02204,2.02205 3.15802,4.76453 3.15802,7.62413 l 0,26.95538 0,0 0,16.17324 0,0 c 0,5.9548 -4.82733,10.78213 -10.78216,10.78213 l -84.60889,0 -40.8819,0 0,0 -16.47247,0 0,0 c -5.95478,0 -10.78217,-4.82733 -10.78217,-10.78213 l 0,0 -26.05969,-0.69568 26.05969,-15.47756 z" />
  <path
     style="fill-rule:nonzero;stroke:#000000;stroke-width:2;stroke-linecap:butt;stroke-linejoin:round"
     inkscape:connector-curvature="0"
     id="path87"
     d="m 685.72701,11.78215 0,0 C 685.72701,5.82733 690.5544,1 696.50918,1 l 16.47247,0 0,0 40.8819,0 84.60889,0 c 2.85962,0 5.60211,1.13597 7.62414,3.15802 2.02204,2.02205 3.15802,4.76453 3.15802,7.62413 l 0,26.95538 0,0 0,16.17324 0,0 c 0,5.9548 -4.82733,10.78213 -10.78216,10.78213 l -84.60889,0 -40.8819,0 0,0 -16.47247,0 0,0 c -5.95478,0 -10.78217,-4.82733 -10.78217,-10.78213 l 0,0 -26.05969,-0.69568 26.05969,-15.47756 z" />
  <path
     style="fill:#000000;fill-rule:nonzero"
     inkscape:connector-curvature="0"
     id="path89"
     d="m 702.04125,28.51797 0,-10.10938 -3.78125,0 0,-1.34375 9.07813,0 0,1.34375 -3.78125,0 0,10.10938 -1.51563,0 z m 6.61719,3.20312 -0.15625,-1.32812 q 0.45312,0.125 0.79687,0.125 0.46875,0 0.75,-0.15625 0.28125,-0.15625 0.46875,-0.4375 0.125,-0.20313 0.42188,-1.04688 0.0469,-0.10937 0.125,-0.34375 l -3.14063,-8.3125 1.51563,0 1.71875,4.79688 q 0.34375,0.92187 0.60937,1.92187 0.23438,-0.96875 0.57813,-1.89062 l 1.76562,-4.82813 1.40625,0 -3.15625,8.4375 q -0.5,1.375 -0.78125,1.89063 -0.375,0.6875 -0.85937,1.01562 -0.48438,0.32813 -1.15625,0.32813 -0.40625,0 -0.90625,-0.17188 z m 8.0625,-0.0156 0,-11.48438 1.28125,0 0,1.07813 q 0.45312,-0.64063 1.01562,-0.95313 0.57813,-0.3125 1.39063,-0.3125 1.0625,0 1.875,0.54688 0.8125,0.54687 1.21875,1.54687 0.42187,0.98438 0.42187,2.17188 0,1.28125 -0.46875,2.29687 -0.45312,1.01563 -1.32812,1.5625 -0.85938,0.54688 -1.82813,0.54688 -0.70312,0 -1.26562,-0.29688 -0.54688,-0.29687 -0.90625,-0.75 l 0,4.04688 -1.40625,0 z m 1.26562,-7.29688 q 0,1.60938 0.64063,2.375 0.65625,0.76563 1.57812,0.76563 0.9375,0 1.60938,-0.79688 0.67187,-0.79687 0.67187,-2.45312 0,-1.59375 -0.65625,-2.375 -0.65625,-0.79688 -1.5625,-0.79688 -0.89062,0 -1.59375,0.84375 -0.6875,0.84375 -0.6875,2.4375 z m 13.30469,1.4375 1.45313,0.17188 q -0.34375,1.28125 -1.28125,1.98437 -0.92188,0.70313 -2.35938,0.70313 -1.82812,0 -2.89062,-1.125 -1.0625,-1.125 -1.0625,-3.14063 0,-2.09375 1.07812,-3.25 1.07813,-1.15625 2.79688,-1.15625 1.65625,0 2.70312,1.14063 1.0625,1.125 1.0625,3.17187 0,0.125 0,0.375 l -6.1875,0 q 0.0781,1.375 0.76563,2.10938 0.70312,0.71875 1.73437,0.71875 0.78125,0 1.32813,-0.40625 0.54687,-0.40625 0.85937,-1.29688 z m -4.60937,-2.28125 4.625,0 q -0.0937,-1.04687 -0.53125,-1.5625 -0.67188,-0.8125 -1.73438,-0.8125 -0.96875,0 -1.64062,0.65625 -0.65625,0.64063 -0.71875,1.71875 z m 8.22656,-1.75 0,-1.59375 1.59375,0 0,1.59375 -1.59375,0 z m 0,6.70313 0,-1.60938 1.59375,0 0,1.60938 -1.59375,0 z m 16.84375,-4.01563 1.51562,0.375 q -0.46875,1.875 -1.71875,2.85938 -1.23437,0.98437 -3.01562,0.98437 -1.85938,0 -3.01563,-0.75 -1.15625,-0.76562 -1.76562,-2.1875 -0.60938,-1.4375 -0.60938,-3.07812 0,-1.79688 0.6875,-3.125 0.6875,-1.32813 1.9375,-2.01563 1.26563,-0.70312 2.78125,-0.70312 1.71875,0 2.89063,0.875 1.17187,0.875 1.64062,2.46875 l -1.5,0.34375 q -0.39062,-1.25 -1.15625,-1.8125 -0.75,-0.57813 -1.90625,-0.57813 -1.3125,0 -2.20312,0.64063 -0.89063,0.625 -1.25,1.70312 -0.35938,1.0625 -0.35938,2.1875 0,1.46875 0.42188,2.5625 0.4375,1.07813 1.32812,1.625 0.90625,0.53125 1.95313,0.53125 1.26562,0 2.14062,-0.73437 0.89063,-0.73438 1.20313,-2.17188 z m 2.67969,-0.14062 q 0,-2.29688 1.28125,-3.40625 1.07812,-0.92188 2.60937,-0.92188 1.71875,0 2.79688,1.125 1.09375,1.10938 1.09375,3.09375 0,1.59375 -0.48438,2.51563 -0.48437,0.92187 -1.40625,1.4375 -0.90625,0.5 -2,0.5 -1.73437,0 -2.8125,-1.10938 -1.07812,-1.125 -1.07812,-3.23437 z m 1.45312,0 q 0,1.59375 0.6875,2.39062 0.70313,0.79688 1.75,0.79688 1.04688,0 1.73438,-0.79688 0.70312,-0.79687 0.70312,-2.4375 0,-1.53125 -0.70312,-2.32812 -0.6875,-0.79688 -1.73438,-0.79688 -1.04687,0 -1.75,0.79688 -0.6875,0.78125 -0.6875,2.375 z m 7.97656,4.15625 0,-8.29688 1.25,0 0,1.15625 q 0.39063,-0.60937 1.03125,-0.96875 0.65625,-0.375 1.48438,-0.375 0.92187,0 1.51562,0.39063 0.59375,0.375 0.82813,1.0625 0.98437,-1.45313 2.5625,-1.45313 1.23437,0 1.89062,0.6875 0.67188,0.67188 0.67188,2.09375 l 0,5.70313 -1.39063,0 0,-5.23438 q 0,-0.84375 -0.14062,-1.20312 -0.14063,-0.375 -0.5,-0.59375 -0.35938,-0.23438 -0.84375,-0.23438 -0.875,0 -1.45313,0.57813 -0.57812,0.57812 -0.57812,1.85937 l 0,4.82813 -1.40625,0 0,-5.39063 q 0,-0.9375 -0.34375,-1.40625 -0.34375,-0.46875 -1.125,-0.46875 -0.59375,0 -1.09375,0.3125 -0.5,0.3125 -0.73438,0.92188 -0.21875,0.59375 -0.21875,1.71875 l 0,4.3125 -1.40625,0 z m 13.32813,3.1875 0,-11.48438 1.28125,0 0,1.07813 q 0.45312,-0.64063 1.01562,-0.95313 0.57813,-0.3125 1.39063,-0.3125 1.0625,0 1.875,0.54688 0.8125,0.54687 1.21875,1.54687 0.42187,0.98438 0.42187,2.17188 0,1.28125 -0.46875,2.29687 -0.45312,1.01563 -1.32812,1.5625 -0.85938,0.54688 -1.82813,0.54688 -0.70312,0 -1.26562,-0.29688 -0.54688,-0.29687 -0.90625,-0.75 l 0,4.04688 -1.40625,0 z m 1.26562,-7.29688 q 0,1.60938 0.64063,2.375 0.65625,0.76563 1.57812,0.76563 0.9375,0 1.60938,-0.79688 0.67187,-0.79687 0.67187,-2.45312 0,-1.59375 -0.65625,-2.375 -0.65625,-0.79688 -1.5625,-0.79688 -0.89062,0 -1.59375,0.84375 -0.6875,0.84375 -0.6875,2.4375 z m 13.07032,4.10938 0,-1.21875 q -0.96875,1.40625 -2.64063,1.40625 -0.73437,0 -1.375,-0.28125 -0.625,-0.28125 -0.9375,-0.70313 -0.3125,-0.4375 -0.4375,-1.04687 -0.0781,-0.42188 -0.0781,-1.3125 l 0,-5.14063 1.40625,0 0,4.59375 q 0,1.10938 0.0781,1.48438 0.14063,0.5625 0.5625,0.875 0.4375,0.3125 1.0625,0.3125 0.64063,0 1.1875,-0.3125 0.5625,-0.32813 0.78125,-0.89063 0.23438,-0.5625 0.23438,-1.625 l 0,-4.4375 1.40625,0 0,8.29688 -1.25,0 z m 6.52343,-1.26563 0.20313,1.25 q -0.59375,0.125 -1.0625,0.125 -0.76563,0 -1.1875,-0.23437 -0.42188,-0.25 -0.59375,-0.64063 -0.17188,-0.40625 -0.17188,-1.67187 l 0,-4.76563 -1.03125,0 0,-1.09375 1.03125,0 0,-2.0625 1.40625,-0.84375 0,2.90625 1.40625,0 0,1.09375 -1.40625,0 0,4.84375 q 0,0.60938 0.0625,0.78125 0.0781,0.17188 0.25,0.28125 0.17188,0.0937 0.48438,0.0937 0.23437,0 0.60937,-0.0625 z m 7.05469,-1.40625 1.45313,0.17188 q -0.34375,1.28125 -1.28125,1.98437 -0.92188,0.70313 -2.35938,0.70313 -1.82812,0 -2.89062,-1.125 -1.0625,-1.125 -1.0625,-3.14063 0,-2.09375 1.07812,-3.25 1.07813,-1.15625 2.79688,-1.15625 1.65625,0 2.70312,1.14063 1.0625,1.125 1.0625,3.17187 0,0.125 0,0.375 l -6.1875,0 q 0.0781,1.375 0.76563,2.10938 0.70312,0.71875 1.73437,0.71875 0.78125,0 1.32813,-0.40625 0.54687,-0.40625 0.85937,-1.29688 z m -4.60937,-2.28125 4.625,0 q -0.0937,-1.04687 -0.53125,-1.5625 -0.67188,-0.8125 -1.73438,-0.8125 -0.96875,0 -1.64062,0.65625 -0.65625,0.64063 -0.71875,1.71875 z" />
</svg>
