<?xml version="1.0" encoding="UTF-8" standalone="no"?>
<svg
   xmlns:dc="http://purl.org/dc/elements/1.1/"
   xmlns:cc="http://creativecommons.org/ns#"
   xmlns:rdf="http://www.w3.org/1999/02/22-rdf-syntax-ns#"
   xmlns:svg="http://www.w3.org/2000/svg"
   xmlns="http://www.w3.org/2000/svg"
   xmlns:sodipodi="http://sodipodi.sourceforge.net/DTD/sodipodi-0.dtd"
   xmlns:inkscape="http://www.inkscape.org/namespaces/inkscape"
   version="1.1"
   viewBox="0 0 665.66144 322.77298"
   stroke-miterlimit="10"
   id="svg2"
   inkscape:version="0.91 r13725"
   sodipodi:docname="cloudify_blueprints_2.svg"
   width="665.66144"
   height="322.77298"
   style="fill:none;stroke:none;stroke-linecap:square;stroke-miterlimit:10">
  <metadata
     id="metadata155">
    <rdf:RDF>
      <cc:Work
         rdf:about="">
        <dc:format>image/svg+xml</dc:format>
        <dc:type
           rdf:resource="http://purl.org/dc/dcmitype/StillImage" />
        <dc:title></dc:title>
      </cc:Work>
    </rdf:RDF>
  </metadata>
  <defs
     id="defs153" />
  <sodipodi:namedview
     pagecolor="#ffffff"
     bordercolor="#666666"
     borderopacity="1"
     objecttolerance="10"
     gridtolerance="10"
     guidetolerance="10"
     inkscape:pageopacity="0"
     inkscape:pageshadow="2"
     inkscape:window-width="1366"
     inkscape:window-height="741"
     id="namedview151"
     showgrid="false"
     fit-margin-top="0"
     fit-margin-left="0"
     fit-margin-right="0"
     fit-margin-bottom="0"
     inkscape:zoom="0.31666667"
     inkscape:cx="332.83071"
     inkscape:cy="145.59703"
     inkscape:window-x="0"
     inkscape:window-y="27"
     inkscape:window-maximized="1"
     inkscape:current-layer="svg2" />
  <clipPath
     id="g130b80b30c_0_0.0">
    <path
       d="M 0,0 960,0 960,720 0,720 0,0 Z"
       id="path5"
       inkscape:connector-curvature="0"
       style="clip-rule:nonzero" />
  </clipPath>
  <path
     style="fill:#000000;fill-opacity:0;fill-rule:nonzero"
     inkscape:connector-curvature="0"
     id="path11"
     d="M 344.40812,48.56298 235.49476,274.20077" />
  <path
     style="fill-rule:nonzero;stroke:#666666;stroke-width:1;stroke-linecap:butt;stroke-linejoin:round"
     inkscape:connector-curvature="0"
     id="path13"
     d="M 344.40812,48.56298 235.49476,274.20077" />
  <path
     style="fill:#000000;fill-opacity:0;fill-rule:nonzero"
     inkscape:connector-curvature="0"
     id="path15"
     d="m 344.40812,48.56298 90.86615,225.63779" />
  <path
     style="fill-rule:nonzero;stroke:#666666;stroke-width:1;stroke-linecap:butt;stroke-linejoin:round"
     inkscape:connector-curvature="0"
     id="path17"
     d="m 344.40812,48.56298 90.86615,225.63779" />
  <path
     style="fill:#000000;fill-opacity:0;fill-rule:nonzero"
     inkscape:connector-curvature="0"
     id="path19"
     d="M 344.40812,48.56298 229.98295,199.80709" />
  <path
     style="fill-rule:nonzero;stroke:#666666;stroke-width:1;stroke-linecap:butt;stroke-linejoin:round"
     inkscape:connector-curvature="0"
     id="path21"
     d="M 344.40812,48.56298 229.98295,199.80709" />
  <path
     style="fill:#000000;fill-opacity:0;fill-rule:nonzero"
     inkscape:connector-curvature="0"
     id="path23"
     d="m 344.40812,48.56298 6.48819,151.24411" />
  <path
     style="fill-rule:nonzero;stroke:#666666;stroke-width:1;stroke-linecap:butt;stroke-linejoin:round"
     inkscape:connector-curvature="0"
     id="path25"
     d="m 344.40812,48.56298 6.48819,151.24411" />
  <path
     style="fill:#000000;fill-opacity:0;fill-rule:nonzero"
     inkscape:connector-curvature="0"
     id="path27"
     d="M 344.40812,48.56298 498.2664,197.00393" />
  <path
     style="fill-rule:nonzero;stroke:#666666;stroke-width:1;stroke-linecap:butt;stroke-linejoin:round"
     inkscape:connector-curvature="0"
     id="path29"
     d="M 344.40812,48.56298 498.2664,197.00393" />
  <path
     style="fill:#000000;fill-opacity:0;fill-rule:nonzero"
     inkscape:connector-curvature="0"
     id="path31"
     d="M 344.40812,48.56298 97.22703,199.80709" />
  <path
     style="fill-rule:nonzero;stroke:#666666;stroke-width:1;stroke-linecap:butt;stroke-linejoin:round"
     inkscape:connector-curvature="0"
     id="path33"
     d="M 344.40812,48.56298 97.22703,199.80709" />
  <path
     style="fill:#cccccc;fill-rule:nonzero"
     inkscape:connector-curvature="0"
     id="path59"
     d="m 304.77034,8.51068 0,0 c 0,-4.42417 3.58649,-8.01068 8.01065,-8.01068 l 63.25427,0 c 2.12458,0 4.16211,0.84399 5.6644,2.34628 1.50229,1.50229 2.34628,3.53983 2.34628,5.6644 l 0,32.04166 c 0,4.42416 -3.58648,8.01065 -8.01068,8.01065 l -63.25427,0 c -4.42416,0 -8.01065,-3.58649 -8.01065,-8.01065 z" />
  <path
     style="fill-rule:nonzero;stroke:#666666;stroke-width:1;stroke-linecap:butt;stroke-linejoin:round"
     inkscape:connector-curvature="0"
     id="path61"
     d="m 304.77034,8.51068 0,0 c 0,-4.42417 3.58649,-8.01068 8.01065,-8.01068 l 63.25427,0 c 2.12458,0 4.16211,0.84399 5.6644,2.34628 1.50229,1.50229 2.34628,3.53983 2.34628,5.6644 l 0,32.04166 c 0,4.42416 -3.58648,8.01065 -8.01068,8.01065 l -63.25427,0 c -4.42416,0 -8.01065,-3.58649 -8.01065,-8.01065 z" />
  <path
     style="fill:#000000;fill-rule:nonzero"
     inkscape:connector-curvature="0"
     id="path63"
     d="m 328.36125,26.7665 0,2.01562 0.57813,0 q 0.57812,0 0.8125,0.23438 0.25,0.21875 0.25,0.57812 0,0.34375 -0.25,0.57813 -0.23438,0.21875 -0.8125,0.21875 l -2.4375,0 q -0.57813,0 -0.82813,-0.21875 -0.23437,-0.23438 -0.23437,-0.59375 0,-0.34375 0.25,-0.5625 0.25,-0.23438 0.8125,-0.23438 l 0.25,0 0,-6.26562 -0.25,0 q -0.57813,0 -0.82813,-0.21875 -0.23437,-0.21875 -0.23437,-0.57813 0,-0.35937 0.23437,-0.57812 0.25,-0.23438 0.82813,-0.23438 l 3.625,0.0156 q 1.70312,0 2.625,0.84375 0.9375,0.82812 0.9375,2.03125 0,0.75 -0.4375,1.375 -0.4375,0.60937 -1.3125,1.07812 0.5,0.45313 1.07812,1.14063 0.35938,0.45312 0.96875,1.39062 0.60938,0 0.8125,0.125 0.34375,0.25 0.34375,0.6875 0,0.34375 -0.25,0.57813 -0.23437,0.21875 -0.8125,0.21875 l -0.90625,0 q -1.95312,-3.01563 -3.23437,-3.625 l -1.57813,0 z m 0,-1.59375 1.25,0 q 0.6875,0 1.23438,-0.21875 0.73437,-0.28125 0.98437,-0.59375 0.26563,-0.3125 0.26563,-0.60938 0,-0.45312 -0.48438,-0.84375 -0.48437,-0.39062 -1.42187,-0.39062 l -1.82813,0 0,2.65625 z m 15.41406,1.79687 q 0,0.92188 -0.51562,1.79688 -0.51563,0.85937 -1.53125,1.375 -1,0.51562 -2.10938,0.51562 -1.09375,0 -2.09375,-0.5 -1,-0.51562 -1.53125,-1.375 -0.51562,-0.875 -0.51562,-1.82812 0,-0.95313 0.53125,-1.875 0.53125,-0.9375 1.53125,-1.46875 1,-0.53125 2.07812,-0.53125 1.09375,0 2.10938,0.54687 1.01562,0.54688 1.53125,1.46875 0.51562,0.90625 0.51562,1.875 z m -1.60937,0.0156 q 0,-0.78125 -0.54688,-1.42188 -0.76562,-0.875 -2,-0.875 -1.07812,0 -1.8125,0.70313 -0.71875,0.6875 -0.71875,1.59375 0,0.75 0.73438,1.40625 0.73437,0.65625 1.79687,0.65625 1.07813,0 1.8125,-0.65625 0.73438,-0.65625 0.73438,-1.40625 z m 11.21094,-0.0156 q 0,0.92188 -0.51563,1.79688 -0.51562,0.85937 -1.53125,1.375 -1,0.51562 -2.10937,0.51562 -1.09375,0 -2.09375,-0.5 -1,-0.51562 -1.53125,-1.375 -0.51563,-0.875 -0.51563,-1.82812 0,-0.95313 0.53125,-1.875 0.53125,-0.9375 1.53125,-1.46875 1,-0.53125 2.07813,-0.53125 1.09375,0 2.10937,0.54687 1.01563,0.54688 1.53125,1.46875 0.51563,0.90625 0.51563,1.875 z m -1.60938,0.0156 q 0,-0.78125 -0.54687,-1.42188 -0.76563,-0.875 -2,-0.875 -1.07813,0 -1.8125,0.70313 -0.71875,0.6875 -0.71875,1.59375 0,0.75 0.73437,1.40625 0.73438,0.65625 1.79688,0.65625 1.07812,0 1.8125,-0.65625 0.73437,-0.65625 0.73437,-1.40625 z m 6.64844,-2.09375 0,3.21875 q 0,0.51562 0.21875,0.67187 0.32812,0.26563 1.17187,0.26563 1.21875,0 2.26563,-0.53125 0.39062,-0.20313 0.625,-0.20313 0.3125,0 0.53125,0.23438 0.23437,0.23437 0.23437,0.57812 0,0.3125 -0.25,0.53125 -0.375,0.375 -1.51562,0.6875 -1.125,0.3125 -1.89063,0.3125 -1.5,0 -2.25,-0.64062 -0.73437,-0.65625 -0.73437,-1.59375 l 0,-3.53125 -0.57813,0 q -0.57812,0 -0.82812,-0.21875 -0.25,-0.21875 -0.25,-0.57813 0,-0.35937 0.25,-0.57812 0.25,-0.21875 0.82812,-0.21875 l 0.57813,0 0,-1.45313 q 0,-0.57812 0.21875,-0.8125 0.21875,-0.25 0.57812,-0.25 0.35938,0 0.57813,0.25 0.21875,0.23438 0.21875,0.8125 l 0,1.45313 2.96875,0 q 0.57812,0 0.8125,0.21875 0.25,0.21875 0.25,0.57812 0,0.35938 -0.25,0.57813 -0.23438,0.21875 -0.8125,0.21875 l -2.96875,0 z" />
  <path
     style="fill:#cccccc;fill-rule:nonzero"
     inkscape:connector-curvature="0"
     id="path65"
     d="m 0.5,133.3886 0,0 c 0,-4.42416 3.5865,-8.01065 8.01066,-8.01065 l 87.28577,0 c 2.12456,0 4.16211,0.84399 5.6644,2.34628 1.50229,1.50229 2.34627,3.53983 2.34627,5.66437 l 0,32.04169 c 0,4.42416 -3.5865,8.01065 -8.01067,8.01065 l -87.28577,0 0,0 C 4.0865,173.44094 0.5,169.85445 0.5,165.43029 Z" />
  <path
     style="fill-rule:nonzero;stroke:#666666;stroke-width:1;stroke-linecap:butt;stroke-linejoin:round"
     inkscape:connector-curvature="0"
     id="path67"
     d="m 0.5,133.3886 0,0 c 0,-4.42416 3.5865,-8.01065 8.01066,-8.01065 l 87.28577,0 c 2.12456,0 4.16211,0.84399 5.6644,2.34628 1.50229,1.50229 2.34627,3.53983 2.34627,5.66437 l 0,32.04169 c 0,4.42416 -3.5865,8.01065 -8.01067,8.01065 l -87.28577,0 0,0 C 4.0865,173.44094 0.5,169.85445 0.5,165.43029 Z" />
  <path
     style="fill:#000000;fill-rule:nonzero"
     inkscape:connector-curvature="0"
     id="path69"
     d="m 25.86058,146.20696 q 0.15625,-0.20313 0.32812,-0.29688 0.17188,-0.10937 0.375,-0.10937 0.35938,0 0.57813,0.25 0.21875,0.23437 0.21875,0.8125 l 0,1.35937 q 0,0.57813 -0.21875,0.82813 -0.21875,0.23437 -0.57813,0.23437 -0.3125,0 -0.51562,-0.17187 -0.1875,-0.1875 -0.28125,-0.67188 -0.0625,-0.32812 -0.21875,-0.51562 -0.32813,-0.34375 -0.90625,-0.54688 -0.5625,-0.21875 -1.14063,-0.21875 -0.71875,0 -1.32812,0.3125 -0.59375,0.3125 -1.0625,1.01563 -0.45313,0.70312 -0.45313,1.67187 l 0,1.03125 q 0,1.15625 0.82813,1.9375 0.84375,0.76563 2.34375,0.76563 0.89062,0 1.5,-0.23438 0.35937,-0.14062 0.76562,-0.5625 0.25,-0.25 0.39063,-0.3125 0.14062,-0.0781 0.32812,-0.0781 0.3125,0 0.54688,0.25 0.25,0.23437 0.25,0.5625 0,0.32812 -0.32813,0.70312 -0.46875,0.54688 -1.21875,0.85938 -1.01562,0.42187 -2.23437,0.42187 -1.42188,0 -2.5625,-0.59375 -0.92188,-0.46875 -1.57813,-1.46875 -0.64062,-1.01562 -0.64062,-2.21875 l 0,-1.07812 q 0,-1.25 0.57812,-2.32813 0.59375,-1.09375 1.625,-1.67187 1.03125,-0.59375 2.1875,-0.59375 0.6875,0 1.29688,0.17187 0.60937,0.15625 1.125,0.48438 z m 11.25781,5.64062 q 0,0.92188 -0.51562,1.79688 -0.51563,0.85937 -1.53125,1.375 -1,0.51562 -2.10938,0.51562 -1.09375,0 -2.09375,-0.5 -1,-0.51562 -1.53125,-1.375 -0.51562,-0.875 -0.51562,-1.82812 0,-0.95313 0.53125,-1.875 0.53125,-0.9375 1.53125,-1.46875 1,-0.53125 2.07812,-0.53125 1.09375,0 2.10938,0.54687 1.01562,0.54688 1.53125,1.46875 0.51562,0.90625 0.51562,1.875 z m -1.60937,0.0156 q 0,-0.78125 -0.54688,-1.42188 -0.76562,-0.875 -2,-0.875 -1.07812,0 -1.8125,0.70313 -0.71875,0.6875 -0.71875,1.59375 0,0.75 0.73438,1.40625 0.73437,0.65625 1.79687,0.65625 1.07813,0 1.8125,-0.65625 0.73438,-0.65625 0.73438,-1.40625 z m 4.57031,-3.6875 0,0.45312 q 0.39062,-0.39062 0.70312,-0.53125 0.32813,-0.14062 0.73438,-0.14062 0.35937,0 0.70312,0.17187 0.34375,0.17188 0.67188,0.51563 0.40625,-0.34375 0.82812,-0.51563 0.4375,-0.17187 0.875,-0.17187 0.89063,0 1.45313,0.48437 0.73437,0.625 0.73437,1.64063 l 0,3.57812 q 0.5,0 0.73438,0.23438 0.25,0.21875 0.25,0.57812 0,0.34375 -0.25,0.57813 -0.23438,0.21875 -0.8125,0.21875 l -1.53125,0 0,-5.0625 q 0,-0.35938 -0.14063,-0.5 -0.125,-0.14063 -0.39062,-0.14063 -0.26563,0 -0.5,0.14063 -0.28125,0.1875 -0.70313,0.73437 l 0,3.21875 q 0.5,0 0.73438,0.23438 0.25,0.21875 0.25,0.57812 0,0.34375 -0.25,0.57813 -0.23438,0.21875 -0.8125,0.21875 l -1.51563,0 0,-5.0625 q 0,-0.35938 -0.14062,-0.5 -0.14063,-0.14063 -0.40625,-0.14063 -0.28125,0 -0.5625,0.17188 -0.26563,0.17187 -0.65625,0.70312 l 0,3.21875 q 0.5,0 0.75,0.23438 0.25,0.21875 0.25,0.57812 0,0.34375 -0.25,0.57813 -0.25,0.21875 -0.82813,0.21875 l -1.4375,0 q -0.57812,0 -0.82812,-0.21875 -0.25,-0.23438 -0.25,-0.59375 0,-0.34375 0.25,-0.5625 0.23437,-0.23438 0.75,-0.23438 l 0,-3.89062 q -0.51563,0 -0.75,-0.21875 -0.25,-0.23438 -0.25,-0.57813 0,-0.35937 0.25,-0.57812 0.25,-0.21875 0.82812,-0.21875 l 1.51563,0 z m 10.08594,6.20312 0,2.64063 0.96875,0 q 0.57812,0 0.8125,0.21875 0.25,0.21875 0.25,0.57812 0,0.35938 -0.25,0.57813 -0.23438,0.21875 -0.8125,0.21875 l -2.84375,0 q -0.57813,0 -0.82813,-0.21875 -0.25,-0.21875 -0.25,-0.57813 0,-0.35937 0.25,-0.57812 0.26563,-0.21875 0.82813,-0.21875 l 0.28125,0 0,-7.25 -0.28125,0 q -0.57813,0 -0.82813,-0.21875 -0.25,-0.21875 -0.25,-0.57813 0,-0.35937 0.25,-0.57812 0.25,-0.21875 0.82813,-0.21875 l 1.875,0 0,0.54687 q 0.5625,-0.39062 1.15625,-0.57812 0.60937,-0.1875 1.25,-0.1875 1.64062,0 2.79687,1.125 1.15625,1.10937 1.15625,2.54687 0,1.57813 -1.375,2.60938 -1.14062,0.85937 -2.5625,0.85937 -0.625,0 -1.23437,-0.17187 -0.59375,-0.1875 -1.1875,-0.54688 z m 4.75,-2.75 q 0,-0.32812 -0.26563,-0.84375 -0.26562,-0.53125 -0.8125,-0.875 -0.54687,-0.34375 -1.29687,-0.34375 -1.1875,0 -1.89063,0.89063 -0.48437,0.625 -0.48437,1.1875 0,0.64062 0.6875,1.25 0.6875,0.60937 1.6875,0.60937 1.01562,0 1.6875,-0.59375 0.6875,-0.60937 0.6875,-1.28125 z m 10.24218,-3.45312 0,5.48437 q 0.51563,0 0.75,0.23438 0.25,0.21875 0.25,0.57812 0,0.34375 -0.25,0.57813 -0.25,0.21875 -0.82812,0.21875 l -1.51563,0 0,-0.375 q -0.6875,0.3125 -1.3125,0.46875 -0.625,0.17187 -1.1875,0.17187 -0.79687,0 -1.375,-0.32812 -0.57812,-0.34375 -0.90625,-0.9375 -0.25,-0.42188 -0.25,-1.04688 l 0,-3.45312 -0.26562,0 q -0.57813,0 -0.82813,-0.21875 -0.25,-0.21875 -0.25,-0.57813 0,-0.35937 0.25,-0.57812 0.25,-0.21875 0.82813,-0.21875 l 1.875,0 0,4.76562 q 0,0.5 0.23437,0.75 0.25,0.23438 0.76563,0.23438 0.48437,0 1.03125,-0.1875 0.5625,-0.20313 1.39062,-0.70313 l 0,-3.26562 -0.57812,0 q -0.57813,0 -0.82813,-0.21875 -0.25,-0.21875 -0.25,-0.57813 0,-0.35937 0.25,-0.57812 0.25,-0.21875 0.82813,-0.21875 l 2.17187,0 z m 5.80469,1.59375 0,3.21875 q 0,0.51562 0.21875,0.67187 0.32813,0.26563 1.17188,0.26563 1.21875,0 2.26562,-0.53125 0.39063,-0.20313 0.625,-0.20313 0.3125,0 0.53125,0.23438 0.23438,0.23437 0.23438,0.57812 0,0.3125 -0.25,0.53125 -0.375,0.375 -1.51563,0.6875 -1.125,0.3125 -1.89062,0.3125 -1.5,0 -2.25,-0.64062 -0.73438,-0.65625 -0.73438,-1.59375 l 0,-3.53125 -0.57812,0 q -0.57813,0 -0.82813,-0.21875 -0.25,-0.21875 -0.25,-0.57813 0,-0.35937 0.25,-0.57812 0.25,-0.21875 0.82813,-0.21875 l 0.57812,0 0,-1.45313 q 0,-0.57812 0.21875,-0.8125 0.21875,-0.25 0.57813,-0.25 0.35937,0 0.57812,0.25 0.21875,0.23438 0.21875,0.8125 l 0,1.45313 2.96875,0 q 0.57813,0 0.8125,0.21875 0.25,0.21875 0.25,0.57812 0,0.35938 -0.25,0.57813 -0.23437,0.21875 -0.8125,0.21875 l -2.96875,0 z m 14.02344,2.76562 -6.57813,0 q 0.25,0.625 0.89063,1.01563 0.64062,0.375 1.71875,0.375 0.89062,0 2.375,-0.39063 0.60937,-0.15625 0.84375,-0.15625 0.3125,0 0.53125,0.23438 0.21875,0.21875 0.21875,0.5625 0,0.3125 -0.23438,0.53125 -0.3125,0.29687 -1.53125,0.5625 -1.20312,0.26562 -2.3125,0.26562 -1.92187,0 -3.07812,-1.09375 -1.15625,-1.09375 -1.15625,-2.67187 0,-1.6875 1.25,-2.75 1.25,-1.0625 2.875,-1.0625 0.96875,0 1.78125,0.34375 0.82812,0.34375 1.21875,0.75 0.5625,0.57812 0.9375,1.42187 0.25,0.59375 0.25,1.375 l 0,0.6875 z m -1.78125,-1.60937 q -0.35938,-0.6875 -0.95313,-1.01563 -0.59375,-0.34375 -1.42187,-0.34375 -0.8125,0 -1.40625,0.34375 -0.59375,0.32813 -0.96875,1.01563 l 4.75,0 z" />
  <path
     style="fill:#cccccc;fill-rule:nonzero"
     inkscape:connector-curvature="0"
     id="path71"
     d="m 134.25328,133.3886 0,0 c 0,-4.42416 3.58649,-8.01065 8.01065,-8.01065 l 74.46689,0 c 2.12454,0 4.16211,0.84399 5.6644,2.34628 1.50229,1.50229 2.34625,3.53983 2.34625,5.66437 l 0,32.04169 c 0,4.42416 -3.58649,8.01065 -8.01065,8.01065 l -74.46689,0 c -4.42416,0 -8.01065,-3.58649 -8.01065,-8.01065 z" />
  <path
     style="fill-rule:nonzero;stroke:#666666;stroke-width:1;stroke-linecap:butt;stroke-linejoin:round"
     inkscape:connector-curvature="0"
     id="path73"
     d="m 134.25328,133.3886 0,0 c 0,-4.42416 3.58649,-8.01065 8.01065,-8.01065 l 74.46689,0 c 2.12454,0 4.16211,0.84399 5.6644,2.34628 1.50229,1.50229 2.34625,3.53983 2.34625,5.66437 l 0,32.04169 c 0,4.42416 -3.58649,8.01065 -8.01065,8.01065 l -74.46689,0 c -4.42416,0 -8.01065,-3.58649 -8.01065,-8.01065 z" />
  <path
     style="fill:#000000;fill-rule:nonzero"
     inkscape:connector-curvature="0"
     id="path75"
     d="m 155.48958,152.92571 2.32813,-5.53125 -0.375,0 q -0.57813,0 -0.82813,-0.21875 -0.23437,-0.21875 -0.23437,-0.57813 0,-0.35937 0.23437,-0.57812 0.25,-0.23438 0.82813,-0.23438 l 2.15625,0.0156 q 0.57812,0 0.8125,0.21875 0.25,0.21875 0.25,0.57812 0,0.42188 -0.375,0.67188 -0.17188,0.125 -0.73438,0.125 l -3.28125,7.875 -1.54687,0 -3.28125,-7.875 q -0.5625,0 -0.73438,-0.125 -0.39062,-0.23438 -0.39062,-0.67188 0,-0.35937 0.25,-0.57812 0.25,-0.23438 0.82812,-0.23438 l 2.17188,0.0156 q 0.5625,0 0.8125,0.21875 0.25,0.21875 0.25,0.57812 0,0.35938 -0.25,0.57813 -0.23438,0.21875 -0.8125,0.21875 l -0.375,0 2.29687,5.53125 z m 13.77344,-1.07813 q 0,0.92188 -0.51563,1.79688 -0.51562,0.85937 -1.53125,1.375 -1,0.51562 -2.10937,0.51562 -1.09375,0 -2.09375,-0.5 -1,-0.51562 -1.53125,-1.375 -0.51563,-0.875 -0.51563,-1.82812 0,-0.95313 0.53125,-1.875 0.53125,-0.9375 1.53125,-1.46875 1,-0.53125 2.07813,-0.53125 1.09375,0 2.10937,0.54687 1.01563,0.54688 1.53125,1.46875 0.51563,0.90625 0.51563,1.875 z m -1.60938,0.0156 q 0,-0.78125 -0.54687,-1.42188 -0.76563,-0.875 -2,-0.875 -1.07813,0 -1.8125,0.70313 -0.71875,0.6875 -0.71875,1.59375 0,0.75 0.73437,1.40625 0.73438,0.65625 1.79688,0.65625 1.07812,0 1.8125,-0.65625 0.73437,-0.65625 0.73437,-1.40625 z m 7.85157,-6.73438 0,8.53125 1.92187,0 q 0.57813,0 0.8125,0.23438 0.25,0.21875 0.25,0.57812 0,0.34375 -0.25,0.57813 -0.23437,0.21875 -0.8125,0.21875 l -5.45312,0 q -0.57813,0 -0.82813,-0.21875 -0.23437,-0.23438 -0.23437,-0.59375 0,-0.34375 0.23437,-0.5625 0.25,-0.23438 0.82813,-0.23438 l 1.92187,0 0,-6.92187 -1.28125,0 q -0.57812,0 -0.82812,-0.21875 -0.25,-0.23438 -0.25,-0.59375 0,-0.34375 0.25,-0.5625 0.25,-0.23438 0.82812,-0.23438 l 2.89063,0 z m 12.19531,3.04688 0,5.48437 q 0.51562,0 0.75,0.23438 0.25,0.21875 0.25,0.57812 0,0.34375 -0.25,0.57813 -0.25,0.21875 -0.82813,0.21875 l -1.51562,0 0,-0.375 q -0.6875,0.3125 -1.3125,0.46875 -0.625,0.17187 -1.1875,0.17187 -0.79688,0 -1.375,-0.32812 -0.57813,-0.34375 -0.90625,-0.9375 -0.25,-0.42188 -0.25,-1.04688 l 0,-3.45312 -0.26563,0 q -0.57812,0 -0.82812,-0.21875 -0.25,-0.21875 -0.25,-0.57813 0,-0.35937 0.25,-0.57812 0.25,-0.21875 0.82812,-0.21875 l 1.875,0 0,4.76562 q 0,0.5 0.23438,0.75 0.25,0.23438 0.76562,0.23438 0.48438,0 1.03125,-0.1875 0.5625,-0.20313 1.39063,-0.70313 l 0,-3.26562 -0.57813,0 q -0.57812,0 -0.82812,-0.21875 -0.25,-0.21875 -0.25,-0.57813 0,-0.35937 0.25,-0.57812 0.25,-0.21875 0.82812,-0.21875 l 2.17188,0 z m 3.72656,0 0,0.45312 q 0.39063,-0.39062 0.70313,-0.53125 0.32812,-0.14062 0.73437,-0.14062 0.35938,0 0.70313,0.17187 0.34375,0.17188 0.67187,0.51563 0.40625,-0.34375 0.82813,-0.51563 0.4375,-0.17187 0.875,-0.17187 0.89062,0 1.45312,0.48437 0.73438,0.625 0.73438,1.64063 l 0,3.57812 q 0.5,0 0.73437,0.23438 0.25,0.21875 0.25,0.57812 0,0.34375 -0.25,0.57813 -0.23437,0.21875 -0.8125,0.21875 l -1.53125,0 0,-5.0625 q 0,-0.35938 -0.14062,-0.5 -0.125,-0.14063 -0.39063,-0.14063 -0.26562,0 -0.5,0.14063 -0.28125,0.1875 -0.70312,0.73437 l 0,3.21875 q 0.5,0 0.73437,0.23438 0.25,0.21875 0.25,0.57812 0,0.34375 -0.25,0.57813 -0.23437,0.21875 -0.8125,0.21875 l -1.51562,0 0,-5.0625 q 0,-0.35938 -0.14063,-0.5 -0.14062,-0.14063 -0.40625,-0.14063 -0.28125,0 -0.5625,0.17188 -0.26562,0.17187 -0.65625,0.70312 l 0,3.21875 q 0.5,0 0.75,0.23438 0.25,0.21875 0.25,0.57812 0,0.34375 -0.25,0.57813 -0.25,0.21875 -0.82812,0.21875 l -1.4375,0 q -0.57813,0 -0.82813,-0.21875 -0.25,-0.23438 -0.25,-0.59375 0,-0.34375 0.25,-0.5625 0.23438,-0.23438 0.75,-0.23438 l 0,-3.89062 q -0.51562,0 -0.75,-0.21875 -0.25,-0.23438 -0.25,-0.57813 0,-0.35937 0.25,-0.57812 0.25,-0.21875 0.82813,-0.21875 l 1.51562,0 z m 16.10156,4.35937 -6.57812,0 q 0.25,0.625 0.89062,1.01563 0.64063,0.375 1.71875,0.375 0.89063,0 2.375,-0.39063 0.60938,-0.15625 0.84375,-0.15625 0.3125,0 0.53125,0.23438 0.21875,0.21875 0.21875,0.5625 0,0.3125 -0.23437,0.53125 -0.3125,0.29687 -1.53125,0.5625 -1.20313,0.26562 -2.3125,0.26562 -1.92188,0 -3.07813,-1.09375 -1.15625,-1.09375 -1.15625,-2.67187 0,-1.6875 1.25,-2.75 1.25,-1.0625 2.875,-1.0625 0.96875,0 1.78125,0.34375 0.82813,0.34375 1.21875,0.75 0.5625,0.57812 0.9375,1.42187 0.25,0.59375 0.25,1.375 l 0,0.6875 z m -1.78125,-1.60937 q -0.35937,-0.6875 -0.95312,-1.01563 -0.59375,-0.34375 -1.42188,-0.34375 -0.8125,0 -1.40625,0.34375 -0.59375,0.32813 -0.96875,1.01563 l 4.75,0 z" />
  <path
     style="fill:#cccccc;fill-rule:nonzero"
     inkscape:connector-curvature="0"
     id="path77"
     d="m 249.56038,133.39122 0,0 c 0,-4.42416 3.58649,-8.01065 8.01065,-8.01065 l 105.74246,0 c 2.12457,0 4.16211,0.84399 5.6644,2.34628 1.50229,1.50229 2.34625,3.53983 2.34625,5.66437 l 0,32.04169 c 0,4.42416 -3.58649,8.01065 -8.01065,8.01065 l -105.74246,0 0,0 c -4.42416,0 -8.01065,-3.58649 -8.01065,-8.01065 z" />
  <path
     style="fill-rule:nonzero;stroke:#666666;stroke-width:1;stroke-linecap:butt;stroke-linejoin:round"
     inkscape:connector-curvature="0"
     id="path79"
     d="m 249.56038,133.39122 0,0 c 0,-4.42416 3.58649,-8.01065 8.01065,-8.01065 l 105.74246,0 c 2.12457,0 4.16211,0.84399 5.6644,2.34628 1.50229,1.50229 2.34625,3.53983 2.34625,5.66437 l 0,32.04169 c 0,4.42416 -3.58649,8.01065 -8.01065,8.01065 l -105.74246,0 0,0 c -4.42416,0 -8.01065,-3.58649 -8.01065,-8.01065 z" />
  <path
     style="fill:#000000;fill-rule:nonzero"
     inkscape:connector-curvature="0"
     id="path81"
     d="m 266.13759,151.31896 0,2.34375 1.64063,0 q 0.57812,0 0.82812,0.23438 0.25,0.21875 0.25,0.57812 0,0.34375 -0.25,0.57813 -0.25,0.21875 -0.82812,0.21875 l -3.48438,0 q -0.57812,0 -0.82812,-0.21875 -0.25,-0.23438 -0.25,-0.59375 0,-0.34375 0.25,-0.5625 0.25,-0.23438 0.82812,-0.23438 l 0.25,0 0,-6.26562 -0.25,0 q -0.57812,0 -0.82812,-0.21875 -0.25,-0.21875 -0.25,-0.57813 0,-0.35937 0.25,-0.57812 0.25,-0.23438 0.82812,-0.23438 l 7.53125,0.0156 0,2.4375 q 0,0.57812 -0.21875,0.82812 -0.21875,0.23438 -0.57812,0.23438 -0.35938,0 -0.57813,-0.23438 -0.21875,-0.25 -0.21875,-0.82812 l 0,-0.84375 -4.09375,0 0,2.32812 1.40625,0 q 0,-0.625 0.125,-0.8125 0.23438,-0.375 0.6875,-0.375 0.34375,0 0.5625,0.25 0.23438,0.23438 0.23438,0.8125 l 0,1.84375 q 0,0.57813 -0.23438,0.82813 -0.21875,0.25 -0.57812,0.25 -0.4375,0 -0.67188,-0.39063 -0.125,-0.17187 -0.125,-0.8125 l -1.40625,0 z m 11.27344,-6.1875 0,1.70313 -1.90625,0 0,-1.70313 1.90625,0 z m 0.21875,3.04688 0,5.48437 1.92187,0 q 0.57813,0 0.82813,0.23438 0.25,0.21875 0.25,0.57812 0,0.34375 -0.25,0.57813 -0.25,0.21875 -0.82813,0.21875 l -5.4375,0 q -0.57812,0 -0.82812,-0.21875 -0.25,-0.23438 -0.25,-0.59375 0,-0.34375 0.25,-0.5625 0.25,-0.23438 0.82812,-0.23438 l 1.92188,0 0,-3.89062 -1.29688,0 q -0.5625,0 -0.8125,-0.21875 -0.25,-0.21875 -0.25,-0.57813 0,-0.35937 0.23438,-0.57812 0.25,-0.21875 0.82812,-0.21875 l 2.89063,0 z m 9.61719,-3.04688 0,8.53125 1.92187,0 q 0.57813,0 0.8125,0.23438 0.25,0.21875 0.25,0.57812 0,0.34375 -0.25,0.57813 -0.23437,0.21875 -0.8125,0.21875 l -5.45312,0 q -0.57813,0 -0.82813,-0.21875 -0.23437,-0.23438 -0.23437,-0.59375 0,-0.34375 0.23437,-0.5625 0.25,-0.23438 0.82813,-0.23438 l 1.92187,0 0,-6.92187 -1.28125,0 q -0.57812,0 -0.82812,-0.21875 -0.25,-0.23438 -0.25,-0.59375 0,-0.34375 0.25,-0.5625 0.25,-0.23438 0.82812,-0.23438 l 2.89063,0 z m 12.82031,7.40625 -6.57813,0 q 0.25,0.625 0.89063,1.01563 0.64062,0.375 1.71875,0.375 0.89062,0 2.375,-0.39063 0.60937,-0.15625 0.84375,-0.15625 0.3125,0 0.53125,0.23438 0.21875,0.21875 0.21875,0.5625 0,0.3125 -0.23438,0.53125 -0.3125,0.29687 -1.53125,0.5625 -1.20312,0.26562 -2.3125,0.26562 -1.92187,0 -3.07812,-1.09375 -1.15625,-1.09375 -1.15625,-2.67187 0,-1.6875 1.25,-2.75 1.25,-1.0625 2.875,-1.0625 0.96875,0 1.78125,0.34375 0.82812,0.34375 1.21875,0.75 0.5625,0.57812 0.9375,1.42187 0.25,0.59375 0.25,1.375 l 0,0.6875 z m -1.78125,-1.60937 q -0.35938,-0.6875 -0.95313,-1.01563 -0.59375,-0.34375 -1.42187,-0.34375 -0.8125,0 -1.40625,0.34375 -0.59375,0.32813 -0.96875,1.01563 l 4.75,0 z m 5.02344,3.9375 q -0.21875,0.25 -0.34375,0.32812 -0.125,0.0625 -0.3125,0.0625 -0.375,0 -0.59375,-0.25 -0.21875,-0.25 -0.21875,-0.8125 l 0,-1.07812 q 0,-0.57813 0.21875,-0.82813 0.21875,-0.25 0.59375,-0.25 0.28125,0 0.46875,0.15625 0.1875,0.14063 0.28125,0.5 0.10937,0.34375 0.21875,0.46875 0.23437,0.23438 0.8125,0.48438 0.57812,0.25 1.26562,0.25 1.0625,0 1.75,-0.5 0.4375,-0.29688 0.4375,-0.75 0,-0.29688 -0.21875,-0.54688 -0.20312,-0.26562 -0.67187,-0.4375 -0.3125,-0.125 -1.40625,-0.32812 -1.3125,-0.23438 -1.98438,-0.57813 -0.67187,-0.34375 -1.0625,-0.96875 -0.39062,-0.625 -0.39062,-1.35937 0,-1.14063 0.95312,-2 0.96875,-0.875 2.51563,-0.875 0.60937,0 1.14062,0.14062 0.53125,0.14063 0.95313,0.42188 0.3125,-0.3125 0.625,-0.3125 0.35937,0 0.57812,0.25 0.21875,0.25 0.21875,0.8125 l 0,1.20312 q 0,0.57813 -0.21875,0.82813 -0.21875,0.25 -0.57812,0.25 -0.29688,0 -0.51563,-0.1875 -0.17187,-0.125 -0.26562,-0.51563 -0.0781,-0.40625 -0.20313,-0.57812 -0.23437,-0.29688 -0.6875,-0.5 -0.45312,-0.20313 -1.04687,-0.20313 -0.85938,0 -1.375,0.40625 -0.5,0.39063 -0.5,0.82813 0,0.29687 0.20312,0.57812 0.21875,0.28125 0.60938,0.4375 0.26562,0.10938 1.5,0.35938 1.23437,0.23437 1.89062,0.53125 0.65625,0.28125 1.09375,0.90625 0.4375,0.60937 0.4375,1.45312 0,1.1875 -0.82812,1.90625 -1.10938,0.9375 -2.82813,0.9375 -0.67187,0 -1.29687,-0.17187 -0.625,-0.15625 -1.21875,-0.46875 z m 11.03906,0.34375 -2.76563,-5.4375 q -0.39062,-0.0469 -0.59375,-0.26563 -0.20312,-0.21875 -0.20312,-0.53125 0,-0.35937 0.23437,-0.57812 0.25,-0.21875 0.82813,-0.21875 l 1.46875,0 q 0.57812,0 0.8125,0.21875 0.25,0.21875 0.25,0.57812 0,0.35938 -0.25,0.57813 -0.23438,0.21875 -0.76563,0.21875 l 1.89063,3.6875 1.87497,-3.6875 q -0.51563,0 -0.76563,-0.21875 -0.25,-0.21875 -0.25,-0.57813 0,-0.35937 0.25,-0.57812 0.25,-0.21875 0.82813,-0.21875 l 1.5,0 q 0.57812,0 0.8125,0.21875 0.25,0.21875 0.25,0.57812 0,0.32813 -0.21875,0.54688 -0.20313,0.21875 -0.60938,0.25 l -3.67184,7.25 q 0.59375,0 0.78122,0.10937 0.375,0.25 0.375,0.6875 0,0.35938 -0.25,0.57813 -0.23438,0.21875 -0.81247,0.21875 l -3.5,0 q -0.57813,0 -0.82813,-0.21875 -0.23437,-0.21875 -0.23437,-0.57813 0,-0.35937 0.23437,-0.57812 0.25,-0.21875 0.82813,-0.21875 l 1.59375,0 0.90625,-1.8125 z m 12.22653,-5.15625 q -0.39063,-0.25 -0.82813,-0.35938 -0.42187,-0.125 -0.89062,-0.125 -0.92188,0 -1.46875,0.29688 -0.25,0.14062 -0.25,0.29687 0,0.17188 0.32812,0.34375 0.25,0.125 1.125,0.25 1.59375,0.21875 2.21875,0.4375 0.8125,0.28125 1.25,0.85938 0.45313,0.5625 0.45313,1.20312 0,0.85938 -0.75,1.4375 -1.09375,0.84375 -2.82813,0.84375 -0.6875,0 -1.28125,-0.125 -0.59375,-0.125 -1.07812,-0.35937 -0.125,0.0937 -0.26563,0.15625 -0.125,0.0469 -0.26562,0.0469 -0.375,0 -0.59375,-0.23437 -0.21875,-0.25 -0.21875,-0.82813 l 0,-0.54687 q 0,-0.57813 0.21875,-0.8125 0.21875,-0.25 0.57812,-0.25 0.29688,0 0.48438,0.15625 0.20312,0.15625 0.3125,0.54687 0.35937,0.3125 0.875,0.48438 0.51562,0.15625 1.1875,0.15625 1.10937,0 1.71875,-0.34375 0.28125,-0.17188 0.28125,-0.35938 0,-0.3125 -0.40625,-0.51562 -0.42188,-0.20313 -1.71875,-0.34375 -1.92188,-0.20313 -2.57813,-0.78125 -0.64062,-0.57813 -0.64062,-1.40625 0,-0.85938 0.71875,-1.4375 0.98437,-0.78125 2.57812,-0.78125 0.5625,0 1.0625,0.10937 0.51563,0.10938 0.98438,0.32813 0.15625,-0.10938 0.28125,-0.15625 0.125,-0.0625 0.23437,-0.0625 0.32813,0 0.54688,0.25 0.21875,0.23437 0.21875,0.8125 l 0,0.39062 q 0,0.53125 -0.125,0.71875 -0.25,0.35938 -0.67188,0.35938 -0.29687,0 -0.51562,-0.17188 -0.21875,-0.1875 -0.28125,-0.48437 z m 7.47656,-0.28125 0,3.21875 q 0,0.51562 0.21875,0.67187 0.32813,0.26563 1.17188,0.26563 1.21875,0 2.26562,-0.53125 0.39063,-0.20313 0.625,-0.20313 0.3125,0 0.53125,0.23438 0.23438,0.23437 0.23438,0.57812 0,0.3125 -0.25,0.53125 -0.375,0.375 -1.51563,0.6875 -1.125,0.3125 -1.89062,0.3125 -1.5,0 -2.25,-0.64062 -0.73438,-0.65625 -0.73438,-1.59375 l 0,-3.53125 -0.57812,0 q -0.57813,0 -0.82813,-0.21875 -0.25,-0.21875 -0.25,-0.57813 0,-0.35937 0.25,-0.57812 0.25,-0.21875 0.82813,-0.21875 l 0.57812,0 0,-1.45313 q 0,-0.57812 0.21875,-0.8125 0.21875,-0.25 0.57813,-0.25 0.35937,0 0.57812,0.25 0.21875,0.23438 0.21875,0.8125 l 0,1.45313 2.96875,0 q 0.57813,0 0.8125,0.21875 0.25,0.21875 0.25,0.57812 0,0.35938 -0.25,0.57813 -0.23437,0.21875 -0.8125,0.21875 l -2.96875,0 z m 14.02344,2.76562 -6.57813,0 q 0.25,0.625 0.89063,1.01563 0.64062,0.375 1.71875,0.375 0.89062,0 2.375,-0.39063 0.60937,-0.15625 0.84375,-0.15625 0.3125,0 0.53125,0.23438 0.21875,0.21875 0.21875,0.5625 0,0.3125 -0.23438,0.53125 -0.3125,0.29687 -1.53125,0.5625 -1.20312,0.26562 -2.3125,0.26562 -1.92187,0 -3.07812,-1.09375 -1.15625,-1.09375 -1.15625,-2.67187 0,-1.6875 1.25,-2.75 1.25,-1.0625 2.875,-1.0625 0.96875,0 1.78125,0.34375 0.82812,0.34375 1.21875,0.75 0.5625,0.57812 0.9375,1.42187 0.25,0.59375 0.25,1.375 l 0,0.6875 z m -1.78125,-1.60937 q -0.35938,-0.6875 -0.95313,-1.01563 -0.59375,-0.34375 -1.42187,-0.34375 -0.8125,0 -1.40625,0.34375 -0.59375,0.32813 -0.96875,1.01563 l 4.75,0 z m 4.88281,-2.75 0,0.45312 q 0.39063,-0.39062 0.70313,-0.53125 0.32812,-0.14062 0.73437,-0.14062 0.35938,0 0.70313,0.17187 0.34375,0.17188 0.67187,0.51563 0.40625,-0.34375 0.82813,-0.51563 0.4375,-0.17187 0.875,-0.17187 0.89062,0 1.45312,0.48437 0.73438,0.625 0.73438,1.64063 l 0,3.57812 q 0.5,0 0.73437,0.23438 0.25,0.21875 0.25,0.57812 0,0.34375 -0.25,0.57813 -0.23437,0.21875 -0.8125,0.21875 l -1.53125,0 0,-5.0625 q 0,-0.35938 -0.14062,-0.5 -0.125,-0.14063 -0.39063,-0.14063 -0.26562,0 -0.5,0.14063 -0.28125,0.1875 -0.70312,0.73437 l 0,3.21875 q 0.5,0 0.73437,0.23438 0.25,0.21875 0.25,0.57812 0,0.34375 -0.25,0.57813 -0.23437,0.21875 -0.8125,0.21875 l -1.51562,0 0,-5.0625 q 0,-0.35938 -0.14063,-0.5 -0.14062,-0.14063 -0.40625,-0.14063 -0.28125,0 -0.5625,0.17188 -0.26562,0.17187 -0.65625,0.70312 l 0,3.21875 q 0.5,0 0.75,0.23438 0.25,0.21875 0.25,0.57812 0,0.34375 -0.25,0.57813 -0.25,0.21875 -0.82812,0.21875 l -1.4375,0 q -0.57813,0 -0.82813,-0.21875 -0.25,-0.23438 -0.25,-0.59375 0,-0.34375 0.25,-0.5625 0.23438,-0.23438 0.75,-0.23438 l 0,-3.89062 q -0.51562,0 -0.75,-0.21875 -0.25,-0.23438 -0.25,-0.57813 0,-0.35937 0.25,-0.57812 0.25,-0.21875 0.82813,-0.21875 l 1.51562,0 z" />
  <path
     style="fill:#cccccc;fill-rule:nonzero"
     inkscape:connector-curvature="0"
     id="path83"
     d="m 387.30052,133.39122 0,0 c 0,-4.42416 3.58649,-8.01065 8.01068,-8.01065 l 134.52985,0 c 2.12457,0 4.16211,0.84399 5.66437,2.34628 1.50232,1.50229 2.34631,3.53983 2.34631,5.66437 l 0,32.04169 c 0,4.42416 -3.58648,8.01065 -8.01068,8.01065 l -134.52985,0 c -4.42419,0 -8.01068,-3.58649 -8.01068,-8.01065 z" />
  <path
     style="fill-rule:nonzero;stroke:#666666;stroke-width:1;stroke-linecap:butt;stroke-linejoin:round"
     inkscape:connector-curvature="0"
     id="path85"
     d="m 387.30052,133.39122 0,0 c 0,-4.42416 3.58649,-8.01065 8.01068,-8.01065 l 134.52985,0 c 2.12457,0 4.16211,0.84399 5.66437,2.34628 1.50232,1.50229 2.34631,3.53983 2.34631,5.66437 l 0,32.04169 c 0,4.42416 -3.58648,8.01065 -8.01068,8.01065 l -134.52985,0 c -4.42419,0 -8.01068,-3.58649 -8.01068,-8.01065 z" />
  <path
     style="fill:#000000;fill-rule:nonzero"
     inkscape:connector-curvature="0"
     id="path87"
     d="m 409.46282,150.53771 q 0,2.125 -1.35938,3.54688 -1.34375,1.42187 -3.125,1.42187 -1.60937,0 -2.89062,-1.1875 -1.59375,-1.45312 -1.59375,-3.78125 0,-2.32812 1.59375,-3.79687 1.28125,-1.1875 2.89062,-1.1875 1.78125,0 3.125,1.42187 1.35938,1.42188 1.35938,3.5625 z m -1.59375,0 q 0,-1.46875 -0.89063,-2.42187 -0.875,-0.95313 -2,-0.95313 -1.125,0 -2.01562,0.96875 -0.875,0.95313 -0.875,2.40625 0,1.45313 0.875,2.40625 0.89062,0.95313 2.01562,0.95313 1.125,0 2,-0.95313 0.89063,-0.95312 0.89063,-2.40625 z m 4.67969,-5.40625 0,3.59375 q 0.59375,-0.375 1.1875,-0.5625 0.60937,-0.20312 1.23437,-0.20312 1.65625,0 2.8125,1.15625 1.15625,1.14062 1.15625,2.76562 0,1.5625 -1.10937,2.60938 -1.09375,1.04687 -2.89063,1.04687 -0.64062,0 -1.23437,-0.17187 -0.59375,-0.17188 -1.15625,-0.48438 l 0,0.39063 -1.875,0 q -0.57813,0 -0.82813,-0.21875 -0.25,-0.23438 -0.25,-0.59375 0,-0.34375 0.25,-0.5625 0.26563,-0.23438 0.82813,-0.23438 l 0.28125,0 0,-6.92187 -0.28125,0 q -0.57813,0 -0.82813,-0.21875 -0.25,-0.23438 -0.25,-0.59375 0,-0.34375 0.25,-0.5625 0.25,-0.23438 0.82813,-0.23438 l 1.875,0 z m 4.79687,6.79688 q 0,-0.98438 -0.70312,-1.67188 -0.6875,-0.6875 -1.70313,-0.6875 -1,0 -1.70312,0.6875 -0.6875,0.6875 -0.6875,1.65625 0,0.875 0.625,1.45313 0.625,0.5625 1.76562,0.5625 1.14063,0 1.76563,-0.5625 0.64062,-0.57813 0.64062,-1.4375 z m 8.44531,-6.79688 0,1.70313 -1.92187,0 0,-1.70313 1.92187,0 z m -0.65625,4.64063 -3.26562,0 q -0.57813,0 -0.82813,-0.21875 -0.25,-0.21875 -0.25,-0.57813 0,-0.35937 0.25,-0.57812 0.25,-0.21875 0.82813,-0.21875 l 4.85937,0 0,7.4375 q 0,0.84375 -0.35937,1.46875 -0.34375,0.625 -1.07813,1.07812 -0.73437,0.45313 -1.65625,0.45313 l -1.8125,0 q -0.57812,0 -0.82812,-0.21875 -0.25,-0.21875 -0.25,-0.57813 0,-0.35937 0.25,-0.57812 0.25,-0.21875 0.82812,-0.21875 l 1.76563,0 q 0.73437,0 1.14062,-0.40625 0.40625,-0.39063 0.40625,-1 l 0,-5.84375 z m 12.66407,2.76562 -6.57813,0 q 0.25,0.625 0.89063,1.01563 0.64062,0.375 1.71875,0.375 0.89062,0 2.375,-0.39063 0.60937,-0.15625 0.84375,-0.15625 0.3125,0 0.53125,0.23438 0.21875,0.21875 0.21875,0.5625 0,0.3125 -0.23438,0.53125 -0.3125,0.29687 -1.53125,0.5625 -1.20312,0.26562 -2.3125,0.26562 -1.92187,0 -3.07812,-1.09375 -1.15625,-1.09375 -1.15625,-2.67187 0,-1.6875 1.25,-2.75 1.25,-1.0625 2.875,-1.0625 0.96875,0 1.78125,0.34375 0.82812,0.34375 1.21875,0.75 0.5625,0.57812 0.9375,1.42187 0.25,0.59375 0.25,1.375 l 0,0.6875 z m -1.78125,-1.60937 q -0.35938,-0.6875 -0.95313,-1.01563 -0.59375,-0.34375 -1.42187,-0.34375 -0.8125,0 -1.40625,0.34375 -0.59375,0.32813 -0.96875,1.01563 l 4.75,0 z m 9.85156,-2.46875 q 0.29687,-0.26563 0.59375,-0.26563 0.34375,0 0.5625,0.25 0.23437,0.23438 0.23437,0.8125 l 0,1.03125 q 0,0.57813 -0.23437,0.82813 -0.21875,0.23437 -0.57813,0.23437 -0.32812,0 -0.54687,-0.1875 -0.17188,-0.14062 -0.26563,-0.57812 -0.0937,-0.4375 -0.45312,-0.64063 -0.625,-0.375 -1.60938,-0.375 -1.14062,0 -1.82812,0.67188 -0.67188,0.65625 -0.67188,1.67187 0,0.9375 0.65625,1.48438 0.65625,0.53125 2.17188,0.53125 1,0 1.64062,-0.20313 0.375,-0.125 0.70313,-0.42187 0.34375,-0.29688 0.60937,-0.29688 0.32813,0 0.5625,0.25 0.25,0.23438 0.25,0.5625 0,0.53125 -0.73437,1 -1.07813,0.71875 -3.15625,0.71875 -1.85938,0 -2.90625,-0.78125 -1.40625,-1.03125 -1.40625,-2.84375 0,-1.70312 1.14062,-2.82812 1.14063,-1.125 2.98438,-1.125 0.65625,0 1.21875,0.125 0.57812,0.125 1.0625,0.375 z m 6.71094,1.3125 0,3.21875 q 0,0.51562 0.21875,0.67187 0.32812,0.26563 1.17187,0.26563 1.21875,0 2.26563,-0.53125 0.39062,-0.20313 0.625,-0.20313 0.3125,0 0.53125,0.23438 0.23437,0.23437 0.23437,0.57812 0,0.3125 -0.25,0.53125 -0.375,0.375 -1.51562,0.6875 -1.125,0.3125 -1.89063,0.3125 -1.5,0 -2.25,-0.64062 -0.73437,-0.65625 -0.73437,-1.59375 l 0,-3.53125 -0.57813,0 q -0.57812,0 -0.82812,-0.21875 -0.25,-0.21875 -0.25,-0.57813 0,-0.35937 0.25,-0.57812 0.25,-0.21875 0.82812,-0.21875 l 0.57813,0 0,-1.45313 q 0,-0.57812 0.21875,-0.8125 0.21875,-0.25 0.57812,-0.25 0.35938,0 0.57813,0.25 0.21875,0.23438 0.21875,0.8125 l 0,1.45313 2.96875,0 q 0.57812,0 0.8125,0.21875 0.25,0.21875 0.25,0.57812 0,0.35938 -0.25,0.57813 -0.23438,0.21875 -0.8125,0.21875 l -2.96875,0 z m 7.66406,5.09375 q -0.21875,0.25 -0.34375,0.32812 -0.125,0.0625 -0.3125,0.0625 -0.375,0 -0.59375,-0.25 -0.21875,-0.25 -0.21875,-0.8125 l 0,-1.07812 q 0,-0.57813 0.21875,-0.82813 0.21875,-0.25 0.59375,-0.25 0.28125,0 0.46875,0.15625 0.1875,0.14063 0.28125,0.5 0.10937,0.34375 0.21875,0.46875 0.23437,0.23438 0.8125,0.48438 0.57812,0.25 1.26562,0.25 1.0625,0 1.75,-0.5 0.4375,-0.29688 0.4375,-0.75 0,-0.29688 -0.21875,-0.54688 -0.20312,-0.26562 -0.67187,-0.4375 -0.3125,-0.125 -1.40625,-0.32812 -1.3125,-0.23438 -1.98438,-0.57813 -0.67187,-0.34375 -1.0625,-0.96875 -0.39062,-0.625 -0.39062,-1.35937 0,-1.14063 0.95312,-2 0.96875,-0.875 2.51563,-0.875 0.60937,0 1.14062,0.14062 0.53125,0.14063 0.95313,0.42188 0.3125,-0.3125 0.625,-0.3125 0.35937,0 0.57812,0.25 0.21875,0.25 0.21875,0.8125 l 0,1.20312 q 0,0.57813 -0.21875,0.82813 -0.21875,0.25 -0.57812,0.25 -0.29688,0 -0.51563,-0.1875 -0.17187,-0.125 -0.26562,-0.51563 -0.0781,-0.40625 -0.20313,-0.57812 -0.23437,-0.29688 -0.6875,-0.5 -0.45312,-0.20313 -1.04687,-0.20313 -0.85938,0 -1.375,0.40625 -0.5,0.39063 -0.5,0.82813 0,0.29687 0.20312,0.57812 0.21875,0.28125 0.60938,0.4375 0.26562,0.10938 1.5,0.35938 1.23437,0.23437 1.89062,0.53125 0.65625,0.28125 1.09375,0.90625 0.4375,0.60937 0.4375,1.45312 0,1.1875 -0.82812,1.90625 -1.10938,0.9375 -2.82813,0.9375 -0.67187,0 -1.29687,-0.17187 -0.625,-0.15625 -1.21875,-0.46875 z m 11.53906,-5.09375 0,3.21875 q 0,0.51562 0.21875,0.67187 0.32813,0.26563 1.17188,0.26563 1.21875,0 2.26562,-0.53125 0.39063,-0.20313 0.625,-0.20313 0.3125,0 0.53125,0.23438 0.23438,0.23437 0.23438,0.57812 0,0.3125 -0.25,0.53125 -0.375,0.375 -1.51563,0.6875 -1.125,0.3125 -1.89062,0.3125 -1.5,0 -2.25,-0.64062 -0.73438,-0.65625 -0.73438,-1.59375 l 0,-3.53125 -0.57812,0 q -0.57813,0 -0.82813,-0.21875 -0.25,-0.21875 -0.25,-0.57813 0,-0.35937 0.25,-0.57812 0.25,-0.21875 0.82813,-0.21875 l 0.57812,0 0,-1.45313 q 0,-0.57812 0.21875,-0.8125 0.21875,-0.25 0.57813,-0.25 0.35937,0 0.57812,0.25 0.21875,0.23438 0.21875,0.8125 l 0,1.45313 2.96875,0 q 0.57813,0 0.8125,0.21875 0.25,0.21875 0.25,0.57812 0,0.35938 -0.25,0.57813 -0.23437,0.21875 -0.8125,0.21875 l -2.96875,0 z m 14.16406,2.07812 q 0,0.92188 -0.51562,1.79688 -0.51563,0.85937 -1.53125,1.375 -1,0.51562 -2.10938,0.51562 -1.09375,0 -2.09375,-0.5 -1,-0.51562 -1.53125,-1.375 -0.51562,-0.875 -0.51562,-1.82812 0,-0.95313 0.53125,-1.875 0.53125,-0.9375 1.53125,-1.46875 1,-0.53125 2.07812,-0.53125 1.09375,0 2.10938,0.54687 1.01562,0.54688 1.53125,1.46875 0.51562,0.90625 0.51562,1.875 z m -1.60937,0.0156 q 0,-0.78125 -0.54688,-1.42188 -0.76562,-0.875 -2,-0.875 -1.07812,0 -1.8125,0.70313 -0.71875,0.6875 -0.71875,1.59375 0,0.75 0.73438,1.40625 0.73437,0.65625 1.79687,0.65625 1.07813,0 1.8125,-0.65625 0.73438,-0.65625 0.73438,-1.40625 z m 6.71094,-3.6875 0,1 q 1.01562,-0.73438 1.59375,-0.96875 0.57812,-0.25 1.09375,-0.25 0.78125,0 1.51562,0.57812 0.5,0.39063 0.5,0.79688 0,0.34375 -0.25,0.59375 -0.23437,0.23437 -0.5625,0.23437 -0.29687,0 -0.625,-0.29687 -0.32812,-0.29688 -0.59375,-0.29688 -0.32812,0 -1,0.42188 -0.67187,0.42187 -1.67187,1.26562 l 0,2.40625 2.28125,0 q 0.57812,0 0.82812,0.23438 0.25,0.21875 0.25,0.57812 0,0.34375 -0.25,0.57813 -0.25,0.21875 -0.82812,0.21875 l -4.82813,0 q -0.57812,0 -0.82812,-0.21875 -0.25,-0.23438 -0.25,-0.59375 0,-0.34375 0.25,-0.5625 0.25,-0.23438 0.82812,-0.23438 l 0.95313,0 0,-3.89062 -0.57813,0 q -0.57812,0 -0.82812,-0.21875 -0.25,-0.21875 -0.25,-0.57813 0,-0.35937 0.25,-0.57812 0.25,-0.21875 0.82812,-0.21875 l 2.17188,0 z m 11.38281,7.09375 0,-0.375 q -0.60938,0.3125 -1.34375,0.46875 -0.71875,0.17187 -1.3125,0.17187 -1.28125,0 -2.09375,-0.6875 -0.79688,-0.6875 -0.79688,-1.51562 0,-1 1.01563,-1.85938 1.03125,-0.875 2.84375,-0.875 0.73437,0 1.6875,0.15625 l 0,-0.375 q 0,-0.35937 -0.3125,-0.57812 -0.3125,-0.23438 -1.17188,-0.23438 -0.71875,0 -1.84375,0.28125 -0.42187,0.0937 -0.65625,0.0937 -0.32812,0 -0.54687,-0.21875 -0.21875,-0.23437 -0.21875,-0.59375 0,-0.20312 0.0781,-0.34375 0.0781,-0.15625 0.21875,-0.25 0.14063,-0.0937 0.57813,-0.21875 0.59375,-0.15625 1.20312,-0.25 0.625,-0.10937 1.125,-0.10937 1.5,0 2.3125,0.65625 0.82813,0.64062 0.82813,1.75 l 0,3.29687 0.28125,0 q 0.57812,0 0.8125,0.23438 0.25,0.21875 0.25,0.57812 0,0.34375 -0.25,0.57813 -0.23438,0.21875 -0.8125,0.21875 l -1.875,0 z m 0,-2.875 q -0.96875,-0.1875 -1.78125,-0.1875 -0.96875,0 -1.67188,0.48437 -0.4375,0.29688 -0.4375,0.60938 0,0.23437 0.20313,0.375 0.39062,0.25 1.07812,0.25 0.57813,0 1.29688,-0.21875 0.73437,-0.23438 1.3125,-0.625 l 0,-0.6875 z m 9.91406,-3.75 0,-0.46875 1.875,0 q 0.57813,0 0.82813,0.21875 0.25,0.21875 0.25,0.57812 0,0.35938 -0.25,0.57813 -0.25,0.21875 -0.82813,0.21875 l -0.26562,0 0,5.84375 q 0,0.84375 -0.35938,1.46875 -0.35937,0.625 -1.09375,1.07812 -0.73437,0.45313 -1.65625,0.45313 l -1.8125,0 q -0.57812,0 -0.82812,-0.21875 -0.23438,-0.21875 -0.23438,-0.57813 0,-0.35937 0.23438,-0.57812 0.25,-0.21875 0.82812,-0.21875 l 1.76563,0 q 0.73437,0 1.14062,-0.40625 0.40625,-0.39063 0.40625,-1 l 0,-0.79688 q -0.53125,0.34375 -1.07812,0.51563 -0.54688,0.1875 -1.125,0.1875 -1.64063,0 -2.75,-1.09375 -1.09375,-1.09375 -1.09375,-2.70313 0,-1.60937 1.09375,-2.6875 1.10937,-1.09375 2.75,-1.09375 0.60937,0 1.15625,0.17188 0.54687,0.17187 1.04687,0.53125 z m 0,3.07812 q 0,-0.89062 -0.65625,-1.53125 -0.65625,-0.65625 -1.5625,-0.65625 -0.92187,0 -1.57812,0.65625 -0.64063,0.64063 -0.64063,1.53125 0,0.89063 0.64063,1.53125 0.65625,0.64063 1.57812,0.64063 0.90625,0 1.5625,-0.64063 0.65625,-0.64062 0.65625,-1.53125 z m 11.86719,0.8125 -6.57813,0 q 0.25,0.625 0.89063,1.01563 0.64062,0.375 1.71875,0.375 0.89062,0 2.375,-0.39063 0.60937,-0.15625 0.84375,-0.15625 0.3125,0 0.53125,0.23438 0.21875,0.21875 0.21875,0.5625 0,0.3125 -0.23438,0.53125 -0.3125,0.29687 -1.53125,0.5625 -1.20312,0.26562 -2.3125,0.26562 -1.92187,0 -3.07812,-1.09375 -1.15625,-1.09375 -1.15625,-2.67187 0,-1.6875 1.25,-2.75 1.25,-1.0625 2.875,-1.0625 0.96875,0 1.78125,0.34375 0.82812,0.34375 1.21875,0.75 0.5625,0.57812 0.9375,1.42187 0.25,0.59375 0.25,1.375 l 0,0.6875 z m -1.78125,-1.60937 q -0.35938,-0.6875 -0.95313,-1.01563 -0.59375,-0.34375 -1.42187,-0.34375 -0.8125,0 -1.40625,0.34375 -0.59375,0.32813 -0.96875,1.01563 l 4.75,0 z" />
  <path
     style="fill:#cccccc;fill-rule:nonzero"
     inkscape:connector-curvature="0"
     id="path89"
     d="m 561.85435,133.39122 0,0 c 0,-4.42416 3.58649,-8.01065 8.01062,-8.01065 l 87.28577,0 c 2.12457,0 4.16211,0.84399 5.66443,2.34628 1.50226,1.50229 2.34625,3.53983 2.34625,5.66437 l 0,32.04169 c 0,4.42416 -3.58649,8.01065 -8.01068,8.01065 l -87.28577,0 0,0 c -4.42413,0 -8.01062,-3.58649 -8.01062,-8.01065 z" />
  <path
     style="fill-rule:nonzero;stroke:#666666;stroke-width:1;stroke-linecap:butt;stroke-linejoin:round"
     inkscape:connector-curvature="0"
     id="path91"
     d="m 561.85435,133.39122 0,0 c 0,-4.42416 3.58649,-8.01065 8.01062,-8.01065 l 87.28577,0 c 2.12457,0 4.16211,0.84399 5.66443,2.34628 1.50226,1.50229 2.34625,3.53983 2.34625,5.66437 l 0,32.04169 c 0,4.42416 -3.58649,8.01065 -8.01068,8.01065 l -87.28577,0 0,0 c -4.42413,0 -8.01062,-3.58649 -8.01062,-8.01065 z" />
  <path
     style="fill:#000000;fill-rule:nonzero"
     inkscape:connector-curvature="0"
     id="path93"
     d="m 582.69926,148.81896 0,4.84375 0.57812,0 q 0.57813,0 0.82813,0.23438 0.25,0.21875 0.25,0.57812 0,0.34375 -0.25,0.57813 -0.25,0.21875 -0.82813,0.21875 l -2.09375,0 q -0.57812,0 -0.82812,-0.21875 -0.25,-0.23438 -0.25,-0.59375 0,-0.34375 0.23437,-0.5625 0.25,-0.23438 0.76563,-0.23438 l 0,-6.26562 -0.25,0 q -0.57813,0 -0.82813,-0.21875 -0.25,-0.21875 -0.25,-0.57813 0,-0.35937 0.25,-0.57812 0.25,-0.23438 0.82813,-0.23438 l 1.84375,0.0156 4.09375,6.42187 0,-4.82812 -0.57813,0 q -0.57812,0 -0.82812,-0.21875 -0.23438,-0.21875 -0.23438,-0.57813 0,-0.35937 0.23438,-0.57812 0.25,-0.23438 0.82812,-0.23438 l 2.10938,0.0156 q 0.57812,0 0.8125,0.21875 0.25,0.21875 0.25,0.57812 0,0.34375 -0.25,0.57813 -0.23438,0.21875 -0.73438,0.21875 l 0,7.875 -1.57812,0 -4.125,-6.45313 z m 15.63281,3.71875 -6.57812,0 q 0.25,0.625 0.89062,1.01563 0.64063,0.375 1.71875,0.375 0.89063,0 2.375,-0.39063 0.60938,-0.15625 0.84375,-0.15625 0.3125,0 0.53125,0.23438 0.21875,0.21875 0.21875,0.5625 0,0.3125 -0.23437,0.53125 -0.3125,0.29687 -1.53125,0.5625 -1.20313,0.26562 -2.3125,0.26562 -1.92188,0 -3.07813,-1.09375 -1.15625,-1.09375 -1.15625,-2.67187 0,-1.6875 1.25,-2.75 1.25,-1.0625 2.875,-1.0625 0.96875,0 1.78125,0.34375 0.82813,0.34375 1.21875,0.75 0.5625,0.57812 0.9375,1.42187 0.25,0.59375 0.25,1.375 l 0,0.6875 z m -1.78125,-1.60937 q -0.35937,-0.6875 -0.95312,-1.01563 -0.59375,-0.34375 -1.42188,-0.34375 -0.8125,0 -1.40625,0.34375 -0.59375,0.32813 -0.96875,1.01563 l 4.75,0 z m 6.96094,-1.15625 0,3.21875 q 0,0.51562 0.21875,0.67187 0.32812,0.26563 1.17187,0.26563 1.21875,0 2.26563,-0.53125 0.39062,-0.20313 0.625,-0.20313 0.3125,0 0.53125,0.23438 0.23437,0.23437 0.23437,0.57812 0,0.3125 -0.25,0.53125 -0.375,0.375 -1.51562,0.6875 -1.125,0.3125 -1.89063,0.3125 -1.5,0 -2.25,-0.64062 -0.73437,-0.65625 -0.73437,-1.59375 l 0,-3.53125 -0.57813,0 q -0.57812,0 -0.82812,-0.21875 -0.25,-0.21875 -0.25,-0.57813 0,-0.35937 0.25,-0.57812 0.25,-0.21875 0.82812,-0.21875 l 0.57813,0 0,-1.45313 q 0,-0.57812 0.21875,-0.8125 0.21875,-0.25 0.57812,-0.25 0.35938,0 0.57813,0.25 0.21875,0.23438 0.21875,0.8125 l 0,1.45313 2.96875,0 q 0.57812,0 0.8125,0.21875 0.25,0.21875 0.25,0.57812 0,0.35938 -0.25,0.57813 -0.23438,0.21875 -0.8125,0.21875 l -2.96875,0 z m 10.00781,2.54687 -1.10937,2.95313 -1.5,0 -1.34375,-5.5 q -0.4375,-0.0156 -0.67188,-0.23438 -0.21875,-0.23437 -0.21875,-0.5625 0,-0.35937 0.25,-0.57812 0.25,-0.21875 0.82813,-0.21875 l 1.48437,0 q 0.57813,0 0.82813,0.21875 0.25,0.21875 0.25,0.57812 0,0.35938 -0.28125,0.60938 -0.21875,0.1875 -0.82813,0.1875 l 0.60938,2.54687 0.98437,-2.60937 1.42188,0 1,2.60937 0.625,-2.54687 q -0.59375,0 -0.78125,-0.10938 -0.375,-0.25 -0.375,-0.6875 0,-0.35937 0.25,-0.57812 0.25,-0.21875 0.82812,-0.21875 l 1.5,0 q 0.57813,0 0.82813,0.21875 0.25,0.21875 0.25,0.57812 0,0.32813 -0.21875,0.54688 -0.21875,0.21875 -0.64063,0.25 l -1.3125,5.5 -1.48437,0 -1.17188,-2.95313 z m 13.75781,-0.46875 q 0,0.92188 -0.51562,1.79688 -0.51563,0.85937 -1.53125,1.375 -1,0.51562 -2.10938,0.51562 -1.09375,0 -2.09375,-0.5 -1,-0.51562 -1.53125,-1.375 -0.51562,-0.875 -0.51562,-1.82812 0,-0.95313 0.53125,-1.875 0.53125,-0.9375 1.53125,-1.46875 1,-0.53125 2.07812,-0.53125 1.09375,0 2.10938,0.54687 1.01562,0.54688 1.53125,1.46875 0.51562,0.90625 0.51562,1.875 z m -1.60937,0.0156 q 0,-0.78125 -0.54688,-1.42188 -0.76562,-0.875 -2,-0.875 -1.07812,0 -1.8125,0.70313 -0.71875,0.6875 -0.71875,1.59375 0,0.75 0.73438,1.40625 0.73437,0.65625 1.79687,0.65625 1.07813,0 1.8125,-0.65625 0.73438,-0.65625 0.73438,-1.40625 z m 6.71094,-3.6875 0,1 q 1.01562,-0.73438 1.59375,-0.96875 0.57812,-0.25 1.09375,-0.25 0.78125,0 1.51562,0.57812 0.5,0.39063 0.5,0.79688 0,0.34375 -0.25,0.59375 -0.23437,0.23437 -0.5625,0.23437 -0.29687,0 -0.625,-0.29687 -0.32812,-0.29688 -0.59375,-0.29688 -0.32812,0 -1,0.42188 -0.67187,0.42187 -1.67187,1.26562 l 0,2.40625 2.28125,0 q 0.57812,0 0.82812,0.23438 0.25,0.21875 0.25,0.57812 0,0.34375 -0.25,0.57813 -0.25,0.21875 -0.82812,0.21875 l -4.82813,0 q -0.57812,0 -0.82812,-0.21875 -0.25,-0.23438 -0.25,-0.59375 0,-0.34375 0.25,-0.5625 0.25,-0.23438 0.82812,-0.23438 l 0.95313,0 0,-3.89062 -0.57813,0 q -0.57812,0 -0.82812,-0.21875 -0.25,-0.21875 -0.25,-0.57813 0,-0.35937 0.25,-0.57812 0.25,-0.21875 0.82812,-0.21875 l 2.17188,0 z m 8.61718,4.42187 0,2.67188 -1.875,0 q -0.57812,0 -0.82812,-0.21875 -0.23438,-0.23438 -0.23438,-0.59375 0,-0.34375 0.25,-0.5625 0.25,-0.23438 0.8125,-0.23438 l 0.28125,0 0,-6.92187 -0.28125,0 q -0.57812,0 -0.82812,-0.21875 -0.23438,-0.23438 -0.23438,-0.59375 0,-0.34375 0.23438,-0.5625 0.25,-0.23438 0.82812,-0.23438 l 1.875,0 0,5.40625 1.25,-1.01562 q -0.1875,-0.32813 -0.1875,-0.54688 0,-0.35937 0.23438,-0.57812 0.25,-0.21875 0.82812,-0.21875 l 1.82813,0 q 0.57812,0 0.8125,0.21875 0.25,0.21875 0.25,0.57812 0,0.35938 -0.25,0.57813 -0.23438,0.21875 -0.8125,0.21875 l -0.45313,0 -1.9375,1.57812 2.60938,2.3125 0.46875,0 q 0.57812,0 0.82812,0.23438 0.25,0.21875 0.25,0.57812 0,0.34375 -0.25,0.57813 -0.25,0.21875 -0.82812,0.21875 l -1.84375,0 q -0.57813,0 -0.82813,-0.21875 -0.23437,-0.23438 -0.23437,-0.59375 0,-0.29688 0.26562,-0.59375 l -1.70312,-1.5 -0.29688,0.23437 z" />
  <path
     style="fill:#cccccc;fill-rule:nonzero"
     inkscape:connector-curvature="0"
     id="path95"
     d="m 184.74147,207.80464 0,0 c 0,-4.42419 3.58649,-8.01068 8.01065,-8.01068 l 74.46689,0 c 2.12454,0 4.16211,0.84399 5.6644,2.34625 1.50229,1.50232 2.34625,3.53986 2.34625,5.66443 l 0,32.04163 c 0,4.42419 -3.58649,8.01068 -8.01065,8.01068 l -74.46689,0 c -4.42416,0 -8.01065,-3.58649 -8.01065,-8.01068 z" />
  <path
     style="fill-rule:nonzero;stroke:#666666;stroke-width:1;stroke-linecap:butt;stroke-linejoin:round"
     inkscape:connector-curvature="0"
     id="path97"
     d="m 184.74147,207.80464 0,0 c 0,-4.42419 3.58649,-8.01068 8.01065,-8.01068 l 74.46689,0 c 2.12454,0 4.16211,0.84399 5.6644,2.34625 1.50229,1.50232 2.34625,3.53986 2.34625,5.66443 l 0,32.04163 c 0,4.42419 -3.58649,8.01068 -8.01065,8.01068 l -74.46689,0 c -4.42416,0 -8.01065,-3.58649 -8.01065,-8.01068 z" />
  <path
     style="fill:#000000;fill-rule:nonzero"
     inkscape:connector-curvature="0"
     id="path99"
     d="m 203.64964,229.27918 q -0.21875,0.25 -0.34375,0.32813 -0.125,0.0625 -0.3125,0.0625 -0.375,0 -0.59375,-0.25 -0.21875,-0.25 -0.21875,-0.8125 l 0,-1.07813 q 0,-0.57812 0.21875,-0.82812 0.21875,-0.25 0.59375,-0.25 0.28125,0 0.46875,0.15625 0.1875,0.14062 0.28125,0.5 0.10937,0.34375 0.21875,0.46875 0.23437,0.23437 0.8125,0.48437 0.57812,0.25 1.26562,0.25 1.0625,0 1.75,-0.5 0.4375,-0.29687 0.4375,-0.75 0,-0.29687 -0.21875,-0.54687 -0.20312,-0.26563 -0.67187,-0.4375 -0.3125,-0.125 -1.40625,-0.32813 -1.3125,-0.23437 -1.98438,-0.57812 -0.67187,-0.34375 -1.0625,-0.96875 -0.39062,-0.625 -0.39062,-1.35938 0,-1.14062 0.95312,-2 0.96875,-0.875 2.51563,-0.875 0.60937,0 1.14062,0.14063 0.53125,0.14062 0.95313,0.42187 0.3125,-0.3125 0.625,-0.3125 0.35937,0 0.57812,0.25 0.21875,0.25 0.21875,0.8125 l 0,1.20313 q 0,0.57812 -0.21875,0.82812 -0.21875,0.25 -0.57812,0.25 -0.29688,0 -0.51563,-0.1875 -0.17187,-0.125 -0.26562,-0.51562 -0.0781,-0.40625 -0.20313,-0.57813 -0.23437,-0.29687 -0.6875,-0.5 -0.45312,-0.20312 -1.04687,-0.20312 -0.85938,0 -1.375,0.40625 -0.5,0.39062 -0.5,0.82812 0,0.29688 0.20312,0.57813 0.21875,0.28125 0.60938,0.4375 0.26562,0.10937 1.5,0.35937 1.23437,0.23438 1.89062,0.53125 0.65625,0.28125 1.09375,0.90625 0.4375,0.60938 0.4375,1.45313 0,1.1875 -0.82812,1.90625 -1.10938,0.9375 -2.82813,0.9375 -0.67187,0 -1.29687,-0.17188 -0.625,-0.15625 -1.21875,-0.46875 z m 15.33594,-6.6875 0,5.48438 q 0.51562,0 0.75,0.23437 0.25,0.21875 0.25,0.57813 0,0.34375 -0.25,0.57812 -0.25,0.21875 -0.82813,0.21875 l -1.51562,0 0,-0.375 q -0.6875,0.3125 -1.3125,0.46875 -0.625,0.17188 -1.1875,0.17188 -0.79688,0 -1.375,-0.32813 -0.57813,-0.34375 -0.90625,-0.9375 -0.25,-0.42187 -0.25,-1.04687 l 0,-3.45313 -0.26563,0 q -0.57812,0 -0.82812,-0.21875 -0.25,-0.21875 -0.25,-0.57812 0,-0.35938 0.25,-0.57813 0.25,-0.21875 0.82812,-0.21875 l 1.875,0 0,4.76563 q 0,0.5 0.23438,0.75 0.25,0.23437 0.76562,0.23437 0.48438,0 1.03125,-0.1875 0.5625,-0.20312 1.39063,-0.70312 l 0,-3.26563 -0.57813,0 q -0.57812,0 -0.82812,-0.21875 -0.25,-0.21875 -0.25,-0.57812 0,-0.35938 0.25,-0.57813 0.25,-0.21875 0.82812,-0.21875 l 2.17188,0 z m 4.17968,-3.04687 0,3.59375 q 0.59375,-0.375 1.1875,-0.5625 0.60938,-0.20313 1.23438,-0.20313 1.65625,0 2.8125,1.15625 1.15625,1.14063 1.15625,2.76563 0,1.5625 -1.10938,2.60937 -1.09375,1.04688 -2.89062,1.04688 -0.64063,0 -1.23438,-0.17188 -0.59375,-0.17187 -1.15625,-0.48437 l 0,0.39062 -1.875,0 q -0.57812,0 -0.82812,-0.21875 -0.25,-0.23437 -0.25,-0.59375 0,-0.34375 0.25,-0.5625 0.26562,-0.23437 0.82812,-0.23437 l 0.28125,0 0,-6.92188 -0.28125,0 q -0.57812,0 -0.82812,-0.21875 -0.25,-0.23437 -0.25,-0.59375 0,-0.34375 0.25,-0.5625 0.25,-0.23437 0.82812,-0.23437 l 1.875,0 z m 4.79688,6.79687 q 0,-0.98437 -0.70313,-1.67187 -0.6875,-0.6875 -1.70312,-0.6875 -1,0 -1.70313,0.6875 -0.6875,0.6875 -0.6875,1.65625 0,0.875 0.625,1.45312 0.625,0.5625 1.76563,0.5625 1.14062,0 1.76562,-0.5625 0.64063,-0.57812 0.64063,-1.4375 z m 5.21094,-3.75 0,0.53125 q 0.4375,-0.375 0.95312,-0.5625 0.53125,-0.1875 1.15625,-0.1875 1.42188,0 2.25,0.89063 0.65625,0.70312 0.65625,1.84375 l 0,2.96875 q 0.5,0 0.73438,0.23437 0.25,0.21875 0.25,0.57813 0,0.34375 -0.25,0.57812 -0.23438,0.21875 -0.8125,0.21875 l -1.45313,0 q -0.57812,0 -0.82812,-0.21875 -0.23438,-0.23437 -0.23438,-0.59375 0,-0.34375 0.23438,-0.5625 0.25,-0.23437 0.75,-0.23437 l 0,-3.01563 q 0,-0.53125 -0.28125,-0.76562 -0.35938,-0.3125 -1.09375,-0.3125 -0.5625,0 -0.98438,0.21875 -0.40625,0.20312 -1.04687,0.90625 l 0,2.96875 q 0.60937,0 0.79687,0.125 0.375,0.23437 0.375,0.6875 0,0.34375 -0.25,0.57812 -0.23437,0.21875 -0.8125,0.21875 l -1.82812,0 q -0.57813,0 -0.82813,-0.21875 -0.23437,-0.23437 -0.23437,-0.59375 0,-0.4375 0.375,-0.67187 0.1875,-0.125 0.79687,-0.125 l 0,-3.89063 q -0.5,0 -0.75,-0.21875 -0.23437,-0.23437 -0.23437,-0.57812 0,-0.35938 0.23437,-0.57813 0.25,-0.21875 0.82813,-0.21875 l 1.53125,0 z m 15.24218,4.35938 -6.57812,0 q 0.25,0.625 0.89062,1.01562 0.64063,0.375 1.71875,0.375 0.89063,0 2.375,-0.39062 0.60938,-0.15625 0.84375,-0.15625 0.3125,0 0.53125,0.23437 0.21875,0.21875 0.21875,0.5625 0,0.3125 -0.23437,0.53125 -0.3125,0.29688 -1.53125,0.5625 -1.20313,0.26563 -2.3125,0.26563 -1.92188,0 -3.07813,-1.09375 -1.15625,-1.09375 -1.15625,-2.67188 0,-1.6875 1.25,-2.75 1.25,-1.0625 2.875,-1.0625 0.96875,0 1.78125,0.34375 0.82813,0.34375 1.21875,0.75 0.5625,0.57813 0.9375,1.42188 0.25,0.59375 0.25,1.375 l 0,0.6875 z m -1.78125,-1.60938 q -0.35937,-0.6875 -0.95312,-1.01562 -0.59375,-0.34375 -1.42188,-0.34375 -0.8125,0 -1.40625,0.34375 -0.59375,0.32812 -0.96875,1.01562 l 4.75,0 z m 6.96094,-1.15625 0,3.21875 q 0,0.51563 0.21875,0.67188 0.32813,0.26562 1.17188,0.26562 1.21875,0 2.26562,-0.53125 0.39063,-0.20312 0.625,-0.20312 0.3125,0 0.53125,0.23437 0.23438,0.23438 0.23438,0.57813 0,0.3125 -0.25,0.53125 -0.375,0.375 -1.51563,0.6875 -1.125,0.3125 -1.89062,0.3125 -1.5,0 -2.25,-0.64063 -0.73438,-0.65625 -0.73438,-1.59375 l 0,-3.53125 -0.57812,0 q -0.57813,0 -0.82813,-0.21875 -0.25,-0.21875 -0.25,-0.57812 0,-0.35938 0.25,-0.57813 0.25,-0.21875 0.82813,-0.21875 l 0.57812,0 0,-1.45312 q 0,-0.57813 0.21875,-0.8125 0.21875,-0.25 0.57813,-0.25 0.35937,0 0.57812,0.25 0.21875,0.23437 0.21875,0.8125 l 0,1.45312 2.96875,0 q 0.57813,0 0.8125,0.21875 0.25,0.21875 0.25,0.57813 0,0.35937 -0.25,0.57812 -0.23437,0.21875 -0.8125,0.21875 l -2.96875,0 z" />
  <path
     style="fill:#cccccc;fill-rule:nonzero"
     inkscape:connector-curvature="0"
     id="path101"
     d="m 60.97244,207.80464 0,0 c 0,-4.42419 3.5865,-8.01068 8.01067,-8.01068 l 56.48262,0 c 2.12455,0 4.16209,0.84399 5.66438,2.34625 1.50229,1.50232 2.34628,3.53986 2.34628,5.66443 l 0,32.04163 c 0,4.42419 -3.58652,8.01068 -8.01066,8.01068 l -56.48262,0 c -4.42417,0 -8.01067,-3.58649 -8.01067,-8.01068 z" />
  <path
     style="fill-rule:nonzero;stroke:#666666;stroke-width:1;stroke-linecap:butt;stroke-linejoin:round"
     inkscape:connector-curvature="0"
     id="path103"
     d="m 60.97244,207.80464 0,0 c 0,-4.42419 3.5865,-8.01068 8.01067,-8.01068 l 56.48262,0 c 2.12455,0 4.16209,0.84399 5.66438,2.34625 1.50229,1.50232 2.34628,3.53986 2.34628,5.66443 l 0,32.04163 c 0,4.42419 -3.58652,8.01068 -8.01066,8.01068 l -56.48262,0 c -4.42417,0 -8.01067,-3.58649 -8.01067,-8.01068 z" />
  <path
     style="fill:#000000;fill-rule:nonzero"
     inkscape:connector-curvature="0"
     id="path105"
     d="m 81.89628,226.43544 0,1.64062 1.625,0 q 0.57812,0 0.8125,0.23438 0.25,0.21875 0.25,0.57812 0,0.34375 -0.25,0.57813 -0.23438,0.21875 -0.8125,0.21875 l -3.46875,0 q -0.57813,0 -0.82813,-0.21875 -0.25,-0.23438 -0.25,-0.59375 0,-0.34375 0.25,-0.5625 0.25,-0.23438 0.82813,-0.23438 l 0.25,0 0,-6.26562 -0.25,0 q -0.57813,0 -0.82813,-0.21875 -0.25,-0.21875 -0.25,-0.57813 0,-0.35937 0.25,-0.57812 0.25,-0.23438 0.82813,-0.23438 l 3.6875,0.0156 q 1.625,0 2.5625,0.89062 0.95312,0.875 0.95312,2.15625 0,0.70313 -0.3125,1.32813 -0.25,0.46875 -0.8125,0.92187 -0.5625,0.45313 -1.15625,0.6875 -0.59375,0.23438 -1.5625,0.23438 l -1.51562,0 z m 0,-1.60938 1.48437,0 q 1.04688,0 1.65625,-0.46875 0.625,-0.46875 0.625,-1.14062 0,-0.5625 -0.5,-0.98438 -0.5,-0.42187 -1.42187,-0.42187 l -1.84375,0 0,3.01562 z m 14.69531,1.4375 q 0,0.92188 -0.51562,1.79688 -0.51563,0.85937 -1.53125,1.375 -1,0.51562 -2.10938,0.51562 -1.09375,0 -2.09375,-0.5 -1,-0.51562 -1.53125,-1.375 -0.51562,-0.875 -0.51562,-1.82812 0,-0.95313 0.53125,-1.875 0.53125,-0.9375 1.53125,-1.46875 1,-0.53125 2.07812,-0.53125 1.09375,0 2.10938,0.54687 1.01562,0.54688 1.53125,1.46875 0.51562,0.90625 0.51562,1.875 z m -1.60937,0.0156 q 0,-0.78125 -0.54688,-1.42188 -0.76562,-0.875 -2,-0.875 -1.07812,0 -1.8125,0.70313 -0.71875,0.6875 -0.71875,1.59375 0,0.75 0.73438,1.40625 0.73437,0.65625 1.79687,0.65625 1.07813,0 1.8125,-0.65625 0.73438,-0.65625 0.73438,-1.40625 z m 6.71093,-3.6875 0,1 q 1.01563,-0.73438 1.59375,-0.96875 0.57813,-0.25 1.09375,-0.25 0.78125,0 1.51563,0.57812 0.5,0.39063 0.5,0.79688 0,0.34375 -0.25,0.59375 -0.23438,0.23437 -0.5625,0.23437 -0.29688,0 -0.625,-0.29687 -0.32813,-0.29688 -0.59375,-0.29688 -0.32813,0 -1,0.42188 -0.67188,0.42187 -1.67188,1.26562 l 0,2.40625 2.28125,0 q 0.57813,0 0.82813,0.23438 0.25,0.21875 0.25,0.57812 0,0.34375 -0.25,0.57813 -0.25,0.21875 -0.82813,0.21875 l -4.82812,0 q -0.57813,0 -0.82813,-0.21875 -0.25,-0.23438 -0.25,-0.59375 0,-0.34375 0.25,-0.5625 0.25,-0.23438 0.82813,-0.23438 l 0.95312,0 0,-3.89062 -0.57812,0 q -0.57813,0 -0.82813,-0.21875 -0.25,-0.21875 -0.25,-0.57813 0,-0.35937 0.25,-0.57812 0.25,-0.21875 0.82813,-0.21875 l 2.17187,0 z m 9.53907,1.59375 0,3.21875 q 0,0.51562 0.21875,0.67187 0.32812,0.26563 1.17187,0.26563 1.21875,0 2.26563,-0.53125 0.39062,-0.20313 0.625,-0.20313 0.3125,0 0.53125,0.23438 0.23437,0.23437 0.23437,0.57812 0,0.3125 -0.25,0.53125 -0.375,0.375 -1.51562,0.6875 -1.125,0.3125 -1.89063,0.3125 -1.5,0 -2.25,-0.64062 -0.73437,-0.65625 -0.73437,-1.59375 l 0,-3.53125 -0.57813,0 q -0.57812,0 -0.82812,-0.21875 -0.25,-0.21875 -0.25,-0.57813 0,-0.35937 0.25,-0.57812 0.25,-0.21875 0.82812,-0.21875 l 0.57813,0 0,-1.45313 q 0,-0.57812 0.21875,-0.8125 0.21875,-0.25 0.57812,-0.25 0.35938,0 0.57813,0.25 0.21875,0.23438 0.21875,0.8125 l 0,1.45313 2.96875,0 q 0.57812,0 0.8125,0.21875 0.25,0.21875 0.25,0.57812 0,0.35938 -0.25,0.57813 -0.23438,0.21875 -0.8125,0.21875 l -2.96875,0 z" />
  <path
     style="fill:#cccccc;fill-rule:nonzero"
     inkscape:connector-curvature="0"
     id="path107"
     d="m 305.64962,207.80593 0,0 c 0,-4.42413 3.58649,-8.01068 8.01065,-8.01068 l 74.46686,0 c 2.12457,0 4.16211,0.84399 5.66443,2.34631 1.50226,1.50226 2.34625,3.5398 2.34625,5.66437 l 0,32.04168 c 0,4.42413 -3.58648,8.01069 -8.01068,8.01069 l -74.46686,0 c -4.42416,0 -8.01065,-3.58655 -8.01065,-8.01069 z" />
  <path
     style="fill-rule:nonzero;stroke:#666666;stroke-width:1;stroke-linecap:butt;stroke-linejoin:round"
     inkscape:connector-curvature="0"
     id="path109"
     d="m 305.64962,207.80593 0,0 c 0,-4.42413 3.58649,-8.01068 8.01065,-8.01068 l 74.46686,0 c 2.12457,0 4.16211,0.84399 5.66443,2.34631 1.50226,1.50226 2.34625,3.5398 2.34625,5.66437 l 0,32.04168 c 0,4.42413 -3.58648,8.01069 -8.01068,8.01069 l -74.46686,0 c -4.42416,0 -8.01065,-3.58655 -8.01065,-8.01069 z" />
  <path
     style="fill:#000000;fill-rule:nonzero"
     inkscape:connector-curvature="0"
     id="path111"
     d="m 325.24528,226.06178 0,2.01563 0.57813,0 q 0.57812,0 0.8125,0.23437 0.25,0.21875 0.25,0.57813 0,0.34375 -0.25,0.57812 -0.23438,0.21875 -0.8125,0.21875 l -2.4375,0 q -0.57813,0 -0.82813,-0.21875 -0.23437,-0.23437 -0.23437,-0.59375 0,-0.34375 0.25,-0.5625 0.25,-0.23437 0.8125,-0.23437 l 0.25,0 0,-6.26563 -0.25,0 q -0.57813,0 -0.82813,-0.21875 -0.23437,-0.21875 -0.23437,-0.57812 0,-0.35938 0.23437,-0.57813 0.25,-0.23437 0.82813,-0.23437 l 3.625,0.0156 q 1.70312,0 2.625,0.84375 0.9375,0.82813 0.9375,2.03125 0,0.75 -0.4375,1.375 -0.4375,0.60938 -1.3125,1.07813 0.5,0.45312 1.07812,1.14062 0.35938,0.45313 0.96875,1.39063 0.60938,0 0.8125,0.125 0.34375,0.25 0.34375,0.6875 0,0.34375 -0.25,0.57812 -0.23437,0.21875 -0.8125,0.21875 l -0.90625,0 q -1.95312,-3.01562 -3.23437,-3.625 l -1.57813,0 z m 0,-1.59375 1.25,0 q 0.6875,0 1.23438,-0.21875 0.73437,-0.28125 0.98437,-0.59375 0.26563,-0.3125 0.26563,-0.60937 0,-0.45313 -0.48438,-0.84375 -0.48437,-0.39063 -1.42187,-0.39063 l -1.82813,0 0,2.65625 z m 15.41406,1.79688 q 0,0.92187 -0.51562,1.79687 -0.51563,0.85938 -1.53125,1.375 -1,0.51563 -2.10938,0.51563 -1.09375,0 -2.09375,-0.5 -1,-0.51563 -1.53125,-1.375 -0.51562,-0.875 -0.51562,-1.82813 0,-0.95312 0.53125,-1.875 0.53125,-0.9375 1.53125,-1.46875 1,-0.53125 2.07812,-0.53125 1.09375,0 2.10938,0.54688 1.01562,0.54687 1.53125,1.46875 0.51562,0.90625 0.51562,1.875 z m -1.60937,0.0156 q 0,-0.78125 -0.54688,-1.42187 -0.76562,-0.875 -2,-0.875 -1.07812,0 -1.8125,0.70312 -0.71875,0.6875 -0.71875,1.59375 0,0.75 0.73438,1.40625 0.73437,0.65625 1.79687,0.65625 1.07813,0 1.8125,-0.65625 0.73438,-0.65625 0.73438,-1.40625 z m 10.44531,-3.6875 0,5.48438 q 0.51563,0 0.75,0.23437 0.25,0.21875 0.25,0.57813 0,0.34375 -0.25,0.57812 -0.25,0.21875 -0.82812,0.21875 l -1.51563,0 0,-0.375 q -0.6875,0.3125 -1.3125,0.46875 -0.625,0.17188 -1.1875,0.17188 -0.79687,0 -1.375,-0.32813 -0.57812,-0.34375 -0.90625,-0.9375 -0.25,-0.42187 -0.25,-1.04687 l 0,-3.45313 -0.26562,0 q -0.57813,0 -0.82813,-0.21875 -0.25,-0.21875 -0.25,-0.57812 0,-0.35938 0.25,-0.57813 0.25,-0.21875 0.82813,-0.21875 l 1.875,0 0,4.76563 q 0,0.5 0.23437,0.75 0.25,0.23437 0.76563,0.23437 0.48437,0 1.03125,-0.1875 0.5625,-0.20312 1.39062,-0.70312 l 0,-3.26563 -0.57812,0 q -0.57813,0 -0.82813,-0.21875 -0.25,-0.21875 -0.25,-0.57812 0,-0.35938 0.25,-0.57813 0.25,-0.21875 0.82813,-0.21875 l 2.17187,0 z m 5.80469,1.59375 0,3.21875 q 0,0.51563 0.21875,0.67188 0.32812,0.26562 1.17187,0.26562 1.21875,0 2.26563,-0.53125 0.39062,-0.20312 0.625,-0.20312 0.3125,0 0.53125,0.23437 0.23437,0.23438 0.23437,0.57813 0,0.3125 -0.25,0.53125 -0.375,0.375 -1.51562,0.6875 -1.125,0.3125 -1.89063,0.3125 -1.5,0 -2.25,-0.64063 -0.73437,-0.65625 -0.73437,-1.59375 l 0,-3.53125 -0.57813,0 q -0.57812,0 -0.82812,-0.21875 -0.25,-0.21875 -0.25,-0.57812 0,-0.35938 0.25,-0.57813 0.25,-0.21875 0.82812,-0.21875 l 0.57813,0 0,-1.45312 q 0,-0.57813 0.21875,-0.8125 0.21875,-0.25 0.57812,-0.25 0.35938,0 0.57813,0.25 0.21875,0.23437 0.21875,0.8125 l 0,1.45312 2.96875,0 q 0.57812,0 0.8125,0.21875 0.25,0.21875 0.25,0.57813 0,0.35937 -0.25,0.57812 -0.23438,0.21875 -0.8125,0.21875 l -2.96875,0 z m 14.02344,2.76563 -6.57813,0 q 0.25,0.625 0.89063,1.01562 0.64062,0.375 1.71875,0.375 0.89062,0 2.375,-0.39062 0.60937,-0.15625 0.84375,-0.15625 0.3125,0 0.53125,0.23437 0.21875,0.21875 0.21875,0.5625 0,0.3125 -0.23438,0.53125 -0.3125,0.29688 -1.53125,0.5625 -1.20312,0.26563 -2.3125,0.26563 -1.92187,0 -3.07812,-1.09375 -1.15625,-1.09375 -1.15625,-2.67188 0,-1.6875 1.25,-2.75 1.25,-1.0625 2.875,-1.0625 0.96875,0 1.78125,0.34375 0.82812,0.34375 1.21875,0.75 0.5625,0.57813 0.9375,1.42188 0.25,0.59375 0.25,1.375 l 0,0.6875 z m -1.78125,-1.60938 q -0.35938,-0.6875 -0.95313,-1.01562 -0.59375,-0.34375 -1.42187,-0.34375 -0.8125,0 -1.40625,0.34375 -0.59375,0.32812 -0.96875,1.01562 l 4.75,0 z m 7.02343,-2.75 0,1 q 1.01563,-0.73437 1.59375,-0.96875 0.57813,-0.25 1.09375,-0.25 0.78125,0 1.51563,0.57813 0.5,0.39062 0.5,0.79687 0,0.34375 -0.25,0.59375 -0.23438,0.23438 -0.5625,0.23438 -0.29688,0 -0.625,-0.29688 -0.32813,-0.29687 -0.59375,-0.29687 -0.32813,0 -1,0.42187 -0.67188,0.42188 -1.67188,1.26563 l 0,2.40625 2.28125,0 q 0.57813,0 0.82813,0.23437 0.25,0.21875 0.25,0.57813 0,0.34375 -0.25,0.57812 -0.25,0.21875 -0.82813,0.21875 l -4.82812,0 q -0.57813,0 -0.82813,-0.21875 -0.25,-0.23437 -0.25,-0.59375 0,-0.34375 0.25,-0.5625 0.25,-0.23437 0.82813,-0.23437 l 0.95312,0 0,-3.89063 -0.57812,0 q -0.57813,0 -0.82813,-0.21875 -0.25,-0.21875 -0.25,-0.57812 0,-0.35938 0.25,-0.57813 0.25,-0.21875 0.82813,-0.21875 l 2.17187,0 z" />
  <path
     style="fill:#cccccc;fill-rule:nonzero"
     inkscape:connector-curvature="0"
     id="path113"
     d="m 426.55772,204.99888 0,0 c 0,-4.42419 3.58655,-8.01068 8.01068,-8.01068 l 127.38025,0 c 2.12457,0 4.16211,0.84399 5.66443,2.34625 1.50226,1.50232 2.34625,3.53986 2.34625,5.66443 l 0,32.04169 c 0,4.42413 -3.58648,8.01062 -8.01068,8.01062 l -127.38025,0 c -4.42413,0 -8.01068,-3.58649 -8.01068,-8.01062 z" />
  <path
     style="fill-rule:nonzero;stroke:#666666;stroke-width:1;stroke-linecap:butt;stroke-linejoin:round"
     inkscape:connector-curvature="0"
     id="path115"
     d="m 426.55772,204.99888 0,0 c 0,-4.42419 3.58655,-8.01068 8.01068,-8.01068 l 127.38025,0 c 2.12457,0 4.16211,0.84399 5.66443,2.34625 1.50226,1.50232 2.34625,3.53986 2.34625,5.66443 l 0,32.04169 c 0,4.42413 -3.58648,8.01062 -8.01068,8.01062 l -127.38025,0 c -4.42413,0 -8.01068,-3.58649 -8.01068,-8.01062 z" />
  <path
     style="fill:#000000;fill-rule:nonzero"
     inkscape:connector-curvature="0"
     id="path117"
     d="m 444.78978,219.00468 0,6.26563 3.45313,0 0,-1.51563 q 0,-0.57812 0.21875,-0.8125 0.21875,-0.25 0.57812,-0.25 0.35938,0 0.57813,0.25 0.21875,0.23438 0.21875,0.8125 l 0,3.125 -7.57813,0 q -0.57812,0 -0.82812,-0.21875 -0.25,-0.23437 -0.25,-0.59375 0,-0.34375 0.25,-0.5625 0.25,-0.23437 0.82812,-0.23437 l 0.92188,0 0,-6.26563 -0.92188,0 q -0.57812,0 -0.82812,-0.21875 -0.25,-0.21875 -0.25,-0.57812 0,-0.35938 0.25,-0.57813 0.25,-0.23437 0.82812,-0.23437 l 3.46875,0.0156 q 0.57813,0 0.8125,0.21875 0.25,0.21875 0.25,0.57813 0,0.35937 -0.25,0.57812 -0.23437,0.21875 -0.8125,0.21875 l -0.9375,0 z m 14.42969,4.45313 q 0,0.92187 -0.51563,1.79687 -0.51562,0.85938 -1.53125,1.375 -1,0.51563 -2.10937,0.51563 -1.09375,0 -2.09375,-0.5 -1,-0.51563 -1.53125,-1.375 -0.51563,-0.875 -0.51563,-1.82813 0,-0.95312 0.53125,-1.875 0.53125,-0.9375 1.53125,-1.46875 1,-0.53125 2.07813,-0.53125 1.09375,0 2.10937,0.54688 1.01563,0.54687 1.53125,1.46875 0.51563,0.90625 0.51563,1.875 z m -1.60938,0.0156 q 0,-0.78125 -0.54687,-1.42187 -0.76563,-0.875 -2,-0.875 -1.07813,0 -1.8125,0.70312 -0.71875,0.6875 -0.71875,1.59375 0,0.75 0.73437,1.40625 0.73438,0.65625 1.79688,0.65625 1.07812,0 1.8125,-0.65625 0.73437,-0.65625 0.73437,-1.40625 z m 8.49219,3.40625 0,-0.375 q -0.60937,0.3125 -1.34375,0.46875 -0.71875,0.17188 -1.3125,0.17188 -1.28125,0 -2.09375,-0.6875 -0.79687,-0.6875 -0.79687,-1.51563 0,-1 1.01562,-1.85937 1.03125,-0.875 2.84375,-0.875 0.73438,0 1.6875,0.15625 l 0,-0.375 q 0,-0.35938 -0.3125,-0.57813 -0.3125,-0.23437 -1.17187,-0.23437 -0.71875,0 -1.84375,0.28125 -0.42188,0.0937 -0.65625,0.0937 -0.32813,0 -0.54688,-0.21875 -0.21875,-0.23438 -0.21875,-0.59375 0,-0.20313 0.0781,-0.34375 0.0781,-0.15625 0.21875,-0.25 0.14062,-0.0937 0.57812,-0.21875 0.59375,-0.15625 1.20313,-0.25 0.625,-0.10938 1.125,-0.10938 1.5,0 2.3125,0.65625 0.82812,0.64063 0.82812,1.75 l 0,3.29688 0.28125,0 q 0.57813,0 0.8125,0.23437 0.25,0.21875 0.25,0.57813 0,0.34375 -0.25,0.57812 -0.23437,0.21875 -0.8125,0.21875 l -1.875,0 z m 0,-2.875 q -0.96875,-0.1875 -1.78125,-0.1875 -0.96875,0 -1.67187,0.48438 -0.4375,0.29687 -0.4375,0.60937 0,0.23438 0.20312,0.375 0.39063,0.25 1.07813,0.25 0.57812,0 1.29687,-0.21875 0.73438,-0.23437 1.3125,-0.625 l 0,-0.6875 z m 11.83594,-7.26562 0,8.53125 0.26562,0 q 0.57813,0 0.82813,0.23437 0.25,0.21875 0.25,0.57813 0,0.34375 -0.25,0.57812 -0.25,0.21875 -0.82813,0.21875 l -1.875,0 0,-0.39062 q -0.54687,0.3125 -1.14062,0.48437 -0.59375,0.17188 -1.23438,0.17188 -1.8125,0 -2.92187,-1.04688 -1.09375,-1.04687 -1.09375,-2.60937 0,-1.625 1.15625,-2.76563 1.15625,-1.15625 2.82812,-1.15625 0.625,0 1.21875,0.20313 0.60938,0.1875 1.1875,0.5625 l 0,-1.98438 -0.26562,0 q -0.57813,0 -0.82813,-0.21875 -0.25,-0.23437 -0.25,-0.57812 0,-0.35938 0.25,-0.57813 0.25,-0.23437 0.82813,-0.23437 l 1.875,0 z m -1.60938,6.79687 q 0,-0.98437 -0.70312,-1.67187 -0.6875,-0.6875 -1.6875,-0.6875 -1,0 -1.70313,0.6875 -0.6875,0.6875 -0.6875,1.65625 0,0.875 0.625,1.45312 0.625,0.5625 1.76563,0.5625 1.125,0 1.75,-0.5625 0.64062,-0.57812 0.64062,-1.4375 z m 4.25782,1.73438 0,-6.26563 -0.25,0 q -0.57813,0 -0.82813,-0.21875 -0.23437,-0.21875 -0.23437,-0.57812 0,-0.35938 0.23437,-0.57813 0.25,-0.23437 0.82813,-0.23437 l 4.01562,0 q 1.4375,0 2.3125,0.8125 0.875,0.79687 0.875,1.89062 0,0.53125 -0.20312,1 -0.20313,0.45313 -0.60938,0.84375 0.75,0.45313 1.125,1.0625 0.39063,0.59375 0.39063,1.35938 0,0.60937 -0.28125,1.14062 -0.20313,0.39063 -0.5,0.625 -0.39063,0.32813 -0.96875,0.54688 -0.57813,0.20312 -1.45313,0.20312 l -4.70312,0 q -0.57813,0 -0.82813,-0.21875 -0.23437,-0.23437 -0.23437,-0.59375 0,-0.34375 0.25,-0.5625 0.25,-0.23437 0.8125,-0.23437 l 0.25,0 z m 1.60937,-3.9375 1.75,0 q 0.95313,0 1.57813,-0.46875 0.42187,-0.32813 0.42187,-0.79688 0,-0.42187 -0.40625,-0.73437 -0.39062,-0.32813 -1.26562,-0.32813 l -2.07813,0 0,2.32813 z m 0,3.9375 2.76563,0 q 0.96875,0 1.375,-0.28125 0.29687,-0.21875 0.29687,-0.625 0,-0.48438 -0.60937,-0.95313 -0.59375,-0.46875 -1.71875,-0.46875 l -2.10938,0 0,2.32813 z m 12.71094,1.60937 0,-0.375 q -0.60938,0.3125 -1.34375,0.46875 -0.71875,0.17188 -1.3125,0.17188 -1.28125,0 -2.09375,-0.6875 -0.79688,-0.6875 -0.79688,-1.51563 0,-1 1.01563,-1.85937 1.03125,-0.875 2.84375,-0.875 0.73437,0 1.6875,0.15625 l 0,-0.375 q 0,-0.35938 -0.3125,-0.57813 -0.3125,-0.23437 -1.17188,-0.23437 -0.71875,0 -1.84375,0.28125 -0.42187,0.0937 -0.65625,0.0937 -0.32812,0 -0.54687,-0.21875 -0.21875,-0.23438 -0.21875,-0.59375 0,-0.20313 0.0781,-0.34375 0.0781,-0.15625 0.21875,-0.25 0.14063,-0.0937 0.57813,-0.21875 0.59375,-0.15625 1.20312,-0.25 0.625,-0.10938 1.125,-0.10938 1.5,0 2.3125,0.65625 0.82813,0.64063 0.82813,1.75 l 0,3.29688 0.28125,0 q 0.57812,0 0.8125,0.23437 0.25,0.21875 0.25,0.57813 0,0.34375 -0.25,0.57812 -0.23438,0.21875 -0.8125,0.21875 l -1.875,0 z m 0,-2.875 q -0.96875,-0.1875 -1.78125,-0.1875 -0.96875,0 -1.67188,0.48438 -0.4375,0.29687 -0.4375,0.60937 0,0.23438 0.20313,0.375 0.39062,0.25 1.07812,0.25 0.57813,0 1.29688,-0.21875 0.73437,-0.23437 1.3125,-0.625 l 0,-0.6875 z m 8.96094,-7.26562 0,8.53125 1.92187,0 q 0.57813,0 0.8125,0.23437 0.25,0.21875 0.25,0.57813 0,0.34375 -0.25,0.57812 -0.23437,0.21875 -0.8125,0.21875 l -5.45312,0 q -0.57813,0 -0.82813,-0.21875 -0.23437,-0.23437 -0.23437,-0.59375 0,-0.34375 0.23437,-0.5625 0.25,-0.23437 0.82813,-0.23437 l 1.92187,0 0,-6.92188 -1.28125,0 q -0.57812,0 -0.82812,-0.21875 -0.25,-0.23437 -0.25,-0.59375 0,-0.34375 0.25,-0.5625 0.25,-0.23437 0.82812,-0.23437 l 2.89063,0 z m 10.24218,10.14062 0,-0.375 q -0.60937,0.3125 -1.34375,0.46875 -0.71875,0.17188 -1.3125,0.17188 -1.28125,0 -2.09375,-0.6875 -0.79687,-0.6875 -0.79687,-1.51563 0,-1 1.01562,-1.85937 1.03125,-0.875 2.84375,-0.875 0.73438,0 1.6875,0.15625 l 0,-0.375 q 0,-0.35938 -0.3125,-0.57813 -0.3125,-0.23437 -1.17187,-0.23437 -0.71875,0 -1.84375,0.28125 -0.42188,0.0937 -0.65625,0.0937 -0.32813,0 -0.54688,-0.21875 -0.21875,-0.23438 -0.21875,-0.59375 0,-0.20313 0.0781,-0.34375 0.0781,-0.15625 0.21875,-0.25 0.14062,-0.0937 0.57812,-0.21875 0.59375,-0.15625 1.20313,-0.25 0.625,-0.10938 1.125,-0.10938 1.5,0 2.3125,0.65625 0.82812,0.64063 0.82812,1.75 l 0,3.29688 0.28125,0 q 0.57813,0 0.8125,0.23437 0.25,0.21875 0.25,0.57813 0,0.34375 -0.25,0.57812 -0.23437,0.21875 -0.8125,0.21875 l -1.875,0 z m 0,-2.875 q -0.96875,-0.1875 -1.78125,-0.1875 -0.96875,0 -1.67187,0.48438 -0.4375,0.29687 -0.4375,0.60937 0,0.23438 0.20312,0.375 0.39063,0.25 1.07813,0.25 0.57812,0 1.29687,-0.21875 0.73438,-0.23437 1.3125,-0.625 l 0,-0.6875 z m 6.53907,-4.21875 0,0.53125 q 0.4375,-0.375 0.95312,-0.5625 0.53125,-0.1875 1.15625,-0.1875 1.42188,0 2.25,0.89063 0.65625,0.70312 0.65625,1.84375 l 0,2.96875 q 0.5,0 0.73438,0.23437 0.25,0.21875 0.25,0.57813 0,0.34375 -0.25,0.57812 -0.23438,0.21875 -0.8125,0.21875 l -1.45313,0 q -0.57812,0 -0.82812,-0.21875 -0.23438,-0.23437 -0.23438,-0.59375 0,-0.34375 0.23438,-0.5625 0.25,-0.23437 0.75,-0.23437 l 0,-3.01563 q 0,-0.53125 -0.28125,-0.76562 -0.35938,-0.3125 -1.09375,-0.3125 -0.5625,0 -0.98438,0.21875 -0.40625,0.20312 -1.04687,0.90625 l 0,2.96875 q 0.60937,0 0.79687,0.125 0.375,0.23437 0.375,0.6875 0,0.34375 -0.25,0.57812 -0.23437,0.21875 -0.8125,0.21875 l -1.82812,0 q -0.57813,0 -0.82813,-0.21875 -0.23437,-0.23437 -0.23437,-0.59375 0,-0.4375 0.375,-0.67187 0.1875,-0.125 0.79687,-0.125 l 0,-3.89063 q -0.5,0 -0.75,-0.21875 -0.23437,-0.23437 -0.23437,-0.57812 0,-0.35938 0.23437,-0.57813 0.25,-0.21875 0.82813,-0.21875 l 1.53125,0 z m 13.71093,0.28125 q 0.29688,-0.26562 0.59375,-0.26562 0.34375,0 0.5625,0.25 0.23438,0.23437 0.23438,0.8125 l 0,1.03125 q 0,0.57812 -0.23438,0.82812 -0.21875,0.23438 -0.57812,0.23438 -0.32813,0 -0.54688,-0.1875 -0.17187,-0.14063 -0.26562,-0.57813 -0.0937,-0.4375 -0.45313,-0.64062 -0.625,-0.375 -1.60937,-0.375 -1.14063,0 -1.82813,0.67187 -0.67187,0.65625 -0.67187,1.67188 0,0.9375 0.65625,1.48437 0.65625,0.53125 2.17187,0.53125 1,0 1.64063,-0.20312 0.375,-0.125 0.70312,-0.42188 0.34375,-0.29687 0.60938,-0.29687 0.32812,0 0.5625,0.25 0.25,0.23437 0.25,0.5625 0,0.53125 -0.73438,1 -1.07812,0.71875 -3.15625,0.71875 -1.85937,0 -2.90625,-0.78125 -1.40625,-1.03125 -1.40625,-2.84375 0,-1.70313 1.14063,-2.82813 1.14062,-1.125 2.98437,-1.125 0.65625,0 1.21875,0.125 0.57813,0.125 1.0625,0.375 z m 11.13282,4.07813 -6.57813,0 q 0.25,0.625 0.89063,1.01562 0.64062,0.375 1.71875,0.375 0.89062,0 2.375,-0.39062 0.60937,-0.15625 0.84375,-0.15625 0.3125,0 0.53125,0.23437 0.21875,0.21875 0.21875,0.5625 0,0.3125 -0.23438,0.53125 -0.3125,0.29688 -1.53125,0.5625 -1.20312,0.26563 -2.3125,0.26563 -1.92187,0 -3.07812,-1.09375 -1.15625,-1.09375 -1.15625,-2.67188 0,-1.6875 1.25,-2.75 1.25,-1.0625 2.875,-1.0625 0.96875,0 1.78125,0.34375 0.82812,0.34375 1.21875,0.75 0.5625,0.57813 0.9375,1.42188 0.25,0.59375 0.25,1.375 l 0,0.6875 z m -1.78125,-1.60938 q -0.35938,-0.6875 -0.95313,-1.01562 -0.59375,-0.34375 -1.42187,-0.34375 -0.8125,0 -1.40625,0.34375 -0.59375,0.32812 -0.96875,1.01562 l 4.75,0 z m 7.02343,-2.75 0,1 q 1.01563,-0.73437 1.59375,-0.96875 0.57813,-0.25 1.09375,-0.25 0.78125,0 1.51563,0.57813 0.5,0.39062 0.5,0.79687 0,0.34375 -0.25,0.59375 -0.23438,0.23438 -0.5625,0.23438 -0.29688,0 -0.625,-0.29688 -0.32813,-0.29687 -0.59375,-0.29687 -0.32813,0 -1,0.42187 -0.67188,0.42188 -1.67188,1.26563 l 0,2.40625 2.28125,0 q 0.57813,0 0.82813,0.23437 0.25,0.21875 0.25,0.57813 0,0.34375 -0.25,0.57812 -0.25,0.21875 -0.82813,0.21875 l -4.82812,0 q -0.57813,0 -0.82813,-0.21875 -0.25,-0.23437 -0.25,-0.59375 0,-0.34375 0.25,-0.5625 0.25,-0.23437 0.82813,-0.23437 l 0.95312,0 0,-3.89063 -0.57812,0 q -0.57813,0 -0.82813,-0.21875 -0.25,-0.21875 -0.25,-0.57812 0,-0.35938 0.25,-0.57813 0.25,-0.21875 0.82813,-0.21875 l 2.17187,0 z" />
  <path
     style="fill:#cccccc;fill-rule:nonzero"
     inkscape:connector-curvature="0"
     id="path119"
     d="m 163.79658,282.22068 0,0 c 0,-4.42419 3.58652,-8.01068 8.01068,-8.01068 l 127.38025,0 c 2.12454,0 4.16211,0.84399 5.6644,2.34625 1.50229,1.50232 2.34625,3.53986 2.34625,5.66443 l 0,32.04163 c 0,4.42419 -3.58649,8.01068 -8.01065,8.01068 l -127.38025,0 c -4.42416,0 -8.01068,-3.58649 -8.01068,-8.01068 z" />
  <path
     style="fill-rule:nonzero;stroke:#666666;stroke-width:1;stroke-linecap:butt;stroke-linejoin:round"
     inkscape:connector-curvature="0"
     id="path121"
     d="m 163.79658,282.22068 0,0 c 0,-4.42419 3.58652,-8.01068 8.01068,-8.01068 l 127.38025,0 c 2.12454,0 4.16211,0.84399 5.6644,2.34625 1.50229,1.50232 2.34625,3.53986 2.34625,5.66443 l 0,32.04163 c 0,4.42419 -3.58649,8.01068 -8.01065,8.01068 l -127.38025,0 c -4.42416,0 -8.01068,-3.58649 -8.01068,-8.01068 z" />
  <path
     style="fill:#000000;fill-rule:nonzero"
     inkscape:connector-curvature="0"
     id="path123"
     d="m 197.08722,301.75768 2.32812,-5.53125 -0.375,0 q -0.57812,0 -0.82812,-0.21875 -0.23438,-0.21875 -0.23438,-0.57813 0,-0.35937 0.23438,-0.57812 0.25,-0.23438 0.82812,-0.23438 l 2.15625,0.0156 q 0.57813,0 0.8125,0.21875 0.25,0.21875 0.25,0.57812 0,0.42188 -0.375,0.67188 -0.17187,0.125 -0.73437,0.125 l -3.28125,7.875 -1.54688,0 -3.28125,-7.875 q -0.5625,0 -0.73437,-0.125 -0.39063,-0.23438 -0.39063,-0.67188 0,-0.35937 0.25,-0.57812 0.25,-0.23438 0.82813,-0.23438 l 2.17187,0.0156 q 0.5625,0 0.8125,0.21875 0.25,0.21875 0.25,0.57812 0,0.35938 -0.25,0.57813 -0.23437,0.21875 -0.8125,0.21875 l -0.375,0 2.29688,5.53125 z m 10.17969,-7.79688 0,1.70313 -1.90625,0 0,-1.70313 1.90625,0 z m 0.21875,3.04688 0,5.48437 1.92187,0 q 0.57813,0 0.82813,0.23438 0.25,0.21875 0.25,0.57812 0,0.34375 -0.25,0.57813 -0.25,0.21875 -0.82813,0.21875 l -5.4375,0 q -0.57812,0 -0.82812,-0.21875 -0.25,-0.23438 -0.25,-0.59375 0,-0.34375 0.25,-0.5625 0.25,-0.23438 0.82812,-0.23438 l 1.92188,0 0,-3.89062 -1.29688,0 q -0.5625,0 -0.8125,-0.21875 -0.25,-0.21875 -0.25,-0.57813 0,-0.35937 0.23438,-0.57812 0.25,-0.21875 0.82812,-0.21875 l 2.89063,0 z m 8.47656,0 0,1 q 1.01562,-0.73438 1.59375,-0.96875 0.57812,-0.25 1.09375,-0.25 0.78125,0 1.51562,0.57812 0.5,0.39063 0.5,0.79688 0,0.34375 -0.25,0.59375 -0.23437,0.23437 -0.5625,0.23437 -0.29687,0 -0.625,-0.29687 -0.32812,-0.29688 -0.59375,-0.29688 -0.32812,0 -1,0.42188 -0.67187,0.42187 -1.67187,1.26562 l 0,2.40625 2.28125,0 q 0.57812,0 0.82812,0.23438 0.25,0.21875 0.25,0.57812 0,0.34375 -0.25,0.57813 -0.25,0.21875 -0.82812,0.21875 l -4.82813,0 q -0.57812,0 -0.82812,-0.21875 -0.25,-0.23438 -0.25,-0.59375 0,-0.34375 0.25,-0.5625 0.25,-0.23438 0.82812,-0.23438 l 0.95313,0 0,-3.89062 -0.57813,0 q -0.57812,0 -0.82812,-0.21875 -0.25,-0.21875 -0.25,-0.57813 0,-0.35937 0.25,-0.57812 0.25,-0.21875 0.82812,-0.21875 l 2.17188,0 z m 9.53906,1.59375 0,3.21875 q 0,0.51562 0.21875,0.67187 0.32813,0.26563 1.17188,0.26563 1.21875,0 2.26562,-0.53125 0.39063,-0.20313 0.625,-0.20313 0.3125,0 0.53125,0.23438 0.23438,0.23437 0.23438,0.57812 0,0.3125 -0.25,0.53125 -0.375,0.375 -1.51563,0.6875 -1.125,0.3125 -1.89062,0.3125 -1.5,0 -2.25,-0.64062 -0.73438,-0.65625 -0.73438,-1.59375 l 0,-3.53125 -0.57812,0 q -0.57813,0 -0.82813,-0.21875 -0.25,-0.21875 -0.25,-0.57813 0,-0.35937 0.25,-0.57812 0.25,-0.21875 0.82813,-0.21875 l 0.57812,0 0,-1.45313 q 0,-0.57812 0.21875,-0.8125 0.21875,-0.25 0.57813,-0.25 0.35937,0 0.57812,0.25 0.21875,0.23438 0.21875,0.8125 l 0,1.45313 2.96875,0 q 0.57813,0 0.8125,0.21875 0.25,0.21875 0.25,0.57812 0,0.35938 -0.25,0.57813 -0.23437,0.21875 -0.8125,0.21875 l -2.96875,0 z m 13.39844,-1.59375 0,5.48437 q 0.51562,0 0.75,0.23438 0.25,0.21875 0.25,0.57812 0,0.34375 -0.25,0.57813 -0.25,0.21875 -0.82813,0.21875 l -1.51562,0 0,-0.375 q -0.6875,0.3125 -1.3125,0.46875 -0.625,0.17187 -1.1875,0.17187 -0.79688,0 -1.375,-0.32812 -0.57813,-0.34375 -0.90625,-0.9375 -0.25,-0.42188 -0.25,-1.04688 l 0,-3.45312 -0.26563,0 q -0.57812,0 -0.82812,-0.21875 -0.25,-0.21875 -0.25,-0.57813 0,-0.35937 0.25,-0.57812 0.25,-0.21875 0.82812,-0.21875 l 1.875,0 0,4.76562 q 0,0.5 0.23438,0.75 0.25,0.23438 0.76562,0.23438 0.48438,0 1.03125,-0.1875 0.5625,-0.20313 1.39063,-0.70313 l 0,-3.26562 -0.57813,0 q -0.57812,0 -0.82812,-0.21875 -0.25,-0.21875 -0.25,-0.57813 0,-0.35937 0.25,-0.57812 0.25,-0.21875 0.82812,-0.21875 l 2.17188,0 z m 7.64844,7.09375 0,-0.375 q -0.60938,0.3125 -1.34375,0.46875 -0.71875,0.17187 -1.3125,0.17187 -1.28125,0 -2.09375,-0.6875 -0.79688,-0.6875 -0.79688,-1.51562 0,-1 1.01563,-1.85938 1.03125,-0.875 2.84375,-0.875 0.73437,0 1.6875,0.15625 l 0,-0.375 q 0,-0.35937 -0.3125,-0.57812 -0.3125,-0.23438 -1.17188,-0.23438 -0.71875,0 -1.84375,0.28125 -0.42187,0.0937 -0.65625,0.0937 -0.32812,0 -0.54687,-0.21875 -0.21875,-0.23437 -0.21875,-0.59375 0,-0.20312 0.0781,-0.34375 0.0781,-0.15625 0.21875,-0.25 0.14063,-0.0937 0.57813,-0.21875 0.59375,-0.15625 1.20312,-0.25 0.625,-0.10937 1.125,-0.10937 1.5,0 2.3125,0.65625 0.82813,0.64062 0.82813,1.75 l 0,3.29687 0.28125,0 q 0.57812,0 0.8125,0.23438 0.25,0.21875 0.25,0.57812 0,0.34375 -0.25,0.57813 -0.23438,0.21875 -0.8125,0.21875 l -1.875,0 z m 0,-2.875 q -0.96875,-0.1875 -1.78125,-0.1875 -0.96875,0 -1.67188,0.48437 -0.4375,0.29688 -0.4375,0.60938 0,0.23437 0.20313,0.375 0.39062,0.25 1.07812,0.25 0.57813,0 1.29688,-0.21875 0.73437,-0.23438 1.3125,-0.625 l 0,-0.6875 z m 8.96093,-7.26563 0,8.53125 1.92188,0 q 0.57812,0 0.8125,0.23438 0.25,0.21875 0.25,0.57812 0,0.34375 -0.25,0.57813 -0.23438,0.21875 -0.8125,0.21875 l -5.45313,0 q -0.57812,0 -0.82812,-0.21875 -0.23438,-0.23438 -0.23438,-0.59375 0,-0.34375 0.23438,-0.5625 0.25,-0.23438 0.82812,-0.23438 l 1.92188,0 0,-6.92187 -1.28125,0 q -0.57813,0 -0.82813,-0.21875 -0.25,-0.23438 -0.25,-0.59375 0,-0.34375 0.25,-0.5625 0.25,-0.23438 0.82813,-0.23438 l 2.89062,0 z m 9.60157,2.26563 0,6.26562 1.60937,0 q 0.57813,0 0.82813,0.23438 0.25,0.21875 0.25,0.57812 0,0.34375 -0.25,0.57813 -0.25,0.21875 -0.82813,0.21875 l -4.82812,0 q -0.57813,0 -0.82813,-0.21875 -0.25,-0.23438 -0.25,-0.59375 0,-0.34375 0.25,-0.5625 0.25,-0.23438 0.82813,-0.23438 l 1.60937,0 0,-6.26562 -1.60937,0 q -0.57813,0 -0.82813,-0.21875 -0.25,-0.21875 -0.25,-0.57813 0,-0.35937 0.25,-0.57812 0.25,-0.23438 0.82813,-0.23438 l 4.82812,0.0156 q 0.57813,0 0.82813,0.21875 0.25,0.21875 0.25,0.57812 0,0.35938 -0.25,0.57813 -0.25,0.21875 -0.82813,0.21875 l -1.60937,0 z m 7.86718,4.625 0,1.64062 1.625,0 q 0.57813,0 0.8125,0.23438 0.25,0.21875 0.25,0.57812 0,0.34375 -0.25,0.57813 -0.23437,0.21875 -0.8125,0.21875 l -3.46875,0 q -0.57812,0 -0.82812,-0.21875 -0.25,-0.23438 -0.25,-0.59375 0,-0.34375 0.25,-0.5625 0.25,-0.23438 0.82812,-0.23438 l 0.25,0 0,-6.26562 -0.25,0 q -0.57812,0 -0.82812,-0.21875 -0.25,-0.21875 -0.25,-0.57813 0,-0.35937 0.25,-0.57812 0.25,-0.23438 0.82812,-0.23438 l 3.6875,0.0156 q 1.625,0 2.5625,0.89062 0.95313,0.875 0.95313,2.15625 0,0.70313 -0.3125,1.32813 -0.25,0.46875 -0.8125,0.92187 -0.5625,0.45313 -1.15625,0.6875 -0.59375,0.23438 -1.5625,0.23438 l -1.51563,0 z m 0,-1.60938 1.48438,0 q 1.04687,0 1.65625,-0.46875 0.625,-0.46875 0.625,-1.14062 0,-0.5625 -0.5,-0.98438 -0.5,-0.42187 -1.42188,-0.42187 l -1.84375,0 0,3.01562 z" />
  <path
     style="fill:#cccccc;fill-rule:nonzero"
     inkscape:connector-curvature="0"
     id="path125"
     d="m 355.14567,282.22068 0,0 c 0,-4.42419 3.58649,-8.01068 8.01065,-8.01068 l 144.23068,0 c 2.12451,0 4.16205,0.84399 5.66437,2.34625 1.50232,1.50232 2.34625,3.53986 2.34625,5.66443 l 0,32.04163 c 0,4.42419 -3.58649,8.01068 -8.01062,8.01068 l -144.23068,0 c -4.42416,0 -8.01065,-3.58649 -8.01065,-8.01068 z" />
  <path
     style="fill-rule:nonzero;stroke:#666666;stroke-width:1;stroke-linecap:butt;stroke-linejoin:round"
     inkscape:connector-curvature="0"
     id="path127"
     d="m 355.14567,282.22068 0,0 c 0,-4.42419 3.58649,-8.01068 8.01065,-8.01068 l 144.23068,0 c 2.12451,0 4.16205,0.84399 5.66437,2.34625 1.50232,1.50232 2.34625,3.53986 2.34625,5.66443 l 0,32.04163 c 0,4.42419 -3.58649,8.01068 -8.01062,8.01068 l -144.23068,0 c -4.42416,0 -8.01065,-3.58649 -8.01065,-8.01068 z" />
  <path
     style="fill:#000000;fill-rule:nonzero"
     inkscape:connector-curvature="0"
     id="path129"
     d="m 375.33024,303.69518 q -0.21875,0.25 -0.34375,0.32812 -0.125,0.0625 -0.3125,0.0625 -0.375,0 -0.59375,-0.25 -0.21875,-0.25 -0.21875,-0.8125 l 0,-1.07812 q 0,-0.57813 0.21875,-0.82813 0.21875,-0.25 0.59375,-0.25 0.28125,0 0.46875,0.15625 0.1875,0.14063 0.28125,0.5 0.10937,0.34375 0.21875,0.46875 0.23437,0.23438 0.8125,0.48438 0.57812,0.25 1.26562,0.25 1.0625,0 1.75,-0.5 0.4375,-0.29688 0.4375,-0.75 0,-0.29688 -0.21875,-0.54688 -0.20312,-0.26562 -0.67187,-0.4375 -0.3125,-0.125 -1.40625,-0.32812 -1.3125,-0.23438 -1.98438,-0.57813 -0.67187,-0.34375 -1.0625,-0.96875 -0.39062,-0.625 -0.39062,-1.35937 0,-1.14063 0.95312,-2 0.96875,-0.875 2.51563,-0.875 0.60937,0 1.14062,0.14062 0.53125,0.14063 0.95313,0.42188 0.3125,-0.3125 0.625,-0.3125 0.35937,0 0.57812,0.25 0.21875,0.25 0.21875,0.8125 l 0,1.20312 q 0,0.57813 -0.21875,0.82813 -0.21875,0.25 -0.57812,0.25 -0.29688,0 -0.51563,-0.1875 -0.17187,-0.125 -0.26562,-0.51563 -0.0781,-0.40625 -0.20313,-0.57812 -0.23437,-0.29688 -0.6875,-0.5 -0.45312,-0.20313 -1.04687,-0.20313 -0.85938,0 -1.375,0.40625 -0.5,0.39063 -0.5,0.82813 0,0.29687 0.20312,0.57812 0.21875,0.28125 0.60938,0.4375 0.26562,0.10938 1.5,0.35938 1.23437,0.23437 1.89062,0.53125 0.65625,0.28125 1.09375,0.90625 0.4375,0.60937 0.4375,1.45312 0,1.1875 -0.82812,1.90625 -1.10938,0.9375 -2.82813,0.9375 -0.67187,0 -1.29687,-0.17187 -0.625,-0.15625 -1.21875,-0.46875 z m 15.96094,-2.32813 -6.57813,0 q 0.25,0.625 0.89063,1.01563 0.64062,0.375 1.71875,0.375 0.89062,0 2.375,-0.39063 0.60937,-0.15625 0.84375,-0.15625 0.3125,0 0.53125,0.23438 0.21875,0.21875 0.21875,0.5625 0,0.3125 -0.23438,0.53125 -0.3125,0.29687 -1.53125,0.5625 -1.20312,0.26562 -2.3125,0.26562 -1.92187,0 -3.07812,-1.09375 -1.15625,-1.09375 -1.15625,-2.67187 0,-1.6875 1.25,-2.75 1.25,-1.0625 2.875,-1.0625 0.96875,0 1.78125,0.34375 0.82812,0.34375 1.21875,0.75 0.5625,0.57812 0.9375,1.42187 0.25,0.59375 0.25,1.375 l 0,0.6875 z m -1.78125,-1.60937 q -0.35938,-0.6875 -0.95313,-1.01563 -0.59375,-0.34375 -1.42187,-0.34375 -0.8125,0 -1.40625,0.34375 -0.59375,0.32813 -0.96875,1.01563 l 4.75,0 z m 9.85156,-2.46875 q 0.29687,-0.26563 0.59375,-0.26563 0.34375,0 0.5625,0.25 0.23437,0.23438 0.23437,0.8125 l 0,1.03125 q 0,0.57813 -0.23437,0.82813 -0.21875,0.23437 -0.57813,0.23437 -0.32812,0 -0.54687,-0.1875 -0.17188,-0.14062 -0.26563,-0.57812 -0.0937,-0.4375 -0.45312,-0.64063 -0.625,-0.375 -1.60938,-0.375 -1.14062,0 -1.82812,0.67188 -0.67188,0.65625 -0.67188,1.67187 0,0.9375 0.65625,1.48438 0.65625,0.53125 2.17188,0.53125 1,0 1.64062,-0.20313 0.375,-0.125 0.70313,-0.42187 0.34375,-0.29688 0.60937,-0.29688 0.32813,0 0.5625,0.25 0.25,0.23438 0.25,0.5625 0,0.53125 -0.73437,1 -1.07813,0.71875 -3.15625,0.71875 -1.85938,0 -2.90625,-0.78125 -1.40625,-1.03125 -1.40625,-2.84375 0,-1.70312 1.14062,-2.82812 1.14063,-1.125 2.98438,-1.125 0.65625,0 1.21875,0.125 0.57812,0.125 1.0625,0.375 z m 10.50781,-0.28125 0,5.48437 q 0.51563,0 0.75,0.23438 0.25,0.21875 0.25,0.57812 0,0.34375 -0.25,0.57813 -0.25,0.21875 -0.82812,0.21875 l -1.51563,0 0,-0.375 q -0.6875,0.3125 -1.3125,0.46875 -0.625,0.17187 -1.1875,0.17187 -0.79687,0 -1.375,-0.32812 -0.57812,-0.34375 -0.90625,-0.9375 -0.25,-0.42188 -0.25,-1.04688 l 0,-3.45312 -0.26562,0 q -0.57813,0 -0.82813,-0.21875 -0.25,-0.21875 -0.25,-0.57813 0,-0.35937 0.25,-0.57812 0.25,-0.21875 0.82813,-0.21875 l 1.875,0 0,4.76562 q 0,0.5 0.23437,0.75 0.25,0.23438 0.76563,0.23438 0.48437,0 1.03125,-0.1875 0.5625,-0.20313 1.39062,-0.70313 l 0,-3.26562 -0.57812,0 q -0.57813,0 -0.82813,-0.21875 -0.25,-0.21875 -0.25,-0.57813 0,-0.35937 0.25,-0.57812 0.25,-0.21875 0.82813,-0.21875 l 2.17187,0 z m 5.86719,0 0,1 q 1.01562,-0.73438 1.59375,-0.96875 0.57812,-0.25 1.09375,-0.25 0.78125,0 1.51562,0.57812 0.5,0.39063 0.5,0.79688 0,0.34375 -0.25,0.59375 -0.23437,0.23437 -0.5625,0.23437 -0.29687,0 -0.625,-0.29687 -0.32812,-0.29688 -0.59375,-0.29688 -0.32812,0 -1,0.42188 -0.67187,0.42187 -1.67187,1.26562 l 0,2.40625 2.28125,0 q 0.57812,0 0.82812,0.23438 0.25,0.21875 0.25,0.57812 0,0.34375 -0.25,0.57813 -0.25,0.21875 -0.82812,0.21875 l -4.82813,0 q -0.57812,0 -0.82812,-0.21875 -0.25,-0.23438 -0.25,-0.59375 0,-0.34375 0.25,-0.5625 0.25,-0.23438 0.82812,-0.23438 l 0.95313,0 0,-3.89062 -0.57813,0 q -0.57812,0 -0.82812,-0.21875 -0.25,-0.21875 -0.25,-0.57813 0,-0.35937 0.25,-0.57812 0.25,-0.21875 0.82812,-0.21875 l 2.17188,0 z m 10.50781,-3.04688 0,1.70313 -1.90625,0 0,-1.70313 1.90625,0 z m 0.21875,3.04688 0,5.48437 1.92188,0 q 0.57812,0 0.82812,0.23438 0.25,0.21875 0.25,0.57812 0,0.34375 -0.25,0.57813 -0.25,0.21875 -0.82812,0.21875 l -5.4375,0 q -0.57813,0 -0.82813,-0.21875 -0.25,-0.23438 -0.25,-0.59375 0,-0.34375 0.25,-0.5625 0.25,-0.23438 0.82813,-0.23438 l 1.92187,0 0,-3.89062 -1.29687,0 q -0.5625,0 -0.8125,-0.21875 -0.25,-0.21875 -0.25,-0.57813 0,-0.35937 0.23437,-0.57812 0.25,-0.21875 0.82813,-0.21875 l 2.89062,0 z m 8.41406,1.59375 0,3.21875 q 0,0.51562 0.21875,0.67187 0.32813,0.26563 1.17188,0.26563 1.21875,0 2.26562,-0.53125 0.39063,-0.20313 0.625,-0.20313 0.3125,0 0.53125,0.23438 0.23438,0.23437 0.23438,0.57812 0,0.3125 -0.25,0.53125 -0.375,0.375 -1.51563,0.6875 -1.125,0.3125 -1.89062,0.3125 -1.5,0 -2.25,-0.64062 -0.73438,-0.65625 -0.73438,-1.59375 l 0,-3.53125 -0.57812,0 q -0.57813,0 -0.82813,-0.21875 -0.25,-0.21875 -0.25,-0.57813 0,-0.35937 0.25,-0.57812 0.25,-0.21875 0.82813,-0.21875 l 0.57812,0 0,-1.45313 q 0,-0.57812 0.21875,-0.8125 0.21875,-0.25 0.57813,-0.25 0.35937,0 0.57812,0.25 0.21875,0.23438 0.21875,0.8125 l 0,1.45313 2.96875,0 q 0.57813,0 0.8125,0.21875 0.25,0.21875 0.25,0.57812 0,0.35938 -0.25,0.57813 -0.23437,0.21875 -0.8125,0.21875 l -2.96875,0 z m 9.10157,5.4375 -2.76563,-5.4375 q -0.39062,-0.0469 -0.59375,-0.26563 -0.20312,-0.21875 -0.20312,-0.53125 0,-0.35937 0.23437,-0.57812 0.25,-0.21875 0.82813,-0.21875 l 1.46875,0 q 0.57812,0 0.8125,0.21875 0.25,0.21875 0.25,0.57812 0,0.35938 -0.25,0.57813 -0.23438,0.21875 -0.76563,0.21875 l 1.89063,3.6875 1.875,-3.6875 q -0.51563,0 -0.76563,-0.21875 -0.25,-0.21875 -0.25,-0.57813 0,-0.35937 0.25,-0.57812 0.25,-0.21875 0.82813,-0.21875 l 1.5,0 q 0.57812,0 0.8125,0.21875 0.25,0.21875 0.25,0.57812 0,0.32813 -0.21875,0.54688 -0.20313,0.21875 -0.60938,0.25 l -3.67187,7.25 q 0.59375,0 0.78125,0.10937 0.375,0.25 0.375,0.6875 0,0.35938 -0.25,0.57813 -0.23438,0.21875 -0.8125,0.21875 l -3.5,0 q -0.57813,0 -0.82813,-0.21875 -0.23437,-0.21875 -0.23437,-0.57813 0,-0.35937 0.23437,-0.57812 0.25,-0.21875 0.82813,-0.21875 l 1.59375,0 0.90625,-1.8125 z m 14.53906,-2.875 0,2.15625 q -1.09375,0.57812 -1.85938,0.79687 -0.75,0.21875 -1.64062,0.21875 -1.21875,0 -2.26563,-0.375 -0.82812,-0.28125 -1.29687,-0.70312 -0.46875,-0.4375 -0.875,-1.26563 -0.39063,-0.84375 -0.39063,-1.89062 l 0,-1.15625 q 0,-1.59375 0.96875,-2.85938 1.3125,-1.70312 3.57813,-1.70312 0.65625,0 1.23437,0.14062 0.59375,0.125 1.125,0.39063 0.32813,-0.28125 0.625,-0.28125 0.35938,0 0.57813,0.25 0.21875,0.23437 0.21875,0.8125 l 0,1.03125 q 0,0.57812 -0.23438,0.82812 -0.21875,0.25 -0.5625,0.25 -0.28125,0 -0.48437,-0.17187 -0.15625,-0.125 -0.26563,-0.51563 -0.10937,-0.40625 -0.23437,-0.54687 -0.21875,-0.23438 -0.75,-0.40625 -0.53125,-0.17188 -1.20313,-0.17188 -0.95312,0 -1.65625,0.39063 -0.5,0.28125 -0.92187,1 -0.42188,0.71875 -0.42188,1.5625 l 0,1.15625 q 0,1.29687 0.75,1.96875 0.75,0.65625 2.375,0.65625 1.09375,0 2,-0.40625 l 0,-1.15625 -1.625,0 q -0.57812,0 -0.82812,-0.21875 -0.25,-0.21875 -0.25,-0.57813 0,-0.35937 0.25,-0.57812 0.25,-0.23438 0.82812,-0.23438 l 2.84375,0.0156 q 0.57813,0 0.8125,0.21875 0.25,0.21875 0.25,0.57812 0,0.28125 -0.17187,0.5 -0.15625,0.20313 -0.5,0.29688 z m 5.22656,-4.15625 0,1 q 1.01563,-0.73438 1.59375,-0.96875 0.57813,-0.25 1.09375,-0.25 0.78125,0 1.51563,0.57812 0.5,0.39063 0.5,0.79688 0,0.34375 -0.25,0.59375 -0.23438,0.23437 -0.5625,0.23437 -0.29688,0 -0.625,-0.29687 -0.32813,-0.29688 -0.59375,-0.29688 -0.32813,0 -1,0.42188 -0.67188,0.42187 -1.67188,1.26562 l 0,2.40625 2.28125,0 q 0.57813,0 0.82813,0.23438 0.25,0.21875 0.25,0.57812 0,0.34375 -0.25,0.57813 -0.25,0.21875 -0.82813,0.21875 l -4.82812,0 q -0.57813,0 -0.82813,-0.21875 -0.25,-0.23438 -0.25,-0.59375 0,-0.34375 0.25,-0.5625 0.25,-0.23438 0.82813,-0.23438 l 0.95312,0 0,-3.89062 -0.57812,0 q -0.57813,0 -0.82813,-0.21875 -0.25,-0.21875 -0.25,-0.57813 0,-0.35937 0.25,-0.57812 0.25,-0.21875 0.82813,-0.21875 l 2.17187,0 z m 14.10156,3.67187 q 0,0.92188 -0.51562,1.79688 -0.51563,0.85937 -1.53125,1.375 -1,0.51562 -2.10938,0.51562 -1.09375,0 -2.09375,-0.5 -1,-0.51562 -1.53125,-1.375 -0.51562,-0.875 -0.51562,-1.82812 0,-0.95313 0.53125,-1.875 0.53125,-0.9375 1.53125,-1.46875 1,-0.53125 2.07812,-0.53125 1.09375,0 2.10938,0.54687 1.01562,0.54688 1.53125,1.46875 0.51562,0.90625 0.51562,1.875 z m -1.60937,0.0156 q 0,-0.78125 -0.54688,-1.42188 -0.76562,-0.875 -2,-0.875 -1.07812,0 -1.8125,0.70313 -0.71875,0.6875 -0.71875,1.59375 0,0.75 0.73438,1.40625 0.73437,0.65625 1.79687,0.65625 1.07813,0 1.8125,-0.65625 0.73438,-0.65625 0.73438,-1.40625 z m 10.44531,-3.6875 0,5.48437 q 0.51563,0 0.75,0.23438 0.25,0.21875 0.25,0.57812 0,0.34375 -0.25,0.57813 -0.25,0.21875 -0.82812,0.21875 l -1.51563,0 0,-0.375 q -0.6875,0.3125 -1.3125,0.46875 -0.625,0.17187 -1.1875,0.17187 -0.79687,0 -1.375,-0.32812 -0.57812,-0.34375 -0.90625,-0.9375 -0.25,-0.42188 -0.25,-1.04688 l 0,-3.45312 -0.26562,0 q -0.57813,0 -0.82813,-0.21875 -0.25,-0.21875 -0.25,-0.57813 0,-0.35937 0.25,-0.57812 0.25,-0.21875 0.82813,-0.21875 l 1.875,0 0,4.76562 q 0,0.5 0.23437,0.75 0.25,0.23438 0.76563,0.23438 0.48437,0 1.03125,-0.1875 0.5625,-0.20313 1.39062,-0.70313 l 0,-3.26562 -0.57812,0 q -0.57813,0 -0.82813,-0.21875 -0.25,-0.21875 -0.25,-0.57813 0,-0.35937 0.25,-0.57812 0.25,-0.21875 0.82813,-0.21875 l 2.17187,0 z m 4.21094,6.20312 0,2.64063 0.96875,0 q 0.57812,0 0.8125,0.21875 0.25,0.21875 0.25,0.57812 0,0.35938 -0.25,0.57813 -0.23438,0.21875 -0.8125,0.21875 l -2.84375,0 q -0.57813,0 -0.82813,-0.21875 -0.25,-0.21875 -0.25,-0.57813 0,-0.35937 0.25,-0.57812 0.26563,-0.21875 0.82813,-0.21875 l 0.28125,0 0,-7.25 -0.28125,0 q -0.57813,0 -0.82813,-0.21875 -0.25,-0.21875 -0.25,-0.57813 0,-0.35937 0.25,-0.57812 0.25,-0.21875 0.82813,-0.21875 l 1.875,0 0,0.54687 q 0.5625,-0.39062 1.15625,-0.57812 0.60937,-0.1875 1.25,-0.1875 1.64062,0 2.79687,1.125 1.15625,1.10937 1.15625,2.54687 0,1.57813 -1.375,2.60938 -1.14062,0.85937 -2.5625,0.85937 -0.625,0 -1.23437,-0.17187 -0.59375,-0.1875 -1.1875,-0.54688 z m 4.75,-2.75 q 0,-0.32812 -0.26563,-0.84375 -0.26562,-0.53125 -0.8125,-0.875 -0.54687,-0.34375 -1.29687,-0.34375 -1.1875,0 -1.89063,0.89063 -0.48437,0.625 -0.48437,1.1875 0,0.64062 0.6875,1.25 0.6875,0.60937 1.6875,0.60937 1.01562,0 1.6875,-0.59375 0.6875,-0.60937 0.6875,-1.28125 z" />
  <path
     style="fill:#000000;fill-opacity:0;fill-rule:nonzero"
     inkscape:connector-curvature="0"
     id="path131"
     d="M 344.40812,48.56298 52.15617,125.38189" />
  <path
     style="fill-rule:nonzero;stroke:#666666;stroke-width:1;stroke-linecap:butt;stroke-linejoin:round"
     inkscape:connector-curvature="0"
     id="path133"
     d="M 344.40812,48.56298 52.15617,125.38189" />
  <path
     style="fill:#000000;fill-opacity:0;fill-rule:nonzero"
     inkscape:connector-curvature="0"
     id="path135"
     d="M 344.40812,48.56298 179.49476,125.38189" />
  <path
     style="fill-rule:nonzero;stroke:#666666;stroke-width:1;stroke-linecap:butt;stroke-linejoin:round"
     inkscape:connector-curvature="0"
     id="path137"
     d="M 344.40812,48.56298 179.49476,125.38189" />
  <path
     style="fill:#000000;fill-opacity:0;fill-rule:nonzero"
     inkscape:connector-curvature="0"
     id="path139"
     d="m 344.40812,48.56298 -33.95273,76.81891" />
  <path
     style="fill-rule:nonzero;stroke:#666666;stroke-width:1;stroke-linecap:butt;stroke-linejoin:round"
     inkscape:connector-curvature="0"
     id="path141"
     d="m 344.40812,48.56298 -33.95273,76.81891" />
  <path
     style="fill:#000000;fill-opacity:0;fill-rule:nonzero"
     inkscape:connector-curvature="0"
     id="path143"
     d="m 344.40812,48.56298 118.17322,76.81891" />
  <path
     style="fill-rule:nonzero;stroke:#666666;stroke-width:1;stroke-linecap:butt;stroke-linejoin:round"
     inkscape:connector-curvature="0"
     id="path145"
     d="m 344.40812,48.56298 118.17322,76.81891" />
  <path
     style="fill:#000000;fill-opacity:0;fill-rule:nonzero"
     inkscape:connector-curvature="0"
     id="path147"
     d="m 344.40812,48.56298 269.10236,76.81891" />
  <path
     style="fill-rule:nonzero;stroke:#666666;stroke-width:1;stroke-linecap:butt;stroke-linejoin:round"
     inkscape:connector-curvature="0"
     id="path149"
     d="m 344.40812,48.56298 269.10236,76.81891" />
</svg>
